<?xml version="1.0" standalone="no"?>
<!DOCTYPE svg PUBLIC "-//W3C//DTD SVG 1.1//EN" "http://www.w3.org/Graphics/SVG/1.1/DTD/svg11.dtd" >
<svg xmlns="http://www.w3.org/2000/svg" xmlns:xlink="http://www.w3.org/1999/xlink" version="1.1">
<metadata></metadata>
<defs>
<font id="fs_emericlight" horiz-adv-x="1236" >
<font-face units-per-em="2048" ascent="1497" descent="-551" />
<missing-glyph horiz-adv-x="475" />
<glyph unicode="&#xfb01;" horiz-adv-x="1101" d="M4 901v64l189 32q-29 86 -29 160q0 76 26.5 133.5t71.5 97t106.5 60t131.5 20.5q78 0 156.5 -22.5t138.5 -56.5l-31 -72l-59 14q-59 14 -104.5 21.5t-86.5 7.5q-51 0 -95 -13.5t-73 -41.5q-53 -53 -53 -164q0 -31 6 -69t18 -73h377v-98h-364v-901h-129v901h-197zM823 0 v999h129v-999h-129z" />
<glyph unicode="&#xfb02;" horiz-adv-x="1163" d="M4 901v64l189 32q-29 86 -29 160q0 76 26.5 133.5t71.5 97t105.5 60t128.5 20.5q57 0 120.5 -15t120.5 -44l-22 -72l-56 9q-51 8 -83.5 11t-61.5 3q-51 0 -95 -13.5t-73 -41.5q-53 -53 -53 -164q0 -31 6 -69t18 -73h377v-98h-364v-901h-129v901h-197zM834 174v1278h129 v-1341l184 -27v-57q-29 -12 -74 -21.5t-78 -9.5q-80 0 -123 47q-39 41 -38 131z" />
<glyph unicode="&#xfb03;" horiz-adv-x="1767" d="M4 901v64l189 32q-29 86 -29 160q0 76 26.5 133.5t71.5 97t106.5 60t131.5 20.5q78 0 153.5 -22.5t134.5 -56.5l-30 -72l-58 14q-55 14 -100 21.5t-86 7.5q-51 0 -95 -13.5t-73 -41.5q-53 -53 -53 -164q0 -31 6 -69t18 -73h539q-27 78 -27 158q0 76 27 133.5t72 97 t106.5 60t130.5 20.5q78 0 157 -22.5t138 -56.5l-30 -72l-60 14q-59 14 -104 21.5t-86 7.5q-51 0 -95.5 -13.5t-72.5 -41.5q-53 -53 -54 -164q0 -31 6.5 -69t18.5 -73h377v-98h-365v-901h-129v901h-536v-901h-129v901h-197zM1489 0v999h129v-999h-129z" />
<glyph unicode="&#xfb04;" horiz-adv-x="1826" d="M4 901v64l189 32q-29 86 -29 160q0 76 26.5 133.5t71.5 97t106.5 60t131.5 20.5q78 0 153.5 -22.5t134.5 -56.5l-30 -72l-58 14q-55 14 -100 21.5t-86 7.5q-51 0 -95 -13.5t-73 -41.5q-53 -53 -53 -164q0 -31 6 -69t18 -73h539q-29 86 -29 160q0 76 27 133.5t72 96 t105.5 59t127.5 20.5q57 0 120.5 -15t121.5 -44l-23 -72l-55 9q-51 8 -84 11t-61 3q-51 0 -95.5 -12.5t-72.5 -40.5q-53 -53 -54 -164q0 -31 6.5 -69t18.5 -73l2 -2h377v-98h-365v-901h-129v901h-536v-901h-129v901h-197zM1497 176v1278h129v-1341l184 -27v-57 q-29 -12 -73.5 -21.5t-77.5 -9.5q-80 0 -123 47q-39 41 -39 131z" />
<glyph horiz-adv-x="0" />
<glyph unicode="&#xd;" horiz-adv-x="475" />
<glyph unicode=" "  horiz-adv-x="475" />
<glyph unicode="&#x09;" horiz-adv-x="475" />
<glyph unicode="&#xa0;" horiz-adv-x="475" />
<glyph unicode="!" horiz-adv-x="489" d="M166 0v160h125q20 0 26.5 -5t6.5 -22v-133h-158zM178 866v492h133v-492q0 -55 -2 -113.5t-6 -115.5l-27 -293h-63l-27 293q-4 57 -6 115.5t-2 113.5z" />
<glyph unicode="&#x22;" horiz-adv-x="765" d="M160 1276v82h139v-82q0 -47 -3 -98.5t-9 -118.5l-21 -211h-73l-21 211q-6 72 -9 121t-3 96zM467 1276v82h139v-82q0 -47 -3 -98.5t-9 -118.5l-21 -211h-73l-21 211q-6 72 -9 121t-3 96z" />
<glyph unicode="#" d="M119 391v107h205l63 360h-268v107h287l69 393h113l-70 -393h299l70 393h112l-69 -393h188v-107h-207l-65 -360h272v-107h-291l-67 -391h-113l68 391h-299l-68 -391h-112l67 391h-184zM436 498h297l66 360h-299z" />
<glyph unicode="$" d="M135 109l37 71l125 -37q78 -23 147.5 -35t137.5 -12v586l-68 25q-84 31 -148.5 62.5t-110.5 72.5t-69.5 93t-23.5 122q0 76 31.5 134t88 98t133.5 61.5t167 25.5v2l14 191h90v-193q84 -6 172 -25.5t166 -47.5l-20 -80l-89 12q-59 8 -117.5 14t-111.5 11v-490l35 -12 q76 -29 142.5 -60.5t114.5 -77t75.5 -105.5t27.5 -144q0 -86 -31.5 -152.5t-85 -116t-126 -79t-152.5 -37.5l-14 -199h-90v193q-55 2 -115.5 11t-120 26.5t-114 40t-97.5 51.5zM287 1059q0 -88 65.5 -139.5t204.5 -102.5l25 -10v453q-131 -4 -213 -51.5t-82 -149.5zM686 100 q139 20 203.5 95.5t64.5 175.5q0 102 -60 160.5t-208 111.5v-543z" />
<glyph unicode="%" horiz-adv-x="1837" d="M115 1026q0 76 27.5 141.5t74.5 111.5t108.5 72.5t131.5 26.5t131 -26.5t108 -72.5t75 -111.5t28 -141.5q0 -78 -28 -142.5t-75 -110.5t-108.5 -72.5t-130.5 -26.5q-70 0 -131.5 26.5t-108.5 72.5t-74.5 110.5t-27.5 142.5zM231 1026q0 -125 64.5 -184.5t161.5 -59.5 q96 0 160.5 59.5t64.5 184.5t-64.5 184.5t-160.5 59.5t-161 -59.5t-65 -184.5zM520 0l674 1358h123l-674 -1358h-123zM1038 332q0 76 28 141.5t75 111.5t108.5 72.5t130.5 26.5q70 0 131.5 -26.5t108.5 -72.5t74.5 -111.5t27.5 -141.5q0 -78 -27.5 -142.5t-74.5 -110.5 t-108.5 -72.5t-131.5 -26.5t-131 26.5t-108 72.5t-75 110.5t-28 142.5zM1155 332q0 -125 64.5 -184.5t160.5 -59.5t161 59.5t65 184.5t-64.5 184t-161.5 59q-96 0 -160.5 -59t-64.5 -184z" />
<glyph unicode="&#x26;" horiz-adv-x="1486" d="M68 436q0 63 22.5 118.5t64.5 105t99 94.5t127 88q-39 51 -61.5 103t-22.5 114q0 74 28.5 132t78 100t113 64.5t132.5 22.5q68 0 128.5 -22.5t106.5 -63.5t73.5 -97t27.5 -126q0 -102 -78 -200.5t-211 -198.5l330 -342q41 55 79 123.5t73 146.5l88 209l90 -23 q-37 -141 -99.5 -282.5t-152.5 -255.5l137 -142l178 -24v-53q-27 -10 -68.5 -22.5t-70.5 -12.5q-55 0 -94 20.5t-90 73.5l-68 72q-86 -82 -194.5 -130t-243.5 -48q-106 0 -201.5 36.5t-166 99t-112.5 145.5t-42 175zM199 440q0 -70 29.5 -132t83 -109t126 -75t158.5 -28 q111 0 197 37t157 105l-514 540l-16 -14q-57 -51 -98 -90t-69 -75t-41 -73t-13 -86zM416 1065q0 -35 11 -67.5t36.5 -70.5t66.5 -83t99 -105l12 -12l78 84q61 68 106 127t45 135q0 82 -63.5 137.5t-163.5 55.5q-96 0 -161.5 -54.5t-65.5 -146.5z" />
<glyph unicode="'" horiz-adv-x="458" d="M160 1276v82h139v-82q0 -47 -3 -98.5t-9 -118.5l-21 -211h-73l-21 211q-6 72 -9 121t-3 96z" />
<glyph unicode="(" horiz-adv-x="628" d="M147 444q0 281 109 511.5t332 430.5l65 -55q-102 -102 -172.5 -213.5t-114.5 -226.5t-63.5 -228.5t-19.5 -218.5q0 -104 19.5 -217.5t63.5 -228.5t114.5 -227.5t172.5 -212.5l-65 -56q-223 201 -332 431t-109 511z" />
<glyph unicode=")" horiz-adv-x="628" d="M-25 -442q102 100 173 212.5t115 227.5t63.5 228.5t19.5 217.5t-19.5 218t-63.5 229t-114.5 226.5t-173.5 213.5l66 55q223 -201 331.5 -431t108.5 -511t-108.5 -511t-331.5 -431z" />
<glyph unicode="*" horiz-adv-x="870" d="M92 1067l33 88q6 16 14 19.5t27 -7.5l237 -127l-26 318h96q18 0 23.5 -6t3.5 -23l-27 -289l268 131l33 -81q8 -18 2 -25.5t-22 -11.5l-254 -76l221 -244l-82 -51q-25 -16 -43 10l-158 248l-176 -272l-82 51q-27 16 -4 41l201 217z" />
<glyph unicode="+" horiz-adv-x="1073" d="M164 453v102h321v322h103v-322h321v-102h-321v-322h-103v322h-321z" />
<glyph unicode="," horiz-adv-x="425" d="M51 -258l121 227q8 16 -4 25l-18 14q-18 14 -23.5 23.5t-5.5 27.5v109h133q20 0 26.5 -5t6.5 -22v-59q0 -49 -5.5 -83t-21.5 -69q-20 -41 -60 -94t-102 -125z" />
<glyph unicode="-" horiz-adv-x="864" d="M137 451v102h590v-102h-590z" />
<glyph unicode="." horiz-adv-x="436" d="M137 0v168h129q20 0 26.5 -5t6.5 -22v-141h-162z" />
<glyph unicode="/" horiz-adv-x="884" d="M33 0l686 1358h133l-686 -1358h-133z" />
<glyph unicode="0" d="M111 680q0 143 34.5 270t99 222.5t159 150.5t214.5 55q119 0 214.5 -55t160 -150.5t99 -222.5t34.5 -270t-34.5 -271t-99 -223.5t-160 -150.5t-214.5 -55q-121 0 -215 55t-158.5 150.5t-99 223.5t-34.5 271zM248 680q0 -127 23.5 -234.5t70.5 -184.5t115.5 -120 t160.5 -43t161 43t116 120t70.5 184.5t23.5 234.5t-23.5 233.5t-70.5 183.5t-115.5 120t-161.5 43q-92 0 -161.5 -43t-115.5 -120t-69.5 -183.5t-23.5 -233.5z" />
<glyph unicode="1" d="M223 1149l400 192q23 10 34 13.5t29 3.5h72v-1256h319v-102h-825v102h377v1119q-29 -16 -89.5 -43t-129.5 -54l-146 -55z" />
<glyph unicode="2" d="M168 1227q111 72 225.5 111.5t222.5 39.5q86 0 162 -26.5t132.5 -75.5t88 -117.5t31.5 -152.5q0 -68 -22.5 -129.5t-65.5 -125t-104.5 -131t-141.5 -149.5l-354 -365h719v-106h-871v80q0 10 3.5 16t13.5 19l409 436q74 80 127.5 139.5t87 110.5t49 96t15.5 98 q0 125 -76 195t-209 70q-68 0 -135 -16.5t-151 -49.5l-111 -43z" />
<glyph unicode="3" d="M125 154l43 71l125 -51q98 -41 176 -59.5t156 -18.5q154 0 247 80t93 227q0 119 -62 179q-35 33 -87 47t-124 14h-137q-25 0 -25 23v77h213q41 0 59.5 8.5t35.5 34.5q31 49 49 110.5t18 119.5q0 125 -78.5 185.5t-203.5 60.5q-66 0 -133.5 -16.5t-167.5 -55.5l-97 -37 l-43 74q113 72 227.5 111.5t225.5 39.5q84 0 156.5 -23.5t127 -66.5t85 -103.5t30.5 -133.5q0 -174 -137 -346q102 -41 152.5 -123t50.5 -187q0 -86 -33 -161.5t-92.5 -132t-144.5 -89t-189 -32.5q-141 0 -273 47t-243 127z" />
<glyph unicode="4" d="M113 360v72q0 16 3 22.5t13 20.5l684 866q10 10 15.5 13.5t15.5 3.5h110v-897h207v-101h-207v-360h-129v360h-712zM248 461h577v733l-137 -178l-301 -385q-41 -53 -78 -97.5t-61 -72.5z" />
<glyph unicode="5" d="M152 143l43 72l96 -39q102 -41 179 -60.5t144 -19.5q164 0 251 86t87 240q0 72 -24.5 125t-69.5 89t-105.5 53.5t-131.5 17.5q-78 0 -161 -18.5t-147 -41.5q-14 -4 -34 6l-43 25q-10 6 -12.5 11t-2.5 22v647h758v-107h-645v-247q0 -61 -2 -132t-6 -120q72 29 164 47 t163 18q90 0 168 -29.5t136.5 -82t91 -127t32.5 -162.5q0 -90 -29.5 -169t-88 -138.5t-142.5 -94t-194 -34.5q-59 0 -122 11t-125.5 32.5t-120.5 51t-107 68.5z" />
<glyph unicode="6" d="M145 623v12q0 168 45.5 306t123 234.5t185 149.5t232.5 53q74 0 152 -17.5t145 -49.5l-29 -80q-78 18 -139 27.5t-115 9.5q-111 0 -195.5 -42t-144 -117t-92 -177.5t-37.5 -224.5l50 26q92 49 184 79t184 30q90 0 169 -29t136.5 -82t90 -127t32.5 -166q0 -96 -35.5 -180 t-97 -145.5t-145.5 -97t-178 -35.5q-131 0 -228.5 52t-162 141t-97.5 206t-33 244zM276 559q0 -94 26 -179t75 -148.5t120.5 -100.5t164.5 -37q76 0 137 24.5t105 69.5t67.5 107.5t23.5 136.5q0 154 -89 225.5t-238 71.5q-96 0 -186.5 -29.5t-170.5 -74.5q-23 -12 -29 -24.5 t-6 -41.5z" />
<glyph unicode="7" d="M143 1247v111h961v-68q0 -18 -2 -28.5t-10 -24.5l-385 -678q-51 -90 -83 -161.5t-49.5 -135t-24.5 -126t-11 -136.5h-125q4 98 14 172t31.5 141.5t55.5 137t85 157.5l229 391q41 68 81 134.5t73 113.5h-840z" />
<glyph unicode="8" d="M115 383q0 59 20.5 114.5t55 105.5t80.5 92t98 77q-78 45 -129.5 109.5t-51.5 167.5q0 80 39 141t101.5 103t141.5 63.5t157 21.5q84 0 161.5 -23.5t138 -66.5t97.5 -104.5t37 -139.5q0 -96 -59.5 -184t-155.5 -168q55 -25 105 -54.5t88 -67.5t60.5 -88t22.5 -113 q0 -80 -37.5 -151t-104.5 -124t-159 -83.5t-198 -30.5q-102 0 -194.5 29.5t-162 82.5t-110.5 127t-41 164zM244 387q0 -59 26.5 -111.5t75.5 -93.5t120 -64.5t159 -23.5q80 0 147.5 20.5t117.5 57.5t78.5 86t28.5 107q0 76 -49 127t-124.5 90t-167 69.5t-175.5 65.5 q-31 12 -53 -8q-82 -72 -133 -150t-51 -172zM309 1047q0 -61 36 -105.5t93.5 -79.5t130 -63.5t146.5 -55.5q39 -14 59 7q66 59 115 133.5t49 152.5q0 53 -23.5 96.5t-65.5 73t-99.5 45t-124.5 15.5q-59 0 -116.5 -13.5t-102 -40t-71 -67.5t-26.5 -98z" />
<glyph unicode="9" d="M113 932q0 98 35.5 180t97 141.5t144.5 92t177 32.5q131 0 229.5 -51t164 -139t98.5 -205t33 -248v-12q0 -174 -38 -312.5t-112 -233.5t-180.5 -146t-241.5 -51q-147 0 -299 71l31 78q66 -16 127 -27.5t125 -11.5q115 0 198.5 40t140 112.5t85 176t33.5 230.5l-50 -26 q-92 -49 -186 -78t-188 -29q-92 0 -169 31t-134.5 86t-89 132t-31.5 167zM240 938q0 -154 89 -231.5t236 -77.5q96 0 188.5 28.5t172.5 73.5q23 12 29 24.5t6 41.5q0 96 -26 181t-75 148.5t-120.5 100.5t-164.5 37q-84 0 -146 -25t-104 -69t-63.5 -103t-21.5 -129z" />
<glyph unicode=":" horiz-adv-x="436" d="M137 0v168h129q20 0 26.5 -5t6.5 -22v-141h-162zM137 678v168h129q20 0 26.5 -5t6.5 -22v-141h-162z" />
<glyph unicode=";" horiz-adv-x="425" d="M51 -258l121 227q8 16 -4 25l-18 14q-18 14 -23.5 23.5t-5.5 27.5v109h133q20 0 26.5 -5t6.5 -22v-59q0 -49 -5.5 -83t-21.5 -69q-20 -41 -60 -94t-102 -125zM123 678v168h129q20 0 26.5 -5t6.5 -22v-141h-162z" />
<glyph unicode="&#x3c;" horiz-adv-x="1073" d="M164 455v98l745 334v-115l-614 -268l614 -271v-114z" />
<glyph unicode="=" horiz-adv-x="1073" d="M164 268v103h745v-103h-745zM164 637v102h745v-102h-745z" />
<glyph unicode="&#x3e;" horiz-adv-x="1073" d="M164 119v114l614 271l-614 268v115l745 -334v-98z" />
<glyph unicode="?" horiz-adv-x="978" d="M39 1221q43 33 96 62.5t111.5 50t119 32.5t115.5 12q88 0 166 -25.5t135.5 -72.5t91 -114.5t33.5 -153.5q0 -121 -73.5 -216.5t-237.5 -174.5l-121 -60l-26 -217h-70l-17 125q-4 25 -6 51.5t-2 36.5q0 33 13.5 49.5t44.5 32.5l65 37q70 39 126 73.5t95 71.5t59.5 81 t20.5 102q0 129 -82 192.5t-217 63.5q-61 0 -127.5 -13.5t-152.5 -46.5l-119 -45zM336 0v160h125q20 0 26.5 -5t6.5 -22v-133h-158z" />
<glyph unicode="@" horiz-adv-x="1542" d="M61 498q0 162 60.5 291t161 220t229.5 139t268 48q150 0 275 -50t215 -135t141 -198t51 -240q0 -96 -27.5 -172.5t-74.5 -130t-110.5 -82t-133.5 -28.5q-53 0 -97 19.5t-73 53.5l-55 -26q-47 -23 -90 -33t-86 -10q-53 0 -99.5 18.5t-81 49t-54 71.5t-19.5 88t17.5 79 t45 52.5t63.5 28.5t75 8h2q25 0 67.5 -3t83.5 -7l107 -8v47q0 82 -35 112q-20 18 -53 25.5t-72 7.5q-41 0 -77 -5t-75 -15l-71 -19l-31 64q61 35 127.5 57.5t130.5 22.5q137 0 209 -70q29 -29 42 -69t13 -95v-258q0 -43 24.5 -67.5t71.5 -24.5q45 0 85 20.5t71 59.5t48.5 97 t17.5 134q0 123 -44 219.5t-120 163t-179.5 100t-220.5 33.5q-129 0 -237.5 -38.5t-187 -112.5t-124 -182.5t-45.5 -247.5q0 -135 45.5 -245t126 -186.5t191.5 -118.5t242 -42q172 0 376 88l172 74l37 -58q-59 -43 -130.5 -83t-150.5 -68.5t-161 -46t-162 -17.5 q-141 0 -271 50.5t-228.5 142.5t-157 221t-58.5 287zM578 391q0 -63 45 -94t110 -31q37 0 86 12.5t88 28.5q10 4 12.5 9.5t2.5 13.5v121q0 14 -19 14h-260q-29 0 -47 -15.5t-18 -58.5z" />
<glyph unicode="A" horiz-adv-x="1382" d="M51 0l563 1358h111q16 0 21.5 -4t9.5 -15l573 -1339h-119q-14 0 -19 4t-9 14l-140 330h-710l-133 -330q-4 -10 -8.5 -14t-20.5 -4h-119zM377 457h618l-147 350q-51 121 -93 222t-75 190h-2q-14 -39 -33.5 -90.5t-41 -107.5t-44 -112.5t-41.5 -103.5z" />
<glyph unicode="B" horiz-adv-x="1251" d="M168 0v1358h444q98 0 186.5 -16.5t151.5 -63.5q47 -35 75 -90t28 -133q0 -92 -42 -180.5t-110 -153.5v-2q106 -35 178 -119t72 -209q0 -90 -30.5 -159.5t-82.5 -118.5q-119 -113 -354 -113h-516zM303 111h367q92 0 156.5 15t111.5 60q39 39 56.5 94.5t17.5 108.5 q0 127 -70 193q-37 35 -92 50t-143 15h-404v-536zM303 754h440q37 0 58.5 10t44.5 39q35 47 54.5 105.5t19.5 117.5q0 109 -56 162q-35 35 -92 47t-154 12h-315v-493z" />
<glyph unicode="C" horiz-adv-x="1370" d="M88 680q0 145 49 273t137 222.5t206 148.5t257 54q90 0 171 -26.5t147.5 -74.5t120 -112.5t88.5 -140.5l-80 -47l-113 113q-80 80 -157.5 120.5t-182.5 40.5q-113 0 -206 -41t-158.5 -115.5t-102.5 -180t-37 -234.5t35 -234.5t101.5 -181.5t164 -118t220.5 -42 q86 0 175 28t175 75l141 78l53 -66q-119 -111 -269.5 -175t-299.5 -64q-139 0 -255 52t-201 144t-132 221t-47 283z" />
<glyph unicode="D" horiz-adv-x="1427" d="M168 0v1358h395q190 0 325.5 -37t231.5 -115q104 -86 160.5 -216t56.5 -310t-56 -311t-161 -217q-96 -78 -231 -115t-326 -37h-395zM303 113h234q174 0 291.5 27.5t197.5 92.5q174 139 174 447q0 305 -174 444q-80 66 -197.5 93.5t-291.5 27.5h-234v-1132z" />
<glyph unicode="E" horiz-adv-x="1126" d="M168 0v1358h838v-111h-703v-483h629v-111h-629v-542h727v-111h-862z" />
<glyph unicode="F" horiz-adv-x="1060" d="M168 0v1358h825v-111h-690v-483h612v-111h-612v-653h-135z" />
<glyph unicode="G" horiz-adv-x="1495" d="M88 678q0 160 53.5 290t143.5 221t211.5 140t257.5 49q90 0 173 -26.5t152.5 -71.5t125 -105.5t91.5 -130.5l-73 -55l-125 113q-86 78 -166 115.5t-191 37.5q-100 0 -192 -34.5t-164 -106.5t-115 -180.5t-43 -255.5q0 -135 39 -241.5t108.5 -180.5t166 -114t211.5 -40 q96 0 212.5 33t217.5 88q16 10 21 18.5t5 20.5v295h-274v100h379q27 0 26 -24v-633h-88l-32 131l-115 -57q-94 -47 -185.5 -70.5t-185.5 -23.5q-141 0 -260 53t-205 146t-133 221t-47 278z" />
<glyph unicode="H" horiz-adv-x="1421" d="M168 0v1358h135v-592h815v592h135v-1358h-135v653h-815v-653h-135z" />
<glyph unicode="I" horiz-adv-x="495" d="M180 0v1358h135v-1358h-135z" />
<glyph unicode="J" horiz-adv-x="995" d="M45 90l29 74l110 -29q90 -23 149.5 -32t112.5 -9q131 0 199 74q33 35 45 85t12 126v979h136v-977q0 -201 -99 -299q-49 -49 -121.5 -75.5t-162.5 -26.5q-100 0 -208 30.5t-202 79.5z" />
<glyph unicode="K" horiz-adv-x="1267" d="M168 0v1358h135v-725l813 731l76 -80l-522 -467l577 -817h-125q-16 0 -23 4t-18 16l-506 719q-72 -63 -145.5 -125.5t-126.5 -103.5v-510h-135z" />
<glyph unicode="L" horiz-adv-x="1056" d="M168 0v1358h135v-1247h690v-111h-825z" />
<glyph unicode="M" horiz-adv-x="1693" d="M168 0v1358h90q14 0 19.5 -3t15.5 -16l559 -739h2l551 739q10 12 16 15.5t21 3.5h84v-1358h-129v1145q-12 -16 -35 -48t-50.5 -71t-58 -80t-57.5 -78l-293 -391h-86q-16 0 -21 4t-16 15l-280 370q-55 72 -109.5 145.5t-93.5 133.5v-1145h-129z" />
<glyph unicode="N" horiz-adv-x="1492" d="M168 0v1358h80q14 0 21 -3t18 -16l655 -807q74 -92 140.5 -176t113.5 -145v1147h129v-1358h-80q-14 0 -20 3t-17 15l-657 811q-78 98 -143.5 176t-110.5 136v-1141h-129z" />
<glyph unicode="O" horiz-adv-x="1490" d="M88 678q0 150 50 277.5t138.5 222t208 147.5t260.5 53t261 -53t208.5 -147.5t138.5 -222t50 -277.5t-50 -278t-138.5 -221t-208 -146t-261.5 -53q-141 0 -260.5 53t-208 146t-138.5 221t-50 278zM227 678q0 -129 38 -234.5t106.5 -179.5t164 -114.5t209.5 -40.5 q115 0 210.5 40.5t164 114.5t106.5 179.5t38 234.5t-38 234.5t-106.5 180t-164 115.5t-210.5 41t-210 -41t-163.5 -115.5t-106.5 -180t-38 -234.5z" />
<glyph unicode="P" horiz-adv-x="1232" d="M168 0v1358h487q125 0 217.5 -29t157.5 -94q51 -51 79 -126t28 -167q0 -111 -34 -203t-99 -157q-45 -47 -100.5 -70t-137.5 -23h-463v-489h-135zM303 598h483q41 0 69 10t56 39q43 47 65.5 123t22.5 170q0 72 -18 128t-53 93q-43 47 -113 66.5t-166 19.5h-346v-649z" />
<glyph unicode="Q" horiz-adv-x="1490" d="M88 678q0 150 50 277.5t138.5 222t208 147.5t260.5 53t261 -53t208.5 -147.5t138.5 -222t50 -277.5q0 -109 -26.5 -206t-76 -179t-118 -145.5t-152.5 -104.5l221 -334l-129 -57l-213 348q-39 -10 -80 -15t-84 -5q-141 0 -260.5 53t-208 146t-138.5 221t-50 278zM227 678 q0 -129 38 -234.5t106.5 -179.5t164 -114.5t209.5 -40.5q115 0 210.5 40.5t164 114.5t106.5 179.5t38 234.5t-38 234.5t-106.5 180t-164 115.5t-210.5 41t-210 -41t-163.5 -115.5t-106.5 -180t-38 -234.5z" />
<glyph unicode="R" horiz-adv-x="1286" d="M168 0v1358h475q145 0 236.5 -31t150.5 -92q104 -109 105 -289q0 -141 -64.5 -246.5t-175.5 -158.5l315 -541h-123q-23 0 -32 18l-277 482q-8 14 -14 18t-23 4h-438v-522h-135zM303 631h469q53 0 81 10t56 39q43 47 65.5 117.5t22.5 142.5q0 147 -67 221 q-41 47 -108.5 66.5t-172.5 19.5h-346v-616z" />
<glyph unicode="S" horiz-adv-x="1153" d="M84 109l37 75l119 -32q88 -25 168.5 -38.5t146.5 -13.5q94 0 159.5 20.5t106.5 57.5t60.5 86t19.5 107q0 51 -14.5 91t-47 71.5t-82.5 57t-124 52.5l-170 62q-80 29 -145.5 61.5t-111.5 74.5t-70.5 94t-24.5 122q0 80 35.5 140t97 100t144.5 60.5t177 20.5t205 -21.5 t203 -56.5l-21 -81l-88 12q-78 10 -154.5 18t-138.5 8q-147 0 -240 -44t-93 -154q0 -88 66.5 -139.5t201.5 -100.5l164 -59q78 -29 143.5 -61.5t113.5 -78t75.5 -105.5t27.5 -144q0 -96 -37 -170t-100.5 -123t-148.5 -73.5t-183 -24.5q-55 0 -119.5 9t-128 25.5t-123 41 t-106.5 53.5z" />
<glyph unicode="T" horiz-adv-x="1171" d="M53 1245v113h1065v-113h-465v-1245h-135v1245h-465z" />
<glyph unicode="U" horiz-adv-x="1404" d="M160 496v862h135v-844q0 -115 25.5 -190.5t80.5 -124.5q51 -45 130 -70t171 -25t171 25t131 70q55 49 81.5 124.5t26.5 190.5v844h133v-862q0 -135 -40 -228.5t-115 -158.5q-72 -61 -168.5 -95t-219.5 -34t-219 33.5t-168 95.5q-76 66 -115.5 158.5t-39.5 228.5z" />
<glyph unicode="V" horiz-adv-x="1368" d="M45 1358h121q14 0 19 -4t10 -15l333 -788q53 -123 94.5 -225.5t73.5 -188.5h2q12 35 31 83t40.5 101.5t43 109.5t43.5 110l322 798q4 10 8 14.5t20 4.5h117l-557 -1358h-119q-23 0 -31 18z" />
<glyph unicode="W" horiz-adv-x="2052" d="M45 1358h117q23 0 28 -19l263 -782q39 -117 74.5 -229.5t58.5 -184.5h2q8 33 20.5 80t27.5 100.5t30.5 109.5t31.5 110l240 815h123q14 0 19 -3t10 -16l262 -800q18 -55 36.5 -110.5t35 -109t31.5 -99.5t26 -83h2q23 74 52.5 177.5t70.5 226.5l262 798q4 12 9 15.5 t19 3.5h111l-457 -1358h-137q-14 0 -18 4t-9 14l-243 748q-20 61 -40 124.5t-37 121t-30.5 105.5t-21.5 81h-2q-8 -33 -21.5 -83t-30 -108.5t-35 -121t-34.5 -119.5l-223 -766h-138q-14 0 -18 4t-8 14z" />
<glyph unicode="X" horiz-adv-x="1316" d="M37 0l534 721l-493 637h127q14 0 20 -2t17 -17l409 -530l393 530q10 12 15.5 15.5t21.5 3.5h123l-479 -639l555 -719h-127q-23 0 -37 18l-471 611l-444 -611q-10 -12 -16.5 -15t-20.5 -3h-127z" />
<glyph unicode="Y" horiz-adv-x="1218" d="M16 1358h119q14 0 20.5 -3t14.5 -16l258 -442q53 -96 105.5 -187.5t78.5 -142.5h2q27 51 78 141.5t105 184.5l258 446q8 12 14 15.5t21 3.5h114l-526 -903v-455h-135v457z" />
<glyph unicode="Z" horiz-adv-x="1126" d="M72 1249v109h958v-58q0 -12 -3 -20t-13 -25l-561 -843l-205 -303h803v-109h-965v55q0 12 3 20.5t13 24.5l562 844q29 43 59.5 89t59 88t51 76t36.5 52h-798z" />
<glyph unicode="[" horiz-adv-x="610" d="M180 -469v1827h410v-111h-281v-1605h281v-111h-410z" />
<glyph unicode="\" horiz-adv-x="884" d="M33 1358h133l686 -1358h-133z" />
<glyph unicode="]" horiz-adv-x="610" d="M20 -358h281v1605h-281v111h410v-1827h-410v111z" />
<glyph unicode="^" horiz-adv-x="1073" d="M156 938l325 440h111l326 -440l-91 -57l-290 391l-291 -391z" />
<glyph unicode="_" horiz-adv-x="901" d="M20 -145h861v-97h-861v97z" />
<glyph unicode="`" horiz-adv-x="798" d="M162 1341l65 99q10 14 25 4l385 -285l-41 -57z" />
<glyph unicode="a" horiz-adv-x="1093" d="M92 309q0 59 18.5 105.5t53.5 77.5q79 69 235 69h4h5q37 0 76.5 -1t99.5 -5l204 -12v116q0 61 -15 104.5t-44 72.5q-65 65 -197 65h-4q-106 0 -239 -45l-113 -39l-35 68q104 63 200.5 97t195.5 34q86 0 164.5 -29t129.5 -82q41 -45 64 -104.5t23 -141.5v-548l159 -31v-55 q-29 -10 -62.5 -19.5t-68.5 -9.5q-53 0 -93 24.5t-54 71.5l-58 -29q-84 -41 -153.5 -60t-138.5 -19q-70 0 -134.5 24.5t-113.5 67.5t-79 102.5t-30 130.5zM223 313q0 -94 64.5 -156.5t187.5 -62.5q72 0 149.5 21.5t143.5 54.5q14 8 17 15.5t3 19.5v231q0 20 -22 21h-408 q-72 0 -102 -35q-16 -18 -24.5 -46t-8.5 -63z" />
<glyph unicode="b" horiz-adv-x="1163" d="M154 0v1452h129v-561l73 41q72 41 139.5 62.5t139.5 21.5q96 0 176 -38t138.5 -105.5t91 -163t32.5 -209.5q0 -115 -31.5 -209t-88 -163t-137.5 -106.5t-179 -37.5q-68 0 -135.5 21.5t-145.5 62.5l-80 43l-38 -111h-84zM283 236q0 -25 18 -35q78 -43 157 -71t163 -28 q59 0 119.5 18.5t107.5 67.5q45 47 68.5 123t23.5 189t-23.5 188.5t-68.5 122.5q-47 49 -107.5 67.5t-119.5 18.5q-84 0 -163 -27.5t-157 -70.5q-18 -10 -18 -35v-528z" />
<glyph unicode="c" horiz-adv-x="1054" d="M88 504q0 109 35 202t98.5 162.5t151.5 108.5t194 39q68 0 131.5 -20.5t116.5 -56.5t92 -85t62 -106l-82 -43l-56 55q-74 72 -136 108.5t-144 36.5q-74 0 -135.5 -28.5t-104.5 -81t-66.5 -126t-23.5 -161.5q0 -201 95.5 -306.5t258.5 -105.5q61 0 123 18.5t133 53.5 l115 57l45 -61q-96 -82 -204.5 -131t-223.5 -49q-109 0 -196.5 38.5t-149 108.5t-95.5 165t-34 208z" />
<glyph unicode="d" horiz-adv-x="1165" d="M90 500q0 119 37 215t99.5 162.5t143.5 102.5t169 36q78 0 145.5 -21.5t126.5 -56.5l72 -43v557h129v-1452h-84l-39 106l-78 -40q-84 -43 -148.5 -62.5t-134.5 -19.5q-98 0 -178 37.5t-138 105.5t-90 163t-32 210zM223 500q0 -113 23.5 -188.5t68.5 -123.5 q47 -49 107.5 -67.5t120.5 -18.5q82 0 162.5 28t158.5 69q18 10 19 34v531q0 25 -19 35q-72 45 -151.5 72.5t-151.5 27.5q-176 0 -257 -109.5t-81 -289.5z" />
<glyph unicode="e" horiz-adv-x="1107" d="M88 500q0 113 36 207t98.5 162.5t148.5 107.5t186 39q102 0 186 -38t144.5 -103.5t93.5 -151.5t33 -182q0 -49 -7.5 -59.5t-23.5 -10.5h-762q10 -170 102.5 -272.5t264.5 -102.5q59 0 119.5 14.5t132.5 45.5l123 51l38 -64q-98 -74 -212 -116.5t-214 -42.5 q-109 0 -198.5 38.5t-154 108.5t-99.5 164t-35 205zM223 569h666q-10 154 -94 243t-236 89q-137 0 -229 -81t-107 -251z" />
<glyph unicode="f" horiz-adv-x="690" d="M4 901v64l189 32q-29 86 -29 160q0 76 26.5 133.5t71.5 97t106.5 60t131.5 20.5q78 0 153.5 -22.5t134.5 -56.5l-30 -72l-58 14q-55 14 -100 21.5t-86 7.5q-51 0 -95 -13.5t-73 -41.5q-53 -53 -53 -164q0 -31 6 -69t18 -73h377v-98h-364v-901h-129v901h-197z" />
<glyph unicode="g" horiz-adv-x="1097" d="M37 -152q0 66 31.5 114t85.5 79q-33 31 -33 72q0 29 13 52t36 52l98 123q-68 53 -105.5 128t-37.5 167q0 80 30.5 149.5t85 120.5t128 81t161.5 30q80 0 150 -24.5t123 -67.5l71 51q53 37 82 48t56 11q18 0 41.5 -7t40.5 -17v-72l-213 -66q-18 -6 -11 -16 q35 -47 56.5 -103.5t21.5 -117.5q0 -80 -30.5 -149.5t-85 -121t-130 -81t-165.5 -29.5q-98 0 -181 35q-10 4 -16 -6l-70 -121q-12 -23 -12 -31q0 -20 39 -20h393q184 0 273 -88q67 -67 67 -170q0 -79 -36 -143t-102.5 -111.5t-157.5 -74t-202 -26.5t-201.5 25.5t-156 73 t-101.5 111t-36 140.5zM160 -137q0 -55 25.5 -103.5t74.5 -83t117.5 -54t154.5 -19.5q80 0 149 18.5t119 51t77.5 78.5t27.5 104q0 70 -39 104q-31 29 -82 38t-114 9h-365q-76 0 -108 -33q-18 -18 -27.5 -46.5t-9.5 -63.5zM250 635q0 -139 81 -207t206 -68t205.5 68 t80.5 207q0 70 -22.5 121t-61.5 84.5t-93 51t-116 17.5q-125 0 -202.5 -67.5t-77.5 -206.5z" />
<glyph unicode="h" horiz-adv-x="1136" d="M154 0v1452h129v-534l55 26q70 33 140.5 52.5t139.5 19.5q96 0 171 -30t122 -81q43 -47 65.5 -109.5t22.5 -148.5v-647h-129v633q0 74 -13 119t-42 75q-35 37 -90 52.5t-127 15.5q-61 0 -130 -12.5t-128 -34.5l-33 -12q-16 -6 -20 -12.5t-4 -20.5v-803h-129z" />
<glyph unicode="i" horiz-adv-x="444" d="M150 1208v150h114q16 0 23.5 -4t7.5 -21v-125h-145zM158 0v999h129v-999h-129z" />
<glyph unicode="j" horiz-adv-x="432" d="M-141 -403l92 12q57 8 95 21.5t59.5 37t30.5 58t9 88.5v1185h129v-1179q0 -78 -18 -134.5t-59 -97.5q-33 -31 -82 -48t-117 -17q-29 0 -69 3t-70 9v62zM137 1208v150h115q16 0 23.5 -4t7.5 -21v-125h-146z" />
<glyph unicode="k" horiz-adv-x="1085" d="M154 0v1452h129v-995l647 555l71 -78l-374 -320l428 -614h-123q-16 0 -23.5 4t-13.5 14l-358 519q-66 -53 -128.5 -101.5t-125.5 -93.5v-342h-129z" />
<glyph unicode="l" horiz-adv-x="489" d="M160 174v1278h129v-1341l184 -27v-57q-29 -12 -74 -21.5t-77 -9.5q-80 0 -123 47q-39 41 -39 131z" />
<glyph unicode="m" horiz-adv-x="1798" d="M154 0v999h90l28 -86l66 31q70 33 136.5 52.5t127.5 19.5q92 0 166 -30t121 -81l6 -8l100 45q78 35 154 54.5t137 19.5q92 0 166 -30t121 -81q43 -47 65.5 -109.5t22.5 -148.5v-647h-129v633q0 74 -13.5 119t-41.5 75q-35 37 -91.5 52.5t-117.5 15.5q-59 0 -116.5 -11.5 t-119.5 -29.5l-76 -25q-14 -6 -8 -20q29 -70 29 -162v-647h-129v633q0 74 -13.5 119t-41.5 75q-35 37 -90.5 52.5t-116.5 15.5q-109 0 -244 -47l-35 -12q-16 -6 -20 -12.5t-4 -20.5v-803h-129z" />
<glyph unicode="n" horiz-adv-x="1136" d="M154 0v999h90l28 -86l66 31q70 33 140.5 52.5t139.5 19.5q96 0 171 -30t122 -81q43 -47 65.5 -109.5t22.5 -148.5v-647h-129v633q0 74 -13 119t-42 75q-35 37 -90 52.5t-127 15.5q-61 0 -130 -12.5t-128 -34.5l-33 -12q-16 -6 -20 -12.5t-4 -20.5v-803h-129z" />
<glyph unicode="o" horiz-adv-x="1134" d="M88 500q0 111 36 205t98.5 162.5t150.5 108.5t192 40h4q104 0 192.5 -40t151 -108.5t98.5 -162.5t36 -205t-36 -205t-98.5 -163t-150.5 -108.5t-193 -39.5h-4q-104 0 -191 39.5t-150.5 108.5t-99.5 163t-36 205zM221 500q0 -195 90 -297.5t254 -102.5h4q164 0 254 102.5 t90 297.5t-90 297t-254 102h-4q-164 0 -254 -102.5t-90 -296.5z" />
<glyph unicode="p" horiz-adv-x="1163" d="M154 -469v1468h90l37 -112l75 43q70 39 138.5 62.5t140.5 23.5q94 0 175 -38t139.5 -105.5t91 -163t32.5 -209.5q0 -115 -31.5 -209t-88 -163t-137.5 -106.5t-179 -37.5q-70 0 -136.5 21.5t-144.5 62.5l-73 38v-575h-129zM283 236q0 -16 4 -22.5t14 -12.5q78 -43 157 -71 t163 -28q59 0 119.5 18.5t107.5 67.5q45 47 68.5 123t23.5 189t-23.5 188.5t-68.5 122.5q-47 49 -107.5 67.5t-119.5 18.5q-84 0 -163 -28.5t-157 -73.5q-18 -10 -18 -35v-524z" />
<glyph unicode="q" horiz-adv-x="1165" d="M90 500q0 119 37 215t99.5 162.5t143.5 102.5t169 36q78 0 145.5 -21.5t126.5 -56.5l76 -45l35 106h90v-1468h-129v575l-74 -36q-78 -41 -145.5 -63.5t-137.5 -22.5q-98 0 -178 37.5t-137 105.5t-89 163t-32 210zM223 500q0 -113 23.5 -188.5t68.5 -123.5 q47 -49 107.5 -67.5t120.5 -18.5q84 0 163.5 29t157.5 72q18 10 19 35v528q0 25 -19 35q-72 45 -151.5 71.5t-151.5 26.5q-176 0 -257 -109.5t-81 -289.5z" />
<glyph unicode="r" horiz-adv-x="724" d="M154 0v999h104l18 -153l80 47q59 35 102.5 58.5t74 36.5t55 19.5t47.5 6.5q39 0 78 -17v-82q-37 -10 -89.5 -27.5t-108.5 -38t-111.5 -43t-100.5 -40.5q-20 -8 -20 -31v-735h-129z" />
<glyph unicode="s" horiz-adv-x="933" d="M76 94l35 68l71 -21q90 -27 161 -39t136 -12q121 0 184.5 51.5t63.5 143.5q0 70 -46 105.5t-149 64.5l-167 49q-127 37 -195 97.5t-68 158.5q0 55 25 99t70 79q49 37 119.5 57.5t156.5 20.5q78 0 163 -16.5t171 -51.5l-23 -71l-71 12q-72 12 -125 17t-111 5q-49 0 -96 -7 t-82 -25.5t-56.5 -47t-21.5 -71.5q0 -59 45 -92t148 -62l159 -47q135 -41 204 -100.5t69 -169.5q0 -72 -27.5 -128.5t-77 -96t-116 -60t-144.5 -20.5q-51 0 -106.5 9t-109.5 24.5t-103 35t-86 41.5z" />
<glyph unicode="t" horiz-adv-x="800" d="M-4 901v64l197 34v289h129v-289h364v-98h-364v-608q0 -55 7 -93t29 -63q39 -45 119 -45q41 0 91 12.5t116 30.5l51 15l31 -66q-66 -43 -150 -71.5t-153 -28.5q-61 0 -110.5 17t-82.5 48q-41 41 -59 96.5t-18 143.5v612h-197z" />
<glyph unicode="u" horiz-adv-x="1132" d="M137 352v647h129v-632q0 -74 13.5 -119t42.5 -76q35 -37 90 -52.5t127 -15.5q61 0 127.5 12.5t126.5 35.5l32 12q16 6 20.5 12t4.5 21v802h129v-999h-90l-29 86l-65 -31q-70 -33 -138.5 -52t-138.5 -19q-96 0 -171 29.5t-122 80.5q-43 47 -65.5 109.5t-22.5 148.5z" />
<glyph unicode="v" horiz-adv-x="1048" d="M12 999h115q12 0 16 -3t9 -13l276 -616q35 -78 61.5 -140.5t42.5 -109.5h3q16 47 40.5 108.5t59.5 139.5l264 618q4 10 9 13t18 3h110l-436 -999h-113q-23 0 -30 18z" />
<glyph unicode="w" horiz-adv-x="1650" d="M20 999h111q10 0 15.5 -3t9.5 -13l219 -565q33 -82 60.5 -158t43.5 -125h2q12 47 36 123t52 166l189 575h114q12 0 17.5 -3t9.5 -13l209 -551q35 -92 64.5 -170t46.5 -127h2q14 49 36.5 123t51.5 158l192 567q4 10 8 13t19 3h102l-344 -999h-112q-23 0 -31 18l-207 543 q-39 100 -65.5 170t-43.5 121h-2q-12 -45 -34.5 -115.5t-57.5 -177.5l-186 -559h-109q-23 0 -30 18z" />
<glyph unicode="x" horiz-adv-x="1050" d="M27 0l405 526l-383 473h123q14 0 19.5 -2t13.5 -12l311 -381l287 381q8 10 12 12t19 2h114l-362 -475l430 -524h-125q-14 0 -19.5 2t-13.5 12l-356 432l-326 -432q-8 -10 -13 -12t-20 -2h-116z" />
<glyph unicode="y" horiz-adv-x="1050" d="M12 999h117q12 0 16.5 -3t8.5 -13l278 -616q35 -78 60.5 -137.5t42.5 -104.5h2q12 37 37.5 98.5t60.5 141.5l268 618q4 10 9.5 13t17.5 3h108l-641 -1472l-114 29l190 432z" />
<glyph unicode="z" horiz-adv-x="983" d="M104 0v51q0 12 2.5 19.5t10.5 17.5l434 584q115 154 180 229h-618v98h772v-51q0 -10 -2 -18t-11 -19l-434 -583q-43 -59 -93 -124t-83 -106h625v-98h-783z" />
<glyph unicode="{" horiz-adv-x="665" d="M119 408v77q68 8 110.5 25.5t67.5 45.5t34 64.5t9 84.5q0 47 -10.5 111.5t-23.5 132t-23.5 131t-10.5 108.5q0 82 55.5 136t166.5 54q49 0 99 -8t85 -18v-62l-189 -22q-53 -6 -73.5 -24.5t-20.5 -63.5t10.5 -109.5t22.5 -132.5t22.5 -132.5t10.5 -111.5q0 -88 -44 -150.5 t-147 -97.5q102 -37 146.5 -99t44.5 -148q0 -47 -10.5 -111.5t-22.5 -132.5t-22.5 -132.5t-10.5 -109.5t20.5 -63.5t73.5 -24.5l189 -22v-62q-35 -10 -85 -18t-99 -8q-111 0 -166.5 54t-55.5 136q0 45 10.5 108.5t23.5 131t23.5 132t10.5 111.5t-9 84t-34 65t-68 45t-110 26 z" />
<glyph unicode="|" horiz-adv-x="485" d="M184 -469v1921h117v-1921h-117z" />
<glyph unicode="}" horiz-adv-x="665" d="M-12 -397l188 22q53 6 73.5 24.5t20.5 63.5t-10 109.5t-22.5 132.5t-22.5 132.5t-10 111.5q0 86 44 148.5t146 98.5q-102 35 -146 97.5t-44 150.5q0 47 10 111.5t22.5 132.5t22.5 132.5t10 109.5t-20.5 63.5t-73.5 24.5l-188 22v62q35 10 85 18t99 8q111 0 166 -54 t55 -136q0 -45 -10 -108.5t-23.5 -131t-23.5 -132t-10 -111.5t9 -84t33.5 -65t67.5 -45t111 -26v-77q-68 -8 -111 -25.5t-67.5 -45.5t-33.5 -64.5t-9 -84.5q0 -47 10 -111.5t23.5 -132t23.5 -131t10 -108.5q0 -82 -55 -136t-166 -54q-49 0 -99 8t-85 18v62z" />
<glyph unicode="~" horiz-adv-x="1073" d="M143 594q35 84 94.5 130t131.5 46q45 0 87 -14.5t83 -30.5t79.5 -30.5t77.5 -14.5q57 0 95 22.5t73 71.5l64 -22q-35 -84 -94.5 -130.5t-131.5 -46.5q-45 0 -87 14.5t-82.5 31t-79.5 31t-78 14.5q-57 0 -95 -22.5t-73 -72.5z" />
<glyph unicode="&#xa1;" horiz-adv-x="493" d="M133 866v133h158v-160h-125q-20 0 -26.5 5t-6.5 22zM146 133q0 55 2 113.5t6 115.5l27 293h63l27 -293q4 -57 6 -115.5t2 -113.5v-492h-133v492z" />
<glyph unicode="&#xa2;" d="M166 504q0 117 38 213t105 166q53 55 126 90t159 41l12 190h86v-192q119 -16 212 -88t132 -176l-82 -43l-55 55q-55 53 -104.5 87t-102.5 48v-799q53 4 104.5 22.5t114.5 49.5l115 57l45 -61q-86 -74 -181 -121t-198 -57l-12 -199h-86v201q-98 8 -177 50t-135.5 110.5 t-86 159.5t-29.5 196zM299 508q0 -180 80 -283.5t215 -124.5v803q-141 -10 -218 -117.5t-77 -277.5z" />
<glyph unicode="&#xa3;" d="M123 623v71l166 21q-23 72 -39.5 144.5t-16.5 144.5q0 84 32 152.5t87.5 117.5t129 76.5t159.5 27.5q141 0 258 -61.5t199 -142.5l-58 -66l-112 66q-72 41 -137.5 63.5t-147.5 22.5q-141 0 -214 -67t-73 -196q0 -59 17.5 -131.5t42.5 -148.5h448v-94h-418 q23 -66 34.5 -120t11.5 -91q0 -72 -29 -127.5t-74 -108.5l-59 -70h782v-106h-917v70q0 14 3 21t15 24l61 80q53 72 74 117.5t21 93.5q0 41 -12.5 96t-34.5 121h-199z" />
<glyph unicode="&#xa4;" horiz-adv-x="1241" d="M131 295l152 147q-63 104 -64 236q0 131 64 233l-152 150l80 80l143 -144q53 47 121 75t146 28t144 -28t120 -75l145 144l80 -80l-154 -150q31 -49 48.5 -108t17.5 -125t-17.5 -125t-48.5 -111l154 -147l-80 -80l-145 141q-53 -47 -120 -73.5t-144 -26.5 q-78 0 -145.5 26.5t-121.5 73.5l-143 -141zM340 678q0 -141 77 -227t204 -86t203.5 86t76.5 227t-76.5 227t-203.5 86t-204 -86t-77 -227z" />
<glyph unicode="&#xa5;" d="M33 1358h119q14 0 20 -3t14 -16l254 -446q27 -47 54.5 -95t51 -93.5t43 -83l32.5 -62.5h2q25 53 70.5 140t105.5 190l256 450q8 12 14 15.5t21 3.5h114l-483 -836h258v-94h-295v-96h295v-94h-295v-238h-131v238h-295v94h295v96h-295v94h258z" />
<glyph unicode="&#xa6;" horiz-adv-x="485" d="M184 387h117v-856h-117v856zM184 596v856h117v-856h-117z" />
<glyph unicode="&#xa7;" horiz-adv-x="1159" d="M123 492q0 80 42 163.5t97 147.5q-55 49 -82.5 107.5t-27.5 133.5q0 78 32.5 139.5t89 104.5t132 65.5t163.5 22.5q117 0 217.5 -33.5t188.5 -80.5l-31 -78l-98 28q-59 18 -132 33t-141 15q-61 0 -113 -11.5t-91 -37t-61.5 -65.5t-22.5 -97q0 -55 20.5 -94.5t56 -69 t81.5 -51t100 -41.5l139 -54q92 -35 158.5 -70.5t109.5 -77.5t64.5 -90.5t21.5 -107.5q0 -82 -42 -165t-99 -148q55 -47 84 -105.5t29 -134.5q0 -78 -33 -139t-89.5 -104t-132 -66t-163.5 -23q-117 0 -217.5 34t-188.5 81l31 78l98 -29q59 -18 132 -32.5t141 -14.5 q61 0 113.5 11.5t91 37t61 65.5t22.5 97q0 55 -20 94t-56 69t-83 51.5t-99 41.5l-139 53q-92 35 -158.5 71t-109.5 78t-64.5 90t-21.5 108zM244 524q0 -43 13 -76.5t46 -64.5t88 -60.5t139 -62.5l140 -53q45 -16 84 -34.5t71 -41.5q35 53 62.5 112.5t27.5 116.5q0 43 -13 77 t-46 64.5t-88 60.5t-139 63l-140 53q-47 16 -84.5 34.5t-72.5 39.5q-35 -53 -61.5 -111.5t-26.5 -116.5z" />
<glyph unicode="&#xa8;" horiz-adv-x="798" d="M141 1167v168h129q20 0 26.5 -5t6.5 -21v-142h-162zM496 1167v168h129q20 0 26 -5t6 -21v-142h-161z" />
<glyph unicode="&#xa9;" horiz-adv-x="1523" d="M72 680q0 145 54 273t147.5 222.5t220.5 148.5t272 54t272 -54t220.5 -148.5t147.5 -222.5t54 -273t-54 -273t-147.5 -223.5t-220.5 -149.5t-272 -54t-272 54t-220.5 149.5t-147.5 223.5t-54 273zM182 680q0 -131 44 -240.5t122 -188.5t184.5 -123t233.5 -44t233.5 44 t184.5 123t122 188.5t44 240.5t-44 239.5t-122 187.5t-184.5 123t-233.5 44t-233.5 -44t-184.5 -123t-122 -187.5t-44 -239.5zM479 684q0 72 23.5 128t63.5 96t93.5 60.5t112.5 20.5q86 0 151.5 -46t94.5 -112l-60 -38l-47 43q-41 35 -71.5 51t-75.5 16q-80 0 -133 -59.5 t-53 -159.5q0 -92 52 -153.5t150 -61.5q37 0 81 13.5t85 35.5l51 27l39 -51q-51 -47 -120.5 -81t-141.5 -34q-63 0 -116.5 22.5t-93.5 62.5t-62.5 96t-22.5 124z" />
<glyph unicode="&#xaa;" horiz-adv-x="960" d="M92 797q0 113 75 162t185 49h8q31 0 64 -1t82 -3l168 -11v88q0 190 -215 191q-47 0 -94.5 -9.5t-102.5 -27.5l-92 -33l-33 70q86 53 170 79.5t160 26.5q68 0 127 -18.5t103 -55t70 -92t26 -127.5v-440l118 -24v-60q-23 -8 -51 -15t-57 -7q-43 0 -77 20.5t-44 58.5 l-47 -24q-131 -66 -242 -66q-59 0 -113.5 19.5t-96.5 54.5t-66.5 85t-24.5 110zM211 803q0 -84 56.5 -128t152.5 -44q59 0 120.5 18.5t116.5 44.5q16 10 17 29v174q0 16 -19 16h-340q-51 0 -77.5 -23.5t-26.5 -86.5z" />
<glyph unicode="&#xab;" horiz-adv-x="1191" d="M123 477v76l416 340l57 -53l-342 -336l342 -336l-57 -53l-396 323q-12 10 -16 16.5t-4 22.5zM600 477v76l416 340l57 -53l-342 -336l342 -336l-57 -53l-395 323q-12 10 -16.5 16.5t-4.5 22.5z" />
<glyph unicode="&#xac;" horiz-adv-x="1073" d="M164 637v102h745v-471h-102v369h-643z" />
<glyph unicode="&#xad;" horiz-adv-x="864" d="M137 451v102h590v-102h-590z" />
<glyph unicode="&#xae;" horiz-adv-x="1523" d="M68 680q0 145 54 273t147 222.5t220 148.5t273 54q145 0 272 -54t220.5 -148.5t147.5 -222.5t54 -273t-54 -273t-147.5 -223.5t-220.5 -149.5t-272 -54t-272.5 54t-220.5 149.5t-147 223.5t-54 273zM178 680q0 -131 44 -240.5t122 -188.5t184.5 -123t233.5 -44t233.5 44 t184 123t122 188.5t44.5 240.5t-44.5 239.5t-122 187.5t-184 123t-233.5 44t-233.5 -44t-184.5 -123t-122 -187.5t-44 -239.5zM539 387v594h237q121 0 170 -51q43 -47 43 -129q0 -63 -28.5 -110.5t-86.5 -67.5l138 -236h-86q-10 0 -17 8l-121 209q-8 12 -20 12h-139v-229 h-90zM629 694h188q27 0 38 4t22 17q20 29 20 84q0 51 -23 78q-16 16 -41.5 20t-66.5 4h-137v-207z" />
<glyph unicode="&#xaf;" horiz-adv-x="798" d="M102 1186v102h594v-102h-594z" />
<glyph unicode="&#xb0;" horiz-adv-x="872" d="M104 1044q0 74 27 135.5t72 105.5t105.5 68.5t127.5 24.5q68 0 128.5 -24.5t105.5 -68.5t71.5 -105.5t26.5 -135.5t-26.5 -135t-71.5 -105t-105.5 -68.5t-128.5 -24.5t-128 24.5t-105 68.5t-72 105t-27 135zM219 1044q0 -117 61.5 -173t155.5 -56t155.5 56t61.5 173 t-62.5 173.5t-154.5 56.5t-154.5 -56.5t-62.5 -173.5z" />
<glyph unicode="&#xb1;" horiz-adv-x="1073" d="M164 0v102h745v-102h-745zM164 596v102h321v301h103v-301h321v-102h-321v-301h-103v301h-321z" />
<glyph unicode="&#xb2;" horiz-adv-x="827" d="M141 1296q53 35 117 58.5t129 23.5q104 0 166.5 -58t62.5 -146q0 -66 -40.5 -128.5t-126.5 -138.5l-144 -131h336v-88h-465v78l178 176q86 84 122 134t36 100q0 51 -36 81.5t-97 30.5q-37 0 -76 -9t-90 -30l-37 -14z" />
<glyph unicode="&#xb3;" horiz-adv-x="823" d="M141 778l39 64l84 -37q37 -16 73 -25.5t75 -9.5q66 0 104.5 30.5t38.5 82.5q0 57 -31.5 77.5t-97.5 20.5h-64q-18 0 -18 14v64h129q16 0 22.5 4t12.5 14q29 45 29 92q0 51 -32 83t-97 32q-37 0 -71 -8t-69 -23l-59 -24l-39 61q55 41 117.5 64.5t128.5 23.5q39 0 77.5 -11 t71.5 -34.5t53.5 -58.5t20.5 -84q0 -41 -17.5 -83t-54.5 -79q49 -23 73 -61.5t24 -83.5q0 -98 -73 -151.5t-183 -53.5q-72 0 -142.5 29.5t-124.5 70.5z" />
<glyph unicode="&#xb4;" horiz-adv-x="798" d="M162 1159l385 285q14 10 24 -4l66 -99l-434 -239z" />
<glyph unicode="&#xb5;" horiz-adv-x="1148" d="M154 -469v1468h129v-632q0 -74 13 -119t42 -76q35 -37 90 -52.5t127 -15.5q61 0 128 12.5t126 35.5l33 12q16 6 20 12t4 21v802h129v-999h-90l-28 86l-66 -31q-70 -33 -138.5 -52t-133.5 -19q-84 0 -149.5 25.5t-106.5 70.5v-549h-129z" />
<glyph unicode="&#xb6;" horiz-adv-x="1054" d="M100 911v447h920v-107h-184v-1720h-115v1720h-135v-1720h-115v1352h-338q-33 0 -33 28z" />
<glyph unicode="&#xb7;" horiz-adv-x="436" d="M137 489v168h129q20 0 26.5 -5t6.5 -21v-142h-162z" />
<glyph unicode="&#xb8;" horiz-adv-x="798" d="M223 -365l133 29q43 10 70 23.5t27 36.5t-35 37t-77 30t-77 39t-35 64q0 39 29 78.5t70 78.5l57 -18q-20 -29 -32.5 -54.5t-12.5 -41.5q0 -25 37 -38.5t81 -31t80.5 -46t36.5 -83.5q0 -74 -82.5 -123t-252.5 -55z" />
<glyph unicode="&#xb9;" horiz-adv-x="833" d="M176 1257l227 103q23 10 46 10h43v-594h149v-88h-430v88h172v477q-14 -8 -41 -19t-45 -20l-86 -32z" />
<glyph unicode="&#xba;" horiz-adv-x="958" d="M76 954q0 92 31.5 170t86 134.5t128 88t157.5 31.5t158 -31.5t128 -88t86 -134.5t32 -170t-32 -169.5t-86 -134t-128 -88.5t-158 -32t-157.5 32t-128 88.5t-86 134t-31.5 169.5zM199 954q0 -139 72.5 -226t207.5 -87t208 87t73 226t-73 226.5t-208 87.5t-207.5 -87 t-72.5 -227z" />
<glyph unicode="&#xbb;" horiz-adv-x="1191" d="M119 168l342 336l-342 336l57 53l395 -324q12 -10 16.5 -16t4.5 -23v-75l-416 -340zM596 168l342 336l-342 336l57 53l396 -324q12 -10 16 -16t4 -23v-75l-416 -340z" />
<glyph unicode="&#xbc;" horiz-adv-x="1755" d="M156 1255l227 103q23 10 45 10h43v-594h150v-88h-431v88h172v477q-14 -8 -40.5 -19t-45.5 -20l-86 -32zM498 0l673 1358h123l-673 -1358h-123zM1010 172v41q0 12 3 18.5t13 22.5l320 405q10 14 16 18.5t20 4.5h95v-430h110v-80h-110v-172h-101v172h-366zM1126 252h250 v328q-12 -20 -32.5 -50t-38.5 -55l-101 -127q-23 -29 -44 -56.5t-34 -39.5z" />
<glyph unicode="&#xbd;" horiz-adv-x="1755" d="M192 1257l227 103q23 10 46 10h43v-594h149v-88h-430v88h172v477q-14 -8 -41 -19t-45 -20l-86 -32zM535 0l674 1358h122l-673 -1358h-123zM1136 610q53 35 117 58.5t129 23.5q104 0 166.5 -58t62.5 -146q0 -66 -40.5 -128.5t-126.5 -138.5l-144 -131h336v-88h-465v78 l178 176q86 84 122 134t36 100q0 51 -36 81.5t-97 30.5q-37 0 -76 -9t-90 -30l-37 -14z" />
<glyph unicode="&#xbe;" horiz-adv-x="1755" d="M152 778l38 64l84 -37q37 -16 73 -25.5t75 -9.5q66 0 104.5 30.5t38.5 82.5q0 57 -31.5 77.5t-97.5 20.5h-63q-18 0 -19 14v64h129q16 0 22.5 4t12.5 14q29 45 29 92q0 51 -32 83t-97 32q-37 0 -71 -8t-68 -23l-60 -24l-39 61q55 41 117.5 64.5t128.5 23.5q39 0 78 -11 t71.5 -34.5t53 -58.5t20.5 -84q0 -41 -17.5 -83t-53.5 -79q49 -23 72.5 -61.5t23.5 -83.5q0 -98 -73 -151.5t-183 -53.5q-72 0 -142.5 29.5t-123.5 70.5zM518 0l674 1358h123l-674 -1358h-123zM1024 172v41q0 12 3 18.5t13 22.5l320 405q10 14 16 18.5t21 4.5h94v-430h111 v-80h-111v-172h-100v172h-367zM1141 252h250v328q-12 -20 -33 -50t-39 -55l-100 -127q-23 -29 -44.5 -56.5t-33.5 -39.5z" />
<glyph unicode="&#xbf;" horiz-adv-x="978" d="M72 -13q0 121 73.5 216.5t237.5 174.5l121 60l26 217h70l17 -125q4 -25 6 -51.5t2 -36.5q0 -33 -13.5 -49.5t-44.5 -32.5l-65 -37q-70 -39 -126 -73.5t-95 -71.5t-59.5 -81t-20.5 -102q0 -129 82 -192.5t217 -63.5q61 0 127.5 13.5t152.5 46.5l119 45l41 -66 q-43 -33 -96 -62.5t-111.5 -50t-119 -32.5t-115.5 -12q-88 0 -166 25.5t-135.5 72.5t-91 114.5t-33.5 153.5zM485 866v133h158v-160h-125q-20 0 -26.5 5t-6.5 22z" />
<glyph unicode="&#xc0;" horiz-adv-x="1382" d="M51 0l563 1358h111q16 0 21.5 -4t9.5 -15l573 -1339h-119q-14 0 -19 4t-9 14l-140 330h-710l-133 -330q-4 -10 -8.5 -14t-20.5 -4h-119zM377 457h618l-147 350q-51 121 -93 222t-75 190h-2q-14 -39 -33.5 -90.5t-41 -107.5t-44 -112.5t-41.5 -103.5zM432 1722l65 99 q10 14 25 4l385 -285l-41 -57z" />
<glyph unicode="&#xc1;" horiz-adv-x="1382" d="M51 0l563 1358h111q16 0 21.5 -4t9.5 -15l573 -1339h-119q-14 0 -19 4t-9 14l-140 330h-710l-133 -330q-4 -10 -8.5 -14t-20.5 -4h-119zM377 457h618l-147 350q-51 121 -93 222t-75 190h-2q-14 -39 -33.5 -90.5t-41 -107.5t-44 -112.5t-41.5 -103.5zM473 1540l385 285 q14 10 24 -4l66 -99l-434 -239z" />
<glyph unicode="&#xc2;" horiz-adv-x="1382" d="M51 0l563 1358h111q16 0 21.5 -4t9.5 -15l573 -1339h-119q-14 0 -19 4t-9 14l-140 330h-710l-133 -330q-4 -10 -8.5 -14t-20.5 -4h-119zM365 1489l254 265q12 12 19 15t26 3h33q18 0 25 -3t20 -15l256 -265l-51 -47l-263 217h-6l-262 -217zM377 457h618l-147 350 q-51 121 -93 222t-75 190h-2q-14 -39 -33.5 -90.5t-41 -107.5t-44 -112.5t-41.5 -103.5z" />
<glyph unicode="&#xc3;" horiz-adv-x="1382" d="M51 0l563 1358h111q16 0 21.5 -4t9.5 -15l573 -1339h-119q-14 0 -19 4t-9 14l-140 330h-710l-133 -330q-4 -10 -8.5 -14t-20.5 -4h-119zM355 1536q25 84 74 131t116 47q35 0 71 -14t70.5 -30.5t69.5 -31t66 -14.5t60.5 20.5t55.5 69.5l68 -20q-25 -84 -73.5 -131 t-116.5 -47q-35 0 -71 13t-71 30.5t-69.5 31t-65.5 13.5t-60.5 -19.5t-56.5 -68.5zM377 457h618l-147 350q-51 121 -93 222t-75 190h-2q-14 -39 -33.5 -90.5t-41 -107.5t-44 -112.5t-41.5 -103.5z" />
<glyph unicode="&#xc4;" horiz-adv-x="1382" d="M51 0l563 1358h111q16 0 21.5 -4t9.5 -15l573 -1339h-119q-14 0 -19 4t-9 14l-140 330h-710l-133 -330q-4 -10 -8.5 -14t-20.5 -4h-119zM377 457h618l-147 350q-51 121 -93 222t-75 190h-2q-14 -39 -33.5 -90.5t-41 -107.5t-44 -112.5t-41.5 -103.5zM422 1536v168h129 q20 0 26.5 -5t6.5 -22v-141h-162zM777 1536v168h129q20 0 26 -5t6 -22v-141h-161z" />
<glyph unicode="&#xc5;" horiz-adv-x="1382" d="M51 0l543 1311q-49 23 -86 74t-37 120q0 49 17.5 88t47 64.5t68.5 40t80 14.5t80 -14.5t68.5 -40t47 -64.5t17.5 -88q0 -72 -39 -122t-90 -72l561 -1311h-119q-14 0 -19 4t-9 14l-140 330h-710l-133 -330q-4 -10 -8.5 -14t-20.5 -4h-119zM377 457h618l-147 350 q-51 121 -93 222t-75 190h-2q-14 -39 -33.5 -90.5t-41 -107.5t-44 -112.5t-41.5 -103.5zM565 1505q0 -53 30 -84.5t89 -31.5t89 31.5t30 84.5t-30 85t-89 32t-89 -31.5t-30 -85.5z" />
<glyph unicode="&#xc6;" horiz-adv-x="1898" d="M23 0l864 1358h891v-111h-703v-483h641v-111h-641v-542h727v-111h-862v348h-547l-203 -321q-10 -16 -17 -21.5t-23 -5.5h-127zM461 457h479v776q-25 -41 -63.5 -106.5t-83.5 -138.5t-90.5 -145.5t-79.5 -129.5z" />
<glyph unicode="&#xc7;" horiz-adv-x="1370" d="M88 680q0 145 49 273t137 222.5t206 148.5t257 54q90 0 171 -26.5t147.5 -74.5t120 -112.5t88.5 -140.5l-80 -47l-113 113q-80 80 -157.5 120.5t-182.5 40.5q-113 0 -206 -41t-158.5 -115.5t-102.5 -180t-37 -234.5t35 -234.5t101.5 -181.5t164 -118t220.5 -42 q86 0 175 28t175 75l141 78l53 -66q-113 -104 -254 -167.5t-284 -69.5q-12 -29 -13 -45q0 -25 37 -38.5t81 -31t81 -46t37 -83.5q0 -74 -83 -123t-253 -55l-16 75l133 29q43 10 69.5 23.5t26.5 36.5t-35 37t-77 30t-76.5 39t-34.5 64q0 43 35 88q-127 10 -233.5 66 t-183.5 147.5t-119 215.5t-42 269z" />
<glyph unicode="&#xc8;" horiz-adv-x="1126" d="M168 0v1358h838v-111h-703v-483h629v-111h-629v-542h727v-111h-862zM355 1722l65 99q10 14 25 4l385 -285l-41 -57z" />
<glyph unicode="&#xc9;" horiz-adv-x="1126" d="M168 0v1358h838v-111h-703v-483h629v-111h-629v-542h727v-111h-862zM379 1540l385 285q14 10 24 -4l66 -99l-434 -239z" />
<glyph unicode="&#xca;" horiz-adv-x="1126" d="M168 0v1358h838v-111h-703v-483h629v-111h-629v-542h727v-111h-862zM285 1507l254 265q12 12 19 15t26 3h33q18 0 25 -3t20 -15l256 -265l-51 -47l-263 217h-6l-262 -217z" />
<glyph unicode="&#xcb;" horiz-adv-x="1126" d="M168 0v1358h838v-111h-703v-483h629v-111h-629v-542h727v-111h-862zM340 1536v168h129q20 0 26.5 -5t6.5 -22v-141h-162zM695 1536v168h129q20 0 26 -5t6 -22v-141h-161z" />
<glyph unicode="&#xcc;" horiz-adv-x="495" d="M12 1722l65 99q10 14 25 4l385 -285l-41 -57zM180 0v1358h135v-1358h-135z" />
<glyph unicode="&#xcd;" horiz-adv-x="495" d="M37 1540l385 285q14 10 24 -4l66 -99l-434 -239zM180 0v1358h135v-1358h-135z" />
<glyph unicode="&#xce;" horiz-adv-x="495" d="M-59 1507l254 265q12 12 19 15t26 3h33q18 0 25 -3t20 -15l256 -265l-51 -47l-263 217h-6l-262 -217zM180 0v1358h135v-1358h-135z" />
<glyph unicode="&#xcf;" horiz-adv-x="495" d="M-4 1536v168h129q20 0 26.5 -5t6.5 -22v-141h-162zM180 0v1358h135v-1358h-135zM351 1536v168h129q20 0 26 -5t6 -22v-141h-161z" />
<glyph unicode="&#xd0;" horiz-adv-x="1460" d="M8 645v105h193v608h395q190 0 325.5 -37t231.5 -115q104 -86 160.5 -216t56.5 -310t-56.5 -311t-160.5 -217q-96 -78 -231.5 -115t-325.5 -37h-395v645h-193zM336 113h233q174 0 292 27.5t198 92.5q174 139 174 447q0 305 -174 444q-80 66 -198 93.5t-292 27.5h-233v-495 h334v-105h-334v-532z" />
<glyph unicode="&#xd1;" horiz-adv-x="1492" d="M168 0v1358h80q14 0 21 -3t18 -16l655 -807q74 -92 140.5 -176t113.5 -145v1147h129v-1358h-80q-14 0 -20 3t-17 15l-657 811q-78 98 -143.5 176t-110.5 136v-1141h-129zM428 1536q25 84 74 131t116 47q35 0 71 -14t70.5 -30.5t69.5 -31t66 -14.5t60.5 20.5t55.5 69.5 l68 -20q-25 -84 -73.5 -131t-116.5 -47q-35 0 -71 13t-71 30.5t-69.5 31t-65.5 13.5t-60.5 -19.5t-56.5 -68.5z" />
<glyph unicode="&#xd2;" horiz-adv-x="1490" d="M88 678q0 150 50 277.5t138.5 222t208 147.5t260.5 53t261 -53t208.5 -147.5t138.5 -222t50 -277.5t-50 -278t-138.5 -221t-208 -146t-261.5 -53q-141 0 -260.5 53t-208 146t-138.5 221t-50 278zM227 678q0 -129 38 -234.5t106.5 -179.5t164 -114.5t209.5 -40.5 q115 0 210.5 40.5t164 114.5t106.5 179.5t38 234.5t-38 234.5t-106.5 180t-164 115.5t-210.5 41t-210 -41t-163.5 -115.5t-106.5 -180t-38 -234.5zM488 1722l65 99q10 14 25 4l385 -285l-41 -57z" />
<glyph unicode="&#xd3;" horiz-adv-x="1490" d="M88 678q0 150 50 277.5t138.5 222t208 147.5t260.5 53t261 -53t208.5 -147.5t138.5 -222t50 -277.5t-50 -278t-138.5 -221t-208 -146t-261.5 -53q-141 0 -260.5 53t-208 146t-138.5 221t-50 278zM227 678q0 -129 38 -234.5t106.5 -179.5t164 -114.5t209.5 -40.5 q115 0 210.5 40.5t164 114.5t106.5 179.5t38 234.5t-38 234.5t-106.5 180t-164 115.5t-210.5 41t-210 -41t-163.5 -115.5t-106.5 -180t-38 -234.5zM529 1540l385 285q14 10 24 -4l66 -99l-434 -239z" />
<glyph unicode="&#xd4;" horiz-adv-x="1490" d="M88 678q0 150 50 277.5t138.5 222t208 147.5t260.5 53t261 -53t208.5 -147.5t138.5 -222t50 -277.5t-50 -278t-138.5 -221t-208 -146t-261.5 -53q-141 0 -260.5 53t-208 146t-138.5 221t-50 278zM227 678q0 -129 38 -234.5t106.5 -179.5t164 -114.5t209.5 -40.5 q115 0 210.5 40.5t164 114.5t106.5 179.5t38 234.5t-38 234.5t-106.5 180t-164 115.5t-210.5 41t-210 -41t-163.5 -115.5t-106.5 -180t-38 -234.5zM430 1507l254 265q12 12 19 15t26 3h33q18 0 25 -3t20 -15l256 -265l-51 -47l-263 217h-6l-262 -217z" />
<glyph unicode="&#xd5;" horiz-adv-x="1490" d="M88 678q0 150 50 277.5t138.5 222t208 147.5t260.5 53t261 -53t208.5 -147.5t138.5 -222t50 -277.5t-50 -278t-138.5 -221t-208 -146t-261.5 -53q-141 0 -260.5 53t-208 146t-138.5 221t-50 278zM227 678q0 -129 38 -234.5t106.5 -179.5t164 -114.5t209.5 -40.5 q115 0 210.5 40.5t164 114.5t106.5 179.5t38 234.5t-38 234.5t-106.5 180t-164 115.5t-210.5 41t-210 -41t-163.5 -115.5t-106.5 -180t-38 -234.5zM420 1536q25 84 74 131t116 47q35 0 71 -14t70.5 -30.5t69.5 -31t66 -14.5t60.5 20.5t55.5 69.5l68 -20q-25 -84 -73.5 -131 t-116.5 -47q-35 0 -71 13t-71 30.5t-69.5 31t-65.5 13.5t-60.5 -19.5t-56.5 -68.5z" />
<glyph unicode="&#xd6;" horiz-adv-x="1490" d="M88 678q0 150 50 277.5t138.5 222t208 147.5t260.5 53t261 -53t208.5 -147.5t138.5 -222t50 -277.5t-50 -278t-138.5 -221t-208 -146t-261.5 -53q-141 0 -260.5 53t-208 146t-138.5 221t-50 278zM227 678q0 -129 38 -234.5t106.5 -179.5t164 -114.5t209.5 -40.5 q115 0 210.5 40.5t164 114.5t106.5 179.5t38 234.5t-38 234.5t-106.5 180t-164 115.5t-210.5 41t-210 -41t-163.5 -115.5t-106.5 -180t-38 -234.5zM487 1536v168h129q20 0 26.5 -5t6.5 -22v-141h-162zM842 1536v168h129q20 0 26 -5t6 -22v-141h-161z" />
<glyph unicode="&#xd7;" horiz-adv-x="1081" d="M242 276l227 228l-227 227l71 72l228 -228l227 228l72 -72l-228 -227l228 -228l-72 -71l-227 227l-228 -227z" />
<glyph unicode="&#xd8;" horiz-adv-x="1490" d="M88 678q0 150 50 277.5t138.5 222t208 147.5t260.5 53q104 0 196.5 -29.5t170.5 -82.5l133 180l92 -64l-139 -188q96 -94 150.5 -227t54.5 -289q0 -150 -50 -278t-138.5 -221t-208 -146t-261.5 -53q-104 0 -196 28.5t-170 81.5l-135 -182l-92 63l141 191 q-98 96 -151.5 227t-53.5 289zM227 678q0 -129 39 -232.5t105 -177.5l663 895q-59 41 -132 63.5t-157 22.5q-115 0 -210 -41t-163.5 -115.5t-106.5 -180t-38 -234.5zM457 195q59 -41 130.5 -63.5t157.5 -22.5q115 0 210.5 40.5t164 114.5t106.5 179.5t38 234.5t-40 232.5 t-106 176.5z" />
<glyph unicode="&#xd9;" horiz-adv-x="1404" d="M160 496v862h135v-844q0 -115 25.5 -190.5t80.5 -124.5q51 -45 130 -70t171 -25t171 25t131 70q55 49 81.5 124.5t26.5 190.5v844h133v-862q0 -135 -40 -228.5t-115 -158.5q-72 -61 -168.5 -95t-219.5 -34t-219 33.5t-168 95.5q-76 66 -115.5 158.5t-39.5 228.5z M432 1722l65 99q10 14 25 4l385 -285l-41 -57z" />
<glyph unicode="&#xda;" horiz-adv-x="1404" d="M160 496v862h135v-844q0 -115 25.5 -190.5t80.5 -124.5q51 -45 130 -70t171 -25t171 25t131 70q55 49 81.5 124.5t26.5 190.5v844h133v-862q0 -135 -40 -228.5t-115 -158.5q-72 -61 -168.5 -95t-219.5 -34t-219 33.5t-168 95.5q-76 66 -115.5 158.5t-39.5 228.5z M514 1540l385 285q14 10 24 -4l66 -99l-434 -239z" />
<glyph unicode="&#xdb;" horiz-adv-x="1404" d="M160 496v862h135v-844q0 -115 25.5 -190.5t80.5 -124.5q51 -45 130 -70t171 -25t171 25t131 70q55 49 81.5 124.5t26.5 190.5v844h133v-862q0 -135 -40 -228.5t-115 -158.5q-72 -61 -168.5 -95t-219.5 -34t-219 33.5t-168 95.5q-76 66 -115.5 158.5t-39.5 228.5z M389 1507l254 265q12 12 19 15t26 3h33q18 0 25 -3t20 -15l256 -265l-51 -47l-263 217h-6l-262 -217z" />
<glyph unicode="&#xdc;" horiz-adv-x="1404" d="M160 496v862h135v-844q0 -115 25.5 -190.5t80.5 -124.5q51 -45 130 -70t171 -25t171 25t131 70q55 49 81.5 124.5t26.5 190.5v844h133v-862q0 -135 -40 -228.5t-115 -158.5q-72 -61 -168.5 -95t-219.5 -34t-219 33.5t-168 95.5q-76 66 -115.5 158.5t-39.5 228.5z M444 1536v168h129q20 0 26.5 -5t6.5 -22v-141h-162zM799 1536v168h129q20 0 26 -5t6 -22v-141h-161z" />
<glyph unicode="&#xdd;" horiz-adv-x="1218" d="M16 1358h119q14 0 20.5 -3t14.5 -16l258 -442q53 -96 105.5 -187.5t78.5 -142.5h2q27 51 78 141.5t105 184.5l258 446q8 12 14 15.5t21 3.5h114l-526 -903v-455h-135v457zM428 1540l385 285q14 10 24 -4l66 -99l-434 -239z" />
<glyph unicode="&#xde;" horiz-adv-x="1245" d="M168 0v1358h135v-234h352q125 0 217.5 -28.5t157.5 -94.5q51 -51 79 -125.5t28 -166.5q0 -111 -34 -203t-99 -158q-45 -47 -100.5 -69.5t-137.5 -22.5h-463v-256h-135zM303 367h483q41 0 69 10t56 39q88 98 88 291q0 72 -18 127t-53 92q-43 47 -113 66.5t-166 19.5h-346 v-645z" />
<glyph unicode="&#xdf;" horiz-adv-x="1298" d="M4 901v64l197 32q0 117 34.5 199t98.5 141q66 61 159 96t207 35q68 0 133.5 -18t116.5 -55t82 -90.5t31 -122.5q0 -86 -50 -144.5t-136 -105.5l-134 -74q-63 -35 -88.5 -59.5t-25.5 -59.5q0 -23 10 -40t32.5 -33.5t61.5 -33t96 -36.5l113 -39q66 -23 119 -47.5t88 -56.5 q35 -31 54.5 -72t19.5 -96q0 -72 -29 -127.5t-79 -94t-117.5 -59t-143.5 -20.5q-92 0 -189.5 29.5t-179.5 80.5l33 68l64 -21q74 -23 140 -36t126 -13q117 0 182.5 51.5t65.5 128.5q0 74 -52.5 109t-152.5 70l-152 53q-119 41 -176 89t-57 126q0 70 46 118t146 109l101 62 q80 51 108.5 86.5t28.5 89.5q0 82 -69.5 127t-172.5 45q-184 0 -278 -105q-41 -47 -63.5 -112.5t-22.5 -167.5v-971h-129v901h-197z" />
<glyph unicode="&#xe0;" horiz-adv-x="1093" d="M92 309q0 59 18.5 105.5t53.5 77.5q80 70 239 69h5q37 0 76.5 -1t99.5 -5l204 -12v116q0 61 -15 104.5t-44 72.5q-66 66 -201 65q-106 0 -239 -45l-113 -39l-35 68q104 63 200.5 97t195.5 34q86 0 164.5 -29t129.5 -82q41 -45 64 -104.5t23 -141.5v-548l159 -31v-55 q-29 -10 -62.5 -19.5t-68.5 -9.5q-53 0 -93 24.5t-54 71.5l-58 -29q-84 -41 -153.5 -60t-138.5 -19q-70 0 -134.5 24.5t-113.5 67.5t-79 102.5t-30 130.5zM223 313q0 -94 64.5 -156.5t187.5 -62.5q72 0 149.5 21.5t143.5 54.5q14 8 17 15.5t3 19.5v231q0 20 -22 21h-408 q-72 0 -102 -35q-16 -18 -24.5 -46t-8.5 -63zM293 1341l65 99q10 14 25 4l385 -285l-41 -57z" />
<glyph unicode="&#xe1;" horiz-adv-x="1093" d="M92 309q0 59 18.5 105.5t53.5 77.5q80 70 239 69h5q37 0 76.5 -1t99.5 -5l204 -12v116q0 61 -15 104.5t-44 72.5q-66 66 -201 65q-106 0 -239 -45l-113 -39l-35 68q104 63 200.5 97t195.5 34q86 0 164.5 -29t129.5 -82q41 -45 64 -104.5t23 -141.5v-548l159 -31v-55 q-29 -10 -62.5 -19.5t-68.5 -9.5q-53 0 -93 24.5t-54 71.5l-58 -29q-84 -41 -153.5 -60t-138.5 -19q-70 0 -134.5 24.5t-113.5 67.5t-79 102.5t-30 130.5zM223 313q0 -94 64.5 -156.5t187.5 -62.5q72 0 149.5 21.5t143.5 54.5q14 8 17 15.5t3 19.5v231q0 20 -22 21h-408 q-72 0 -102 -35q-16 -18 -24.5 -46t-8.5 -63zM318 1159l385 285q14 10 24 -4l66 -99l-434 -239z" />
<glyph unicode="&#xe2;" horiz-adv-x="1093" d="M92 309q0 59 18.5 105.5t53.5 77.5q80 70 239 69h5q37 0 76.5 -1t99.5 -5l204 -12v116q0 61 -15 104.5t-44 72.5q-66 66 -201 65q-106 0 -239 -45l-113 -39l-35 68q104 63 200.5 97t195.5 34q86 0 164.5 -29t129.5 -82q41 -45 64 -104.5t23 -141.5v-548l159 -31v-55 q-29 -10 -62.5 -19.5t-68.5 -9.5q-53 0 -93 24.5t-54 71.5l-58 -29q-84 -41 -153.5 -60t-138.5 -19q-70 0 -134.5 24.5t-113.5 67.5t-79 102.5t-30 130.5zM219 1159l254 264q12 12 19 15.5t26 3.5h33q18 0 25 -3t20 -16l256 -264l-51 -47l-263 217h-6l-262 -217zM223 313 q0 -94 64.5 -156.5t187.5 -62.5q72 0 149.5 21.5t143.5 54.5q14 8 17 15.5t3 19.5v231q0 20 -22 21h-408q-72 0 -102 -35q-16 -18 -24.5 -46t-8.5 -63z" />
<glyph unicode="&#xe3;" horiz-adv-x="1093" d="M92 309q0 59 18.5 105.5t53.5 77.5q80 70 239 69h5q37 0 76.5 -1t99.5 -5l204 -12v116q0 61 -15 104.5t-44 72.5q-66 66 -201 65q-106 0 -239 -45l-113 -39l-35 68q104 63 200.5 97t195.5 34q86 0 164.5 -29t129.5 -82q41 -45 64 -104.5t23 -141.5v-548l159 -31v-55 q-29 -10 -62.5 -19.5t-68.5 -9.5q-53 0 -93 24.5t-54 71.5l-58 -29q-84 -41 -153.5 -60t-138.5 -19q-70 0 -134.5 24.5t-113.5 67.5t-79 102.5t-30 130.5zM207 1188q25 84 74 131t116 47q35 0 71 -14.5t70.5 -30.5t69.5 -30.5t66 -14.5t60.5 20.5t55.5 69.5l68 -20 q-25 -84 -73.5 -131.5t-116.5 -47.5q-35 0 -71 13.5t-71 31t-69.5 30.5t-65.5 13t-60.5 -19t-56.5 -69zM223 313q0 -94 64.5 -156.5t187.5 -62.5q72 0 149.5 21.5t143.5 54.5q14 8 17 15.5t3 19.5v231q0 20 -22 21h-408q-72 0 -102 -35q-16 -18 -24.5 -46t-8.5 -63z" />
<glyph unicode="&#xe4;" horiz-adv-x="1093" d="M92 309q0 59 18.5 105.5t53.5 77.5q80 70 239 69h5q37 0 76.5 -1t99.5 -5l204 -12v116q0 61 -15 104.5t-44 72.5q-66 66 -201 65q-106 0 -239 -45l-113 -39l-35 68q104 63 200.5 97t195.5 34q86 0 164.5 -29t129.5 -82q41 -45 64 -104.5t23 -141.5v-548l159 -31v-55 q-29 -10 -62.5 -19.5t-68.5 -9.5q-53 0 -93 24.5t-54 71.5l-58 -29q-84 -41 -153.5 -60t-138.5 -19q-70 0 -134.5 24.5t-113.5 67.5t-79 102.5t-30 130.5zM223 313q0 -94 64.5 -156.5t187.5 -62.5q72 0 149.5 21.5t143.5 54.5q14 8 17 15.5t3 19.5v231q0 20 -22 21h-408 q-72 0 -102 -35q-16 -18 -24.5 -46t-8.5 -63zM274 1167v168h129q20 0 26.5 -5t6.5 -21v-142h-162zM629 1167v168h129q20 0 26 -5t6 -21v-142h-161z" />
<glyph unicode="&#xe5;" horiz-adv-x="1093" d="M92 309q0 59 18.5 105.5t53.5 77.5q80 70 239 69h5q37 0 76.5 -1t99.5 -5l204 -12v116q0 61 -15 104.5t-44 72.5q-66 66 -201 65q-106 0 -239 -45l-113 -39l-35 68q104 63 200.5 97t195.5 34q86 0 164.5 -29t129.5 -82q41 -45 64 -104.5t23 -141.5v-548l159 -31v-55 q-29 -10 -62.5 -19.5t-68.5 -9.5q-53 0 -93 24.5t-54 71.5l-58 -29q-84 -41 -153.5 -60t-138.5 -19q-70 0 -134.5 24.5t-113.5 67.5t-79 102.5t-30 130.5zM223 313q0 -94 64.5 -156.5t187.5 -62.5q72 0 149.5 21.5t143.5 54.5q14 8 17 15.5t3 19.5v231q0 20 -22 21h-408 q-72 0 -102 -35q-16 -18 -24.5 -46t-8.5 -63zM331 1333q0 47 17.5 86t47.5 65.5t68.5 41t79.5 14.5t80 -14.5t69 -41t47 -65.5t17 -86t-17 -86t-47 -65.5t-69 -41t-80 -14.5t-79.5 14.5t-68.5 41t-47.5 65.5t-17.5 86zM426 1333q0 -53 29.5 -84.5t88.5 -31.5t89 31.5 t30 84.5t-29.5 85t-89.5 32q-59 0 -88.5 -32t-29.5 -85z" />
<glyph unicode="&#xe6;" horiz-adv-x="1800" d="M92 317q0 59 18.5 105.5t53.5 77.5q80 70 239 69h5q25 0 64.5 -1t111.5 -5l196 -8v104q0 61 -15 104.5t-44 72.5q-66 66 -193 65q-106 0 -239 -45l-113 -39l-35 68q104 63 200.5 97t195.5 34q115 0 202.5 -48t134.5 -149q61 92 160 144.5t215 52.5q102 0 186.5 -38 t144.5 -103.5t93 -151.5t33 -182q0 -49 -7 -62.5t-24 -13.5h-762q4 -82 31 -149.5t73 -116.5t111.5 -76t151.5 -27q59 0 119.5 14.5t132.5 45.5l123 51l39 -64q-98 -74 -212 -116.5t-214 -42.5q-117 0 -211 45t-160 123l-61 -41q-86 -59 -174.5 -93t-188.5 -34 q-72 0 -140.5 23.5t-121.5 67.5t-86 105.5t-33 136.5zM223 322q0 -98 74 -163t203 -65q41 0 87 10.5t91 29t88 43t80 50.5q-29 51 -45.5 111.5t-20.5 126.5h-422q-72 0 -102 -35q-16 -18 -24.5 -46t-8.5 -62zM915 563h666q-10 154 -94 246t-236 92q-137 0 -229 -82 t-107 -256z" />
<glyph unicode="&#xe7;" horiz-adv-x="1054" d="M88 504q0 109 35 202t98.5 162.5t151.5 108.5t194 39q68 0 131.5 -20.5t116.5 -56.5t92 -85t62 -106l-82 -43l-56 55q-74 72 -136 108.5t-144 36.5q-74 0 -134.5 -28.5t-103.5 -81t-65.5 -126t-22.5 -161.5q0 -201 93.5 -306.5t256.5 -105.5q61 0 123 18.5t133 53.5 l115 57l45 -61q-96 -82 -204.5 -131t-223.5 -49h-2q-14 -27 -14 -47q0 -25 37 -38.5t81 -31t80.5 -46t36.5 -83.5q0 -74 -83 -123t-253 -55l-16 75l133 29q43 10 69.5 23.5t26.5 36.5t-34.5 37t-76.5 30t-77 39t-35 64q0 23 11.5 47t29.5 49q-90 14 -162.5 58t-123 111.5 t-77 154.5t-26.5 190z" />
<glyph unicode="&#xe8;" horiz-adv-x="1107" d="M88 500q0 113 36 207t98.5 162.5t148.5 107.5t186 39q102 0 186 -38t144.5 -103.5t93.5 -151.5t33 -182q0 -49 -7.5 -59.5t-23.5 -10.5h-762q10 -170 102.5 -272.5t264.5 -102.5q59 0 119.5 14.5t132.5 45.5l123 51l38 -64q-98 -74 -212 -116.5t-214 -42.5 q-109 0 -198.5 38.5t-154 108.5t-99.5 164t-35 205zM223 569h666q-10 154 -94 243t-236 89q-137 0 -229 -81t-107 -251zM336 1341l65 99q10 14 25 4l385 -285l-41 -57z" />
<glyph unicode="&#xe9;" horiz-adv-x="1107" d="M88 500q0 113 36 207t98.5 162.5t148.5 107.5t186 39q102 0 186 -38t144.5 -103.5t93.5 -151.5t33 -182q0 -49 -7.5 -59.5t-23.5 -10.5h-762q10 -170 102.5 -272.5t264.5 -102.5q59 0 119.5 14.5t132.5 45.5l123 51l38 -64q-98 -74 -212 -116.5t-214 -42.5 q-109 0 -198.5 38.5t-154 108.5t-99.5 164t-35 205zM223 569h666q-10 154 -94 243t-236 89q-137 0 -229 -81t-107 -251zM336 1159l385 285q14 10 24 -4l66 -99l-434 -239z" />
<glyph unicode="&#xea;" horiz-adv-x="1107" d="M88 500q0 113 36 207t98.5 162.5t148.5 107.5t186 39q102 0 186 -38t144.5 -103.5t93.5 -151.5t33 -182q0 -49 -7.5 -59.5t-23.5 -10.5h-762q10 -170 102.5 -272.5t264.5 -102.5q59 0 119.5 14.5t132.5 45.5l123 51l38 -64q-98 -74 -212 -116.5t-214 -42.5 q-109 0 -198.5 38.5t-154 108.5t-99.5 164t-35 205zM223 569h666q-10 154 -94 243t-236 89q-137 0 -229 -81t-107 -251zM248 1159l254 264q12 12 19 15.5t26 3.5h33q18 0 25 -3t20 -16l256 -264l-51 -47l-263 217h-6l-262 -217z" />
<glyph unicode="&#xeb;" horiz-adv-x="1107" d="M88 500q0 113 36 207t98.5 162.5t148.5 107.5t186 39q102 0 186 -38t144.5 -103.5t93.5 -151.5t33 -182q0 -49 -7.5 -59.5t-23.5 -10.5h-762q10 -170 102.5 -272.5t264.5 -102.5q59 0 119.5 14.5t132.5 45.5l123 51l38 -64q-98 -74 -212 -116.5t-214 -42.5 q-109 0 -198.5 38.5t-154 108.5t-99.5 164t-35 205zM223 569h666q-10 154 -94 243t-236 89q-137 0 -229 -81t-107 -251zM307 1167v168h129q20 0 26.5 -5t6.5 -21v-142h-162zM662 1167v168h129q20 0 26 -5t6 -21v-142h-161z" />
<glyph unicode="&#xec;" horiz-adv-x="413" d="M-47 1341l65 99q10 14 25 4l385 -285l-41 -57zM146 0v999h129v-999h-129z" />
<glyph unicode="&#xed;" horiz-adv-x="413" d="M-6 1159l385 285q14 10 24 -4l66 -99l-434 -239zM144 0v999h129v-999h-129z" />
<glyph unicode="&#xee;" horiz-adv-x="419" d="M-104 1159l254 264q12 12 19 15.5t26 3.5h33q18 0 25 -3t20 -16l256 -264l-51 -47l-263 217h-6l-262 -217zM148 0v999h129v-999h-129z" />
<glyph unicode="&#xef;" horiz-adv-x="415" d="M-47 1167v168h129q20 0 26.5 -5t6.5 -21v-142h-162zM146 0v999h129v-999h-129zM308 1167v168h129q20 0 26 -5t6 -21v-142h-161z" />
<glyph unicode="&#xf0;" horiz-adv-x="1146" d="M96 485q0 104 36 190.5t98.5 148t144.5 95t174 33.5q154 0 325 -90q-29 100 -92 190.5t-143 157.5l-256 -116l-41 80l219 100q-53 41 -120.5 78t-135.5 73l39 64q90 -37 169 -79t149 -93l264 119l41 -80l-226 -103q145 -127 223 -296t78 -377v-13q0 -123 -32.5 -229.5 t-94 -185t-149.5 -123.5t-199 -45h-6q-100 0 -185 37.5t-147.5 105.5t-97.5 159t-35 199zM225 487q0 -182 88 -286.5t254 -104.5q92 0 158 36t109 99.5t62 147.5t19 182q0 47 -2 91t-8 73q-4 16 -11 25.5t-32 21.5q-53 27 -133 46.5t-156 19.5h-4q-172 0 -258 -89.5 t-86 -261.5z" />
<glyph unicode="&#xf1;" horiz-adv-x="1136" d="M154 0v999h90l28 -86l66 31q70 33 140.5 52.5t139.5 19.5q96 0 171 -30t122 -81q43 -47 65.5 -109.5t22.5 -148.5v-647h-129v633q0 74 -13 119t-42 75q-35 37 -90 52.5t-127 15.5q-61 0 -130 -12.5t-128 -34.5l-33 -12q-16 -6 -20 -12.5t-4 -20.5v-803h-129zM262 1188 q25 84 74 131t116 47q35 0 71 -14.5t70.5 -30.5t69.5 -30.5t66 -14.5t60.5 20.5t55.5 69.5l68 -20q-25 -84 -73.5 -131.5t-116.5 -47.5q-35 0 -71 13.5t-71 31t-69.5 30.5t-65.5 13t-60.5 -19t-56.5 -69z" />
<glyph unicode="&#xf2;" horiz-adv-x="1134" d="M88 500q0 111 36 205t98.5 162.5t150.5 108.5t192 40h4q104 0 192.5 -40t151 -108.5t98.5 -162.5t36 -205t-36 -205t-98.5 -163t-150.5 -108.5t-193 -39.5h-4q-104 0 -191 39.5t-150.5 108.5t-99.5 163t-36 205zM221 500q0 -195 90 -297.5t254 -102.5h4q164 0 254 102.5 t90 297.5t-90 297t-254 102h-4q-164 0 -254 -102.5t-90 -296.5zM330 1341l65 99q10 14 25 4l385 -285l-41 -57z" />
<glyph unicode="&#xf3;" horiz-adv-x="1134" d="M88 500q0 111 36 205t98.5 162.5t150.5 108.5t192 40h4q104 0 192.5 -40t151 -108.5t98.5 -162.5t36 -205t-36 -205t-98.5 -163t-150.5 -108.5t-193 -39.5h-4q-104 0 -191 39.5t-150.5 108.5t-99.5 163t-36 205zM221 500q0 -195 90 -297.5t254 -102.5h4q164 0 254 102.5 t90 297.5t-90 297t-254 102h-4q-164 0 -254 -102.5t-90 -296.5zM330 1159l385 285q14 10 24 -4l66 -99l-434 -239z" />
<glyph unicode="&#xf4;" horiz-adv-x="1134" d="M88 500q0 111 36 205t98.5 162.5t150.5 108.5t192 40h4q104 0 192.5 -40t151 -108.5t98.5 -162.5t36 -205t-36 -205t-98.5 -163t-150.5 -108.5t-193 -39.5h-4q-104 0 -191 39.5t-150.5 108.5t-99.5 163t-36 205zM221 500q0 -195 90 -297.5t254 -102.5h4q164 0 254 102.5 t90 297.5t-90 297t-254 102h-4q-164 0 -254 -102.5t-90 -296.5zM250 1159l254 264q12 12 19 15.5t26 3.5h33q18 0 25 -3t20 -16l256 -264l-51 -47l-263 217h-6l-262 -217z" />
<glyph unicode="&#xf5;" horiz-adv-x="1134" d="M88 500q0 111 36 205t98.5 162.5t150.5 108.5t192 40h4q104 0 192.5 -40t151 -108.5t98.5 -162.5t36 -205t-36 -205t-98.5 -163t-150.5 -108.5t-193 -39.5h-4q-104 0 -191 39.5t-150.5 108.5t-99.5 163t-36 205zM221 500q0 -195 90 -297.5t254 -102.5h4q164 0 254 102.5 t90 297.5t-90 297t-254 102h-4q-164 0 -254 -102.5t-90 -296.5zM242 1188q25 84 74 131t116 47q35 0 71 -14.5t70.5 -30.5t69.5 -30.5t66 -14.5t60.5 20.5t55.5 69.5l68 -20q-25 -84 -73.5 -131.5t-116.5 -47.5q-35 0 -71 13.5t-71 31t-69.5 30.5t-65.5 13t-60.5 -19 t-56.5 -69z" />
<glyph unicode="&#xf6;" horiz-adv-x="1134" d="M88 500q0 111 36 205t98.5 162.5t150.5 108.5t192 40h4q104 0 192.5 -40t151 -108.5t98.5 -162.5t36 -205t-36 -205t-98.5 -163t-150.5 -108.5t-193 -39.5h-4q-104 0 -191 39.5t-150.5 108.5t-99.5 163t-36 205zM221 500q0 -195 90 -297.5t254 -102.5h4q164 0 254 102.5 t90 297.5t-90 297t-254 102h-4q-164 0 -254 -102.5t-90 -296.5zM309 1167v168h129q20 0 26.5 -5t6.5 -21v-142h-162zM664 1167v168h129q20 0 26 -5t6 -21v-142h-161z" />
<glyph unicode="&#xf7;" horiz-adv-x="1073" d="M164 453v102h745v-102h-745zM461 104v160h123q20 0 25 -4t5 -20v-136h-153zM461 743v160h123q20 0 25 -4t5 -20v-136h-153z" />
<glyph unicode="&#xf8;" horiz-adv-x="1130" d="M88 500q0 111 36 205t98.5 162.5t150.5 108.5t192 40h4q150 0 265 -80l135 182l82 -53l-144 -193q66 -72 103 -165.5t37 -206.5q0 -111 -36 -205t-98.5 -163t-150.5 -108.5t-193 -39.5h-4q-147 0 -260 75l-129 -174l-82 54l137 184q-68 70 -105.5 166t-37.5 211zM221 500 q0 -182 80 -283l465 629q-82 53 -197 53h-4q-164 0 -254 -102t-90 -297zM373 150q76 -49 192 -50h4q164 0 254 102.5t90 297.5q0 174 -75 278z" />
<glyph unicode="&#xf9;" horiz-adv-x="1132" d="M137 352v647h129v-632q0 -74 13.5 -119t42.5 -76q35 -37 90 -52.5t127 -15.5q61 0 127.5 12.5t126.5 35.5l32 12q16 6 20.5 12t4.5 21v802h129v-999h-90l-29 86l-65 -31q-70 -33 -138.5 -52t-138.5 -19q-96 0 -171 29.5t-122 80.5q-43 47 -65.5 109.5t-22.5 148.5z M307 1341l65 99q10 14 25 4l385 -285l-41 -57z" />
<glyph unicode="&#xfa;" horiz-adv-x="1132" d="M137 352v647h129v-632q0 -74 13.5 -119t42.5 -76q35 -37 90 -52.5t127 -15.5q61 0 127.5 12.5t126.5 35.5l32 12q16 6 20.5 12t4.5 21v802h129v-999h-90l-29 86l-65 -31q-70 -33 -138.5 -52t-138.5 -19q-96 0 -171 29.5t-122 80.5q-43 47 -65.5 109.5t-22.5 148.5z M381 1159l385 285q14 10 24 -4l66 -99l-434 -239z" />
<glyph unicode="&#xfb;" horiz-adv-x="1132" d="M137 352v647h129v-632q0 -74 13.5 -119t42.5 -76q35 -37 90 -52.5t127 -15.5q61 0 127.5 12.5t126.5 35.5l32 12q16 6 20.5 12t4.5 21v802h129v-999h-90l-29 86l-65 -31q-70 -33 -138.5 -52t-138.5 -19q-96 0 -171 29.5t-122 80.5q-43 47 -65.5 109.5t-22.5 148.5z M248 1159l254 264q12 12 19 15.5t26 3.5h33q18 0 25 -3t20 -16l256 -264l-51 -47l-263 217h-6l-262 -217z" />
<glyph unicode="&#xfc;" horiz-adv-x="1132" d="M137 352v647h129v-632q0 -74 13.5 -119t42.5 -76q35 -37 90 -52.5t127 -15.5q61 0 127.5 12.5t126.5 35.5l32 12q16 6 20.5 12t4.5 21v802h129v-999h-90l-29 86l-65 -31q-70 -33 -138.5 -52t-138.5 -19q-96 0 -171 29.5t-122 80.5q-43 47 -65.5 109.5t-22.5 148.5z M307 1167v168h129q20 0 26.5 -5t6.5 -21v-142h-162zM662 1167v168h129q20 0 26 -5t6 -21v-142h-161z" />
<glyph unicode="&#xfd;" horiz-adv-x="1050" d="M12 999h117q12 0 16.5 -3t8.5 -13l278 -616q35 -78 60.5 -137.5t42.5 -104.5h2q12 37 37.5 98.5t60.5 141.5l268 618q4 10 9.5 13t17.5 3h108l-641 -1472l-114 29l190 432zM346 1159l385 285q14 10 24 -4l66 -99l-434 -239z" />
<glyph unicode="&#xfe;" horiz-adv-x="1163" d="M154 -469v1921h129v-565l73 43q70 39 138.5 62.5t140.5 23.5q94 0 175 -38t139.5 -105.5t91 -163t32.5 -209.5q0 -115 -31.5 -209t-88 -163t-137.5 -106.5t-179 -37.5q-70 0 -136.5 21.5t-144.5 62.5l-73 38v-575h-129zM283 236q0 -16 4 -22.5t14 -12.5q78 -43 157 -71 t163 -28q59 0 119.5 18.5t107.5 67.5q45 47 68.5 123t23.5 189t-23.5 188.5t-68.5 122.5q-47 49 -107.5 67.5t-119.5 18.5q-84 0 -163 -28.5t-157 -73.5q-18 -10 -18 -35v-524z" />
<glyph unicode="&#xff;" horiz-adv-x="1050" d="M12 999h117q12 0 16.5 -3t8.5 -13l278 -616q35 -78 60.5 -137.5t42.5 -104.5h2q12 37 37.5 98.5t60.5 141.5l268 618q4 10 9.5 13t17.5 3h108l-641 -1472l-114 29l190 432zM270 1167v168h129q20 0 26.5 -5t6.5 -21v-142h-162zM625 1167v168h129q20 0 26 -5t6 -21v-142 h-161z" />
<glyph unicode="&#x152;" horiz-adv-x="2209" d="M88 678q0 150 50 277.5t138.5 222t208 147.5t260.5 53q160 0 292 -75.5t214 -198.5v254h838v-111h-703v-483h642v-111h-642v-542h728v-111h-863v252q-82 -123 -214 -197.5t-292 -74.5q-141 0 -260.5 53t-208 146t-138.5 221t-50 278zM227 678q0 -129 38 -234.5 t106.5 -179.5t164 -114.5t209.5 -40.5q115 0 209.5 40.5t162 114.5t104 179.5t36.5 234.5t-36.5 234.5t-104 180t-162 115.5t-209.5 41t-210 -41t-163.5 -115.5t-106.5 -180t-38 -234.5z" />
<glyph unicode="&#x153;" horiz-adv-x="1933" d="M88 500q0 111 36 205t98.5 162.5t150.5 108.5t192 40h4q137 0 244 -66.5t166 -177.5q59 113 164.5 178.5t238.5 65.5q102 0 186.5 -38t145 -103.5t93 -151.5t32.5 -182q0 -49 -7 -59.5t-24 -10.5h-761q10 -170 102 -272.5t264 -102.5q59 0 119.5 14.5t132.5 45.5l123 51 l39 -64q-98 -74 -212 -116.5t-214 -42.5q-143 0 -252 65.5t-168 177.5q-61 -113 -167.5 -178t-244.5 -65h-4q-104 0 -191 39.5t-150.5 108.5t-99.5 163t-36 205zM221 500q0 -195 90 -297.5t254 -102.5h4q164 0 254 102.5t90 297.5t-90 297t-254 102h-4q-164 0 -254 -102.5 t-90 -296.5zM1049 569h665q-10 154 -94 243t-236 89q-137 0 -229 -81t-106 -251z" />
<glyph unicode="&#x178;" horiz-adv-x="1218" d="M16 1358h119q14 0 20.5 -3t14.5 -16l258 -442q53 -96 105.5 -187.5t78.5 -142.5h2q27 51 78 141.5t105 184.5l258 446q8 12 14 15.5t21 3.5h114l-526 -903v-455h-135v457zM354 1536v168h129q20 0 26.5 -5t6.5 -22v-141h-162zM709 1536v168h129q20 0 26 -5t6 -22v-141 h-161z" />
<glyph unicode="&#x2c6;" horiz-adv-x="798" d="M82 1159l254 264q12 12 19 15.5t26 3.5h33q18 0 25 -3t20 -16l256 -264l-51 -47l-263 217h-6l-262 -217z" />
<glyph unicode="&#x2dc;" horiz-adv-x="798" d="M74 1188q25 84 74 131t116 47q35 0 71 -14.5t70.5 -30.5t69.5 -30.5t66 -14.5t60.5 20.5t55.5 69.5l68 -20q-25 -84 -73.5 -131.5t-116.5 -47.5q-35 0 -71 13.5t-71 31t-69.5 30.5t-65.5 13t-60.5 -19t-56.5 -69z" />
<glyph unicode="&#x2000;" horiz-adv-x="914" />
<glyph unicode="&#x2001;" horiz-adv-x="1829" />
<glyph unicode="&#x2002;" horiz-adv-x="914" />
<glyph unicode="&#x2003;" horiz-adv-x="1829" />
<glyph unicode="&#x2004;" horiz-adv-x="609" />
<glyph unicode="&#x2005;" horiz-adv-x="457" />
<glyph unicode="&#x2006;" horiz-adv-x="304" />
<glyph unicode="&#x2007;" horiz-adv-x="304" />
<glyph unicode="&#x2008;" horiz-adv-x="228" />
<glyph unicode="&#x2009;" horiz-adv-x="365" />
<glyph unicode="&#x200a;" horiz-adv-x="101" />
<glyph unicode="&#x2010;" horiz-adv-x="864" d="M137 451v102h590v-102h-590z" />
<glyph unicode="&#x2011;" horiz-adv-x="864" d="M137 451v102h590v-102h-590z" />
<glyph unicode="&#x2012;" horiz-adv-x="864" d="M137 451v102h590v-102h-590z" />
<glyph unicode="&#x2013;" horiz-adv-x="1298" d="M137 451v102h1024v-102h-1024z" />
<glyph unicode="&#x2014;" horiz-adv-x="2322" d="M137 451v102h2048v-102h-2048z" />
<glyph unicode="&#x2018;" horiz-adv-x="456" d="M129 928v59q0 49 5 83t22 69q20 41 60 94t101 125l48 -31l-121 -227q-8 -16 4 -25l18 -14q18 -14 23.5 -23.5t5.5 -27.5v-109h-133q-20 0 -26.5 5t-6.5 22z" />
<glyph unicode="&#x2019;" horiz-adv-x="456" d="M92 936l121 227q8 16 -4 25l-19 14q-18 14 -23 23.5t-5 27.5v109h133q20 0 26.5 -5t6.5 -22v-59q0 -49 -5.5 -83t-21.5 -69q-20 -41 -60 -94t-102 -125z" />
<glyph unicode="&#x201a;" horiz-adv-x="425" d="M51 -293l121 227q8 16 -4 25l-18 14q-18 14 -23.5 23.5t-5.5 28.5v108h133q20 0 26.5 -5t6.5 -22v-59q0 -49 -5.5 -83t-21.5 -68q-20 -41 -60 -94.5t-102 -125.5z" />
<glyph unicode="&#x201c;" horiz-adv-x="761" d="M129 928v59q0 49 5 83t22 69q20 41 60 94t101 125l48 -31l-121 -227q-8 -16 4 -25l18 -14q18 -14 23.5 -23.5t5.5 -27.5v-109h-133q-20 0 -26.5 5t-6.5 22zM434 928v59q0 49 5 83t22 69q20 41 60 94t102 125l47 -31l-121 -227q-8 -16 4 -25l18 -14q18 -14 23.5 -23.5 t5.5 -27.5v-109h-133q-20 0 -26.5 5t-6.5 22z" />
<glyph unicode="&#x201d;" horiz-adv-x="761" d="M92 936l121 227q8 16 -4 25l-19 14q-18 14 -23 23.5t-5 27.5v109h133q20 0 26.5 -5t6.5 -22v-59q0 -49 -5.5 -83t-21.5 -69q-20 -41 -60 -94t-102 -125zM397 936l121 227q8 16 -4 25l-18 14q-18 14 -23.5 23.5t-5.5 27.5v109h133q20 0 26.5 -5t6.5 -22v-59q0 -49 -5 -83 t-22 -69q-20 -41 -60 -94t-102 -125z" />
<glyph unicode="&#x201e;" horiz-adv-x="731" d="M51 -293l121 227q8 16 -4 25l-18 14q-18 14 -23.5 23.5t-5.5 28.5v108h133q20 0 26.5 -5t6.5 -22v-59q0 -49 -5.5 -83t-21.5 -68q-20 -41 -60 -94.5t-102 -125.5zM356 -293l121 227q8 16 -4 25l-18 14q-18 14 -23.5 23.5t-5.5 28.5v108h133q20 0 26.5 -5t6.5 -22v-59 q0 -49 -5 -83t-22 -68q-20 -41 -60 -94.5t-102 -125.5z" />
<glyph unicode="&#x2022;" horiz-adv-x="700" d="M164 391v367h330q29 0 36 -8.5t7 -30.5v-328h-373z" />
<glyph unicode="&#x2026;" horiz-adv-x="1251" d="M137 0v168h129q20 0 26.5 -5t6.5 -22v-141h-162zM545 0v168h129q20 0 26.5 -5t6.5 -22v-141h-162zM952 0v168h129q20 0 26.5 -5t6.5 -22v-141h-162z" />
<glyph unicode="&#x202f;" horiz-adv-x="365" />
<glyph unicode="&#x2039;" horiz-adv-x="714" d="M123 477v76l416 340l57 -53l-342 -336l342 -336l-57 -53l-396 323q-12 10 -16 16.5t-4 22.5z" />
<glyph unicode="&#x203a;" horiz-adv-x="714" d="M119 168l342 336l-342 336l57 53l395 -324q12 -10 16.5 -16t4.5 -23v-75l-416 -340z" />
<glyph unicode="&#x205f;" horiz-adv-x="457" />
<glyph unicode="&#x20ac;" d="M66 500v71l159 17q-2 23 -3 45t-1 47v31.5t2 31.5h-157v72l165 16q16 109 52 202t94 165q66 86 161 133t212 47q68 0 129 -20.5t113 -57t93 -86t68 -106.5l-68 -43l-110 98q-57 51 -110.5 78t-129.5 27q-68 0 -130 -28t-111.5 -83t-83 -135t-48.5 -184h439v-95h-447 q-2 -16 -2 -31.5v-31.5v-44.5t2 -41.5h447v-94h-434q29 -186 131 -298t272 -112q53 0 119.5 20.5t136.5 55.5l98 49l47 -63q-43 -41 -94 -73t-105 -53.5t-109.5 -33.5t-104.5 -12q-106 0 -194.5 37.5t-155 105t-110.5 164t-62 213.5h-170z" />
<glyph unicode="&#x2122;" horiz-adv-x="1419" d="M45 1276v82h510v-82h-205v-547h-100v547h-205zM659 729v629h58q10 0 13 -1t11 -11l250 -312l246 312q8 10 12 11t15 1h49v-629h-94v451l-195 -240h-49q-18 0 -29 12l-194 238v-461h-93z" />
<glyph unicode="&#x25fc;" horiz-adv-x="1003" d="M0 0v1004h1004v-1004h-1004z" />
</font>
</defs>
</svg>
