<?xml version="1.0" standalone="no"?>
<!DOCTYPE svg PUBLIC "-//W3C//DTD SVG 1.1//EN" "http://www.w3.org/Graphics/SVG/1.1/DTD/svg11.dtd" >
<svg xmlns="http://www.w3.org/2000/svg" xmlns:xlink="http://www.w3.org/1999/xlink" version="1.1">
<metadata></metadata>
<defs>
<font id="fs_emericmedium" horiz-adv-x="1310" >
<font-face units-per-em="2048" ascent="1497" descent="-551" />
<missing-glyph horiz-adv-x="477" />
<glyph unicode="&#xfb01;" horiz-adv-x="1216" d="M4 819v144l176 32q-22 83 -22 150q0 145 108 234t271 89q170 0 333 -102l-53 -141l-78 18q-97 23 -166 23q-90 0 -137 -35.5t-47 -118.5q0 -58 19 -113h335v-180h-329v-819h-232v819h-178zM858 0v999h232v-999h-232z" />
<glyph unicode="&#xfb02;" horiz-adv-x="1294" d="M4 819v144l174 32q-28 98 -28 162q0 129 79 211q94 100 265 100q149 0 294 -88l-38 -139l-62 10q-84 15 -143 15q-77 0 -120.5 -35t-43.5 -109q0 -52 27 -123h342v-180h-336v-819h-232v819h-178zM877 209v1243h231v-1262l152 -30v-123q-35 -17 -86 -29t-91 -12 q-91 0 -147 53q-59 56 -59 160z" />
<glyph unicode="&#xfb03;" horiz-adv-x="1935" d="M4 819v144l170 32q-24 84 -24 162q0 129 79 211q94 100 267 100q153 0 303 -88l-39 -139l-70 10q-96 15 -143 15q-166 0 -166 -144q0 -40 27 -123h489q-20 86 -20 142q0 146 108 236.5t270 90.5q171 0 334 -102l-53 -141l-78 18q-97 23 -166 23q-90 0 -137 -35.5 t-47 -118.5q0 -61 18 -113h336v-180h-329v-819h-232v819h-487v-819h-232v819h-178zM1577 0v999h231v-999h-231z" />
<glyph unicode="&#xfb04;" horiz-adv-x="2002" d="M4 819v144l172 32q-26 91 -26 162q0 129 79 211q94 100 267 100q153 0 303 -88l-39 -139l-70 10q-96 15 -143 15q-166 0 -166 -144q0 -59 27 -123h477q-27 94 -27 158q0 128 80 211q94 100 264 100q150 0 295 -88l-39 -139l-61 10q-84 15 -144 15q-163 0 -163 -144 q0 -58 26 -123h342v-180h-336v-819h-231v819h-477v-819h-232v819h-178zM1585 209v1243h232v-1262l151 -30v-123q-35 -17 -85.5 -29t-90.5 -12q-91 0 -147 53q-60 57 -60 160z" />
<glyph horiz-adv-x="0" />
<glyph horiz-adv-x="0" />
<glyph horiz-adv-x="682" />
<glyph unicode="&#xd;" horiz-adv-x="477" />
<glyph unicode=" "  horiz-adv-x="477" />
<glyph unicode="&#x09;" horiz-adv-x="477" />
<glyph unicode="&#xa0;" horiz-adv-x="477" />
<glyph unicode="!" horiz-adv-x="555" d="M154 0v236h206q24 0 32.5 -9t8.5 -30v-197h-247zM158 883v475h239v-475q0 -79 -10 -176l-31 -332h-157l-31 332q-10 97 -10 176z" />
<glyph unicode="&#x22;" horiz-adv-x="878" d="M131 1262v96h248v-96q0 -99 -10 -177l-35 -290h-158l-35 290q-10 78 -10 177zM500 1262v96h248v-96q0 -91 -11 -177l-35 -290h-157l-35 290q-10 78 -10 177z" />
<glyph unicode="#" d="M145 391v182h195l37 209h-232v183h265l69 393h191l-70 -393h209l70 393h190l-70 -393h166v-183h-198l-37 -209h235v-182h-268l-68 -391h-190l68 391h-209l-68 -391h-190l67 391h-162zM530 573h209l37 209h-209z" />
<glyph unicode="$" d="M141 117l64 149l129 -28q159 -37 266 -45v428l-47 14q-205 65 -302 151.5t-97 229.5q0 160 121 255.5t325 104.5l21 240h106v-242q178 -12 363 -80l-37 -161l-90 10q-158 18 -236 20v-352q245 -77 338 -170q88 -91 88 -244q0 -169 -109.5 -281t-316.5 -132l-20 -222h-107 v220q-120 7 -246 45t-213 90zM381 1020q0 -61 52 -98t167 -72v313q-112 -8 -165.5 -42t-53.5 -101zM727 197q195 28 195 194q0 71 -43.5 112t-151.5 77v-383z" />
<glyph unicode="%" horiz-adv-x="1941" d="M100 1026q0 82 31 150t82.5 111.5t114.5 67t129 23.5h6q90 0 169.5 -39.5t133 -122t53.5 -190.5t-53.5 -190.5t-133 -122t-169.5 -39.5h-6q-66 0 -129 23.5t-114.5 67t-82.5 111.5t-31 150zM289 1026q0 -83 45 -126.5t123 -43.5h6q78 0 123 43.5t45 126.5t-45 126.5 t-123 43.5h-6q-78 0 -123 -43.5t-45 -126.5zM530 0l672 1358h211l-672 -1358h-211zM1122 332q0 82 31 150t82.5 111.5t114.5 67t129 23.5h6q90 0 169.5 -39.5t133 -122t53.5 -190.5t-53.5 -190.5t-133 -122t-169.5 -39.5h-6q-66 0 -129 23.5t-114.5 67t-82.5 111.5t-31 150z M1311 332q0 -83 45 -126.5t123 -43.5h6q78 0 123 43.5t45 126.5t-45 126.5t-123 43.5h-6q-78 0 -123 -43.5t-45 -126.5z" />
<glyph unicode="&#x26;" horiz-adv-x="1576" d="M88 442q0 240 272 377q-65 100 -65 203q0 159 113 257.5t278 98.5q153 0 266 -97.5t113 -240.5q0 -210 -268 -376l252 -236q98 130 247 418l154 -64q-90 -282 -256 -493l102 -96l168 -27v-123q-33 -20 -81 -34.5t-89 -14.5q-54 0 -92 18.5t-100 75.5l-55 51 q-192 -159 -420 -159q-106 0 -204.5 35.5t-172 96t-118 147t-44.5 183.5zM324 465q0 -104 90.5 -186t244.5 -82q123 0 240 82l-438 417l-47 -47q-46 -46 -68 -88t-22 -96zM510 1034q0 -61 42 -121.5t134 -144.5l70 72q58 59 79 104.5t21 93.5q0 62 -49.5 106t-122.5 44 q-78 0 -126 -43t-48 -111z" />
<glyph unicode="'" horiz-adv-x="509" d="M131 1262v96h248v-96q0 -99 -10 -177l-35 -290h-158l-35 290q-10 78 -10 177z" />
<glyph unicode="(" horiz-adv-x="702" d="M117 444q0 263 120.5 524t317.5 418l111 -90q-149 -205 -224 -410.5t-75 -441.5t75 -441.5t224 -410.5l-111 -90q-198 157 -318 418t-120 524z" />
<glyph unicode=")" horiz-adv-x="702" d="M37 -408q149 205 224 410.5t75 441.5t-75 441.5t-224 410.5l110 90q197 -157 318 -418.5t121 -523.5q0 -263 -120.5 -524t-318.5 -418z" />
<glyph unicode="*" horiz-adv-x="929" d="M88 1032l51 129q15 39 54 19l215 -117l-39 295h170q29 0 26 -29l-35 -266l252 135l56 -135q6 -18 0 -27t-27 -14l-244 -59l226 -246l-138 -90q-26 -16 -43 10l-143 242l-162 -269l-137 90q-26 18 2 50l199 213z" />
<glyph unicode="+" horiz-adv-x="1126" d="M154 403v199h309v309h199v-309h311v-199h-311v-311h-199v311h-309z" />
<glyph unicode="," horiz-adv-x="471" d="M45 -254l129 221q15 24 -8 37l-25 14q-20 12 -26 23.5t-6 32.5v178h208q24 0 32.5 -9t8.5 -30v-135q0 -69 -15 -117.5t-65.5 -115.5t-152.5 -164z" />
<glyph unicode="-" horiz-adv-x="864" d="M109 399v203h647v-203h-647z" />
<glyph unicode="." horiz-adv-x="475" d="M113 0v252h209q24 0 32 -9t8 -30v-213h-249z" />
<glyph unicode="/" horiz-adv-x="952" d="M12 0l686 1358h242l-686 -1358h-242z" />
<glyph unicode="0" d="M98 664v30q0 312 150.5 498t402.5 186h8q252 0 402.5 -186t150.5 -498v-30q0 -312 -150.5 -498t-402.5 -186h-8q-252 0 -402.5 186t-150.5 498zM352 664q0 -457 301 -457h4q301 0 301 457v30q0 230 -74 343.5t-227 113.5h-4q-153 0 -227 -113.5t-74 -343.5v-30z" />
<glyph unicode="1" d="M197 1151l426 188q45 19 82 19h135v-1159h290v-199h-880v199h348v895h-4q-85 -37 -143 -54l-185 -57z" />
<glyph unicode="2" d="M158 1192q107 87 232.5 136.5t246.5 49.5q123 0 226 -46.5t166 -138.5t63 -212q0 -130 -67.5 -236t-262.5 -286l-281 -258h635v-201h-934v119q0 26 6 41.5t25 36.5l393 409q75 79 111.5 119.5t71 87.5t46 82t11.5 76q0 92 -65.5 141t-166.5 49q-102 0 -247 -57l-136 -53z " />
<glyph unicode="3" d="M96 180l80 139l170 -61q160 -59 285 -59q62 0 117 20t86 53q53 56 53 146q0 124 -84 160q-36 14 -115 14h-158q-19 0 -26.5 6t-7.5 23v163h229q49 0 72 29q53 60 53 154q0 97 -59.5 145.5t-157.5 48.5q-119 0 -268 -55l-140 -51l-78 143q252 180 498 180q190 0 316 -100 t126 -266q0 -150 -145 -289q92 -44 141.5 -124t49.5 -183q0 -190 -121 -305q-137 -131 -377 -131q-143 0 -291.5 55.5t-247.5 144.5z" />
<glyph unicode="4" d="M90 319v158q0 26 6 41t25 39l604 764q19 22 32.5 29.5t39.5 7.5h225v-838h180v-201h-180v-319h-240v319h-692zM338 520h444v572q-31 -48 -102 -142l-221 -288q-78 -101 -121 -142z" />
<glyph unicode="5" d="M129 168l84 145l149 -55q157 -59 279 -59t189 61.5t67 181.5q0 209 -272 209q-51 0 -119.5 -11t-112.5 -26q-38 -13 -74 7l-71 41q-20 11 -26.5 21t-6.5 34v641h834v-209h-621v-188q0 -91 -10 -166q119 55 276 55q197 0 323 -112t126 -296q0 -92 -31 -174.5t-90.5 -147 t-155 -102.5t-215.5 -38q-135 0 -276 52.5t-246 135.5z" />
<glyph unicode="6" d="M135 623v10q0 159 46.5 297t128.5 236.5t199 155t253 56.5q186 0 340 -100l-62 -154q-143 45 -258 45q-167 0 -275.5 -102t-121.5 -305l53 24q164 74 305 74q189 0 312 -115t123 -307q0 -190 -138.5 -324t-349.5 -134h-2q-134 0 -240.5 51t-174 140t-103 204.5 t-35.5 247.5zM379 535q0 -154 80.5 -248t222.5 -94q117 0 189.5 67.5t72.5 183.5q0 220 -256 220h-2q-61 0 -135 -18t-123 -44q-32 -17 -40.5 -29.5t-8.5 -37.5z" />
<glyph unicode="7" d="M156 1149v209h1020v-123q0 -42 -19 -76l-289 -473q-91 -149 -140 -264.5t-67 -203t-28 -218.5h-248q6 187 48 318.5t149 316.5l123 205q125 206 202 307v2h-751z" />
<glyph unicode="8" d="M109 399q0 185 206 332q-145 105 -145 268q0 164 140.5 271.5t346.5 107.5q212 0 350 -101t138 -265q0 -83 -51 -165.5t-131 -144.5q111 -50 172 -123.5t61 -185.5q0 -169 -156.5 -291t-384.5 -122q-150 0 -273 49t-198 145.5t-75 224.5zM342 420q0 -104 90.5 -167 t224.5 -63q121 0 209 56.5t88 142.5q0 68 -67.5 107.5t-292.5 113.5l-88 29q-16 7 -30 4.5t-30 -18.5q-104 -104 -104 -205zM403 1008q0 -34 15.5 -61.5t38.5 -47t68 -40t85 -34t109 -34.5l41 -13q27 -5 36 -2t23 17q42 38 72.5 94t30.5 106q0 83 -74 129.5t-195 46.5 q-105 0 -177.5 -41.5t-72.5 -119.5z" />
<glyph unicode="9" d="M129 928q0 188 140.5 319t351.5 131h2q134 0 240.5 -51.5t174 -140.5t103 -204t35.5 -247v-10q0 -202 -52 -360.5t-155 -255.5q-138 -129 -363 -129q-91 0 -199 32t-182 82l68 150q179 -51 301 -51q165 0 247 107t85 296l-54 -25q-156 -73 -305 -73q-124 0 -222.5 50.5 t-157 149t-58.5 230.5zM362 928q0 -117 67 -175.5t189 -58.5h3q63 0 139 18t123 44q28 15 38.5 29t10.5 38q0 155 -82 249.5t-225 94.5q-118 0 -190.5 -65t-72.5 -174z" />
<glyph unicode=":" horiz-adv-x="475" d="M113 0v252h209q24 0 32 -9t8 -30v-213h-249zM113 645v252h209q24 0 32 -9t8 -30v-213h-249z" />
<glyph unicode=";" horiz-adv-x="471" d="M45 -254l129 221q15 24 -8 37l-25 14q-20 12 -26 23.5t-6 32.5v178h208q24 0 32.5 -9t8.5 -30v-135q0 -69 -15 -117.5t-65.5 -115.5t-152.5 -164zM109 645v252h208q24 0 32.5 -9t8.5 -30v-213h-249z" />
<glyph unicode="&#x3c;" horiz-adv-x="1126" d="M154 424v158l819 387v-230l-522 -235v-4l522 -234v-229z" />
<glyph unicode="=" horiz-adv-x="1126" d="M154 201v198h819v-198h-819zM154 606v199h819v-199h-819z" />
<glyph unicode="&#x3e;" horiz-adv-x="1126" d="M154 37v229l522 234v4l-522 235v230l819 -387v-158z" />
<glyph unicode="?" horiz-adv-x="1060" d="M47 1194q102 84 233.5 134t260.5 50q188 0 310 -110t122 -275q0 -241 -303 -379l-99 -45l-45 -194h-159l-27 149q-8 47 -8 70q0 37 17 57.5t63 46.5l73 41q137 75 189.5 124t52.5 126t-58 122.5t-157 45.5q-118 0 -266 -59l-119 -47zM328 0v227h198q24 0 32.5 -9t8.5 -30 v-188h-239z" />
<glyph unicode="@" horiz-adv-x="1597" d="M96 498q0 159 60.5 292.5t161.5 221t231.5 136t271.5 48.5q144 0 270 -51t213.5 -137t138 -202t50.5 -245q0 -191 -97.5 -300t-242.5 -109q-124 0 -186 81l-52 -28q-84 -51 -174 -51q-106 0 -176.5 64.5t-70.5 162.5q0 89 64.5 137.5t180.5 48.5h4q94 0 172 -16v53 q0 52 -25.5 74t-80.5 22q-52 0 -147 -30l-70 -23l-55 94q145 111 286 111q122 0 197 -72q74 -77 74 -196v-195q0 -47 20 -70q20 -20 60 -20q69 0 113 61.5t44 194.5q0 204 -142 338.5t-370 134.5q-111 0 -208 -35t-169.5 -99t-114.5 -163.5t-42 -220.5q0 -255 153 -401 t398 -146q92 0 201.5 24t207.5 68l123 56l64 -109q-109 -88 -275 -147.5t-340 -59.5q-159 0 -295 55t-229 149.5t-145 223.5t-52 275zM666 385q0 -38 26.5 -63t77.5 -25q66 0 141 33q7 3 9 5.5t0 8.5q-5 30 -5 59v29q0 12 -12 12h-186q-51 0 -51 -59z" />
<glyph unicode="A" horiz-adv-x="1429" d="M33 0l528 1358h246q17 0 24 -5t13 -20l555 -1333h-236q-15 0 -22 5t-13 20l-108 270h-623l-102 -270q-6 -16 -12 -20.5t-23 -4.5h-227zM471 496h469l-111 278q-109 267 -133 340q-30 -94 -121 -336z" />
<glyph unicode="B" horiz-adv-x="1318" d="M147 0v1358h547q120 0 208.5 -22.5t150.5 -80.5q96 -89 96 -231q0 -80 -31.5 -146t-95.5 -145v-2q97 -46 156 -135t59 -205q0 -179 -119 -285q-121 -106 -344 -106h-627zM393 209h344q77 0 123 11.5t76 41.5q49 49 49 139q0 131 -88 168q-39 15 -113 15h-391v-375z M393 784h395q50 0 74 39q41 62 41 154q0 86 -49 129q-51 43 -176 43h-285v-365z" />
<glyph unicode="C" horiz-adv-x="1380" d="M80 680q0 127 34 238.5t95 194.5t142 143.5t177.5 91t200.5 30.5q210 0 357 -104.5t217 -296.5l-166 -103l-146 142q-69 66 -131.5 95.5t-146.5 29.5q-163 0 -270 -118t-107 -345q0 -214 106 -337.5t312 -123.5q141 0 290 76l197 100l96 -127q-109 -129 -273 -207.5 t-335 -78.5h-4q-141 0 -262 53t-204.5 145.5t-131 222t-47.5 279.5z" />
<glyph unicode="D" horiz-adv-x="1456" d="M147 0v1358h422q417 0 613 -176q192 -173 192 -502q0 -331 -192 -504q-102 -92 -252.5 -134t-358.5 -42h-424zM393 215h162q161 0 265.5 24t172.5 83q127 112 127 358q0 244 -127 356q-68 59 -172.5 83t-265.5 24h-162v-928z" />
<glyph unicode="E" horiz-adv-x="1236" d="M147 0v1358h947v-209h-701v-348h627v-207h-627v-385h723v-209h-969z" />
<glyph unicode="F" horiz-adv-x="1155" d="M147 0v1358h926v-209h-680v-348h602v-207h-602v-594h-246z" />
<glyph unicode="G" horiz-adv-x="1505" d="M80 680q0 157 54.5 290.5t146 221.5t211.5 137t251 49q199 0 349 -91t231 -265l-160 -109l-147 119q-75 61 -139 86t-150 25q-174 0 -282.5 -123.5t-108.5 -341.5q0 -216 109 -339.5t305 -123.5q190 0 362 78q19 8 23 17t4 32v172h-242v195h442q13 0 18.5 -1t11 -7 t5.5 -19v-682h-182l-35 127l-108 -59q-160 -88 -328 -88q-284 0 -462.5 196.5t-178.5 503.5z" />
<glyph unicode="H" horiz-adv-x="1468" d="M147 0v1358h246v-549h682v549h246v-1358h-246v592h-682v-592h-246z" />
<glyph unicode="I" horiz-adv-x="552" d="M154 0v1358h245v-1358h-245z" />
<glyph unicode="J" horiz-adv-x="1036" d="M55 109l58 149l100 -25q139 -34 242 -34q106 0 151 51q43 51 43 162v946h246v-936q0 -215 -111 -326q-116 -116 -301 -116q-107 0 -224.5 35.5t-203.5 93.5z" />
<glyph unicode="K" horiz-adv-x="1339" d="M147 0v1358h246v-610l737 624l136 -149l-516 -428l569 -795h-256q-28 0 -45 23l-445 626q-87 -80 -180 -131v-518h-246z" />
<glyph unicode="L" horiz-adv-x="1138" d="M147 0v1358h246v-1149h672v-209h-918z" />
<glyph unicode="M" horiz-adv-x="1728" d="M147 0v1358h185q18 0 26 -5t21 -22l481 -594h12l471 594q13 16 21.5 21.5t26.5 5.5h190v-1358h-235v967h-5l-383 -484h-155q-25 0 -43 21l-375 463h-4v-967h-234z" />
<glyph unicode="N" horiz-adv-x="1503" d="M147 0v1358h177q18 0 26.5 -4t20.5 -19l526 -657q151 -187 225 -299h2v979h232v-1358h-176q-27 0 -47 23l-527 657q-176 225 -225 299h-2v-979h-232z" />
<glyph unicode="O" horiz-adv-x="1513" d="M80 680q0 157 56 290t149.5 221t215 137.5t253.5 49.5h6q132 0 253.5 -49.5t215 -137.5t149.5 -221t56 -290t-56 -290t-149.5 -222t-215.5 -138.5t-253 -49.5h-6q-131 0 -253 49.5t-215.5 138.5t-149.5 222t-56 290zM336 680q0 -213 112.5 -338t305.5 -125h6 q194 0 306 124t112 339q0 214 -112 337.5t-306 123.5h-6q-194 0 -306 -123t-112 -338z" />
<glyph unicode="P" horiz-adv-x="1302" d="M147 0v1358h512q159 0 266 -32.5t177 -104.5q112 -115 112 -316q0 -223 -137 -348q-62 -55 -141 -83t-195 -28h-348v-446h-246zM393 653h410q39 0 59.5 10t40.5 35q27 33 43.5 89.5t16.5 115.5q0 124 -66 187q-60 57 -217 57h-287v-494z" />
<glyph unicode="Q" horiz-adv-x="1513" d="M80 680q0 157 56 290t149.5 221t215 137.5t253.5 49.5h6q132 0 253.5 -49.5t215 -137.5t149.5 -221t56 -290q0 -204 -90 -361t-242 -247l203 -348l-236 -89l-180 357q-65 -12 -129 -12h-6q-131 0 -253 49.5t-215.5 138.5t-149.5 222t-56 290zM336 680q0 -213 112.5 -338 t305.5 -125h6q194 0 306 124t112 339q0 214 -112 337.5t-306 123.5h-6q-194 0 -306 -123t-112 -338z" />
<glyph unicode="R" horiz-adv-x="1349" d="M147 0v1358h510q161 0 267 -29.5t180 -101.5q115 -115 115 -307q0 -129 -61.5 -231.5t-166.5 -168.5l309 -520h-241q-18 0 -27 5.5t-18 21.5l-244 419q-10 19 -18.5 23t-32.5 4h-326v-473h-246zM393 680h410q40 0 62 8.5t40 32.5q62 83 62 199q0 111 -64 172 q-36 33 -88.5 44t-140.5 11h-281v-467z" />
<glyph unicode="S" horiz-adv-x="1183" d="M72 111l57 151l113 -24q218 -48 350 -48q134 0 205 52.5t71 152.5q0 76 -48.5 116.5t-176.5 78.5l-149 45q-200 61 -297 150t-97 231q0 170 138.5 266t361.5 96q215 0 438 -84l-37 -159l-90 10q-187 22 -295 22q-147 0 -219.5 -34.5t-72.5 -112.5q0 -61 53.5 -99 t169.5 -73l119 -35q84 -25 144 -49t117 -59t92 -76.5t56 -100t21 -131.5q0 -185 -130.5 -301t-373.5 -116q-130 0 -276 37.5t-244 93.5z" />
<glyph unicode="T" horiz-adv-x="1224" d="M37 1149v209h1151v-209h-453v-1149h-246v1149h-452z" />
<glyph unicode="U" horiz-adv-x="1439" d="M135 555v803h246v-776q0 -116 15.5 -179t62.5 -108q38 -38 113.5 -61t150.5 -23t150.5 23t113.5 61q47 45 62.5 108t15.5 179v776h240v-803q0 -141 -33 -238t-103 -170q-77 -81 -195 -124t-255 -43q-136 0 -254 43t-195 124q-70 73 -102.5 170t-32.5 238z" />
<glyph unicode="V" horiz-adv-x="1372" d="M29 1358h237q20 0 27 -19l242 -628q75 -198 159 -494h4q105 355 152 483l233 639q7 19 27 19h233l-503 -1358h-260q-29 0 -41 29z" />
<glyph unicode="W" horiz-adv-x="2070" d="M27 1358h231q24 0 29 -19l182 -577q68 -223 141 -510h2q49 260 123 508l178 598h213q22 0 27 -19l182 -581q81 -257 140 -506h2q46 224 131 504l188 583q5 19 27 19h221l-432 -1358h-252q-32 0 -41 29l-150 471q-107 335 -141 501h-2q-16 -109 -131 -499l-147 -502h-254 q-32 0 -41 29z" />
<glyph unicode="X" horiz-adv-x="1347" d="M12 0l500 707l-492 651h254q29 0 43 -19l347 -465l331 465q14 19 39 19h236l-463 -649l530 -709h-258q-25 0 -39 18l-383 523l-366 -523q-13 -18 -41 -18h-238z" />
<glyph unicode="Y" horiz-adv-x="1333" d="M8 1358h246q22 0 33 -19l198 -346q104 -183 185 -352h4q52 111 188 354l197 344q11 19 33 19h233l-532 -916v-442h-246v442z" />
<glyph unicode="Z" horiz-adv-x="1236" d="M100 1149v209h1024v-133q0 -29 -24 -66l-473 -645q-173 -238 -226 -305h732v-209h-1022v131q0 29 24 68l473 645q123 169 230 305h-738z" />
<glyph unicode="[" horiz-adv-x="694" d="M154 -469v1827h497v-209h-270v-1409h270v-209h-497z" />
<glyph unicode="\" horiz-adv-x="952" d="M12 1358h242l686 -1358h-242z" />
<glyph unicode="]" horiz-adv-x="694" d="M43 -260h270v1409h-270v209h498v-1827h-498v209z" />
<glyph unicode="^" horiz-adv-x="1122" d="M127 920l350 458h168l350 -458l-166 -113l-266 344h-4l-266 -344z" />
<glyph unicode="_" horiz-adv-x="1028" d="M43 -100h942v-191h-942v191z" />
<glyph unicode="`" horiz-adv-x="839" d="M154 1348l96 141q20 33 55 8l379 -283l-80 -108z" />
<glyph unicode="a" horiz-adv-x="1116" d="M70 322q0 129 92.5 203.5t259.5 74.5h14q142 0 287 -29v78q0 76 -37 113q-45 45 -147 45q-108 0 -242 -43l-102 -33l-70 127q97 73 209 115.5t221 42.5q206 0 313 -119q86 -96 86 -256v-455l131 -24v-125q-34 -17 -84 -29t-88 -12q-95 0 -165 90l-50 -27 q-139 -75 -266 -75q-157 0 -259.5 98.5t-102.5 239.5zM295 330q0 -66 46 -107t132 -41q113 0 225 47q16 7 20.5 14t4.5 19v141q0 12 -5 16.5t-22 4.5h-311q-48 0 -70 -25q-20 -23 -20 -69z" />
<glyph unicode="b" horiz-adv-x="1169" d="M127 0v1452h231v-534l72 36q121 62 227 62q192 0 318.5 -144t126.5 -372q0 -233 -123 -374.5t-320 -141.5q-106 0 -239 65l-84 41l-35 -90h-174zM358 285q0 -23 23 -33q46 -23 108.5 -38t114.5 -15h4q127 0 185 61q71 74 71 240q0 161 -71 235q-59 62 -187 62h-4 q-114 0 -221 -56q-14 -8 -18.5 -14t-4.5 -18v-424z" />
<glyph unicode="c" horiz-adv-x="1048" d="M66 504q0 225 138 368.5t341 143.5q158 0 279.5 -91.5t160.5 -232.5l-147 -76l-90 78q-54 47 -80 67t-63.5 36t-76.5 16q-100 0 -162.5 -79t-62.5 -226q0 -163 68 -240.5t211 -77.5q85 0 231 60l113 49l75 -125q-91 -83 -212.5 -136.5t-231.5 -53.5h-4q-223 0 -355 143 t-132 377z" />
<glyph unicode="d" horiz-adv-x="1173" d="M68 498q0 220 128 369t324 149q111 0 240 -66l55 -28v530h232v-1452h-175l-34 92l-72 -39q-131 -69 -240 -69q-203 0 -330.5 142t-127.5 372zM305 498q0 -150 62 -223.5t200 -73.5h4q49 0 114 15.5t108 37.5q14 7 18 14t4 21v426q0 26 -22 35q-122 49 -222 49h-4 q-262 0 -262 -301z" />
<glyph unicode="e" horiz-adv-x="1105" d="M66 500q0 152 66.5 271t177 182t243.5 63h4q208 0 343.5 -138.5t135.5 -340.5q0 -51 -8 -84q-4 -16 -12 -20.5t-25 -4.5h-688q9 -111 80 -175.5t205 -64.5q100 0 233 52l115 45l76 -129q-93 -79 -210 -125.5t-233 -46.5h-6q-149 0 -263 69t-174 185.5t-60 261.5zM305 596 h498q-8 96 -70.5 156.5t-175.5 60.5h-2q-114 0 -177.5 -60t-72.5 -157z" />
<glyph unicode="f" horiz-adv-x="751" d="M6 819v144l174 32q-20 70 -20 154q0 137 95 228t253 91q81 0 171 -27.5t165 -74.5l-53 -139l-99 20q-97 19 -145 19q-156 0 -156 -133q0 -30 6.5 -73t12.5 -61h346v-180h-340v-819h-232v819h-178z" />
<glyph unicode="g" horiz-adv-x="1124" d="M35 -170q0 124 127 199q-39 53 -39 92q0 58 65 135l60 68q-148 115 -148 299q0 115 60.5 206t159 139t215.5 48q152 0 270 -82q108 94 194 94q59 0 117 -45v-127l-184 -25q-22 -3 -8 -28q45 -82 45 -180q0 -115 -60 -206t-158.5 -139.5t-215.5 -48.5q-59 0 -125 17 q-15 4 -22 1.5t-13 -14.5l-19 -36q-5 -13 -5 -22q0 -25 36 -25h279q200 0 286 -80q82 -79 82 -207q0 -108 -66 -192t-181 -128.5t-259 -44.5q-221 0 -357 94.5t-136 237.5zM250 -141q0 -78 70.5 -121t207.5 -43h4q131 0 208 40.5t77 123.5q0 39 -22 61q-33 29 -113 29h-360 q-32 0 -50 -21q-22 -25 -22 -69zM319 623q0 -97 57 -149t159 -52t158.5 52t56.5 149t-56.5 148.5t-158.5 51.5t-159 -51.5t-57 -148.5z" />
<glyph unicode="h" horiz-adv-x="1146" d="M127 0v1452h231v-524l60 30q113 58 215 58h2q93 0 172 -30.5t131 -84.5q96 -99 96 -262v-639h-231v623q0 96 -45 133q-47 41 -158 41h-4q-137 0 -217 -39q-21 -9 -21 -35v-723h-231z" />
<glyph unicode="i" horiz-adv-x="493" d="M131 0v999h231v-999h-231zM131 1174v233h188q24 0 33.5 -9t9.5 -30v-194h-231z" />
<glyph unicode="j" horiz-adv-x="487" d="M-115 -324l115 23q80 17 102.5 44.5t22.5 94.5v1161h231v-1120q0 -187 -80 -272q-81 -84 -229 -84q-90 0 -162 26v127zM125 1174v233h188q24 0 33.5 -9t9.5 -30v-194h-231z" />
<glyph unicode="k" horiz-adv-x="1101" d="M127 0v1452h231v-868l541 442l129 -149l-330 -269l396 -608h-234q-18 0 -27 4.5t-18 18.5l-287 456q-84 -63 -170 -108v-371h-231z" />
<glyph unicode="l" horiz-adv-x="550" d="M131 209v1243h231v-1262l170 -30v-123q-36 -15 -95.5 -28t-98.5 -13q-92 0 -148 53q-59 56 -59 160z" />
<glyph unicode="m" horiz-adv-x="1777" d="M127 0v999h174l33 -84l61 33q127 68 240 68q172 0 295 -129l108 57q138 72 250 72q171 0 283 -115q94 -97 94 -262v-639h-231v623q0 98 -43 133q-47 41 -150 41h-4q-117 0 -205 -43q-20 -9 -20 -35v-719h-232v623q0 98 -43 133q-47 41 -149 41h-4q-125 0 -205 -39 q-21 -9 -21 -35v-723h-231z" />
<glyph unicode="n" horiz-adv-x="1146" d="M127 0v999h174l33 -84l59 33q127 68 240 68h2q93 0 172 -30.5t131 -84.5q96 -99 96 -262v-639h-231v623q0 96 -45 133q-47 41 -158 41h-4q-137 0 -217 -39q-21 -9 -21 -35v-723h-231z" />
<glyph unicode="o" horiz-adv-x="1138" d="M66 500q0 123 41.5 222.5t111.5 162.5t159 97t187 34h8q98 0 187 -34t159.5 -97t112 -162.5t41.5 -222.5t-41.5 -222.5t-112 -162.5t-159.5 -97t-187 -34h-8q-98 0 -187 34t-159 97t-111.5 162.5t-41.5 222.5zM303 500q0 -143 64 -221t198 -78h8q134 0 198.5 78t64.5 221 t-64.5 221t-198.5 78h-8q-134 0 -198 -78t-64 -221z" />
<glyph unicode="p" horiz-adv-x="1169" d="M127 -469v1468h174l35 -90l47 27q143 80 274 80q192 0 318.5 -144t126.5 -372q0 -233 -123 -374.5t-320 -141.5q-120 0 -239 61l-62 31v-545h-231zM358 279q0 -23 23 -33q92 -47 223 -47h4q127 0 185 61q71 74 71 240q0 163 -71 237q-59 62 -187 62h-4q-121 0 -221 -49 q-23 -10 -23 -33v-438z" />
<glyph unicode="q" horiz-adv-x="1173" d="M68 498q0 220 128 369t324 149q111 0 240 -66l78 -41l34 90h175v-1468h-232v547l-49 -27q-127 -67 -240 -67q-203 0 -330.5 142t-127.5 372zM305 498q0 -150 62 -223.5t200 -73.5h4q49 0 114 15.5t108 37.5q14 7 18 14t4 21v426q0 26 -22 35q-122 49 -222 49h-4 q-262 0 -262 -301z" />
<glyph unicode="r" horiz-adv-x="770" d="M127 0v999h172l41 -114q194 131 295 131q52 0 123 -29v-156q-206 -33 -377 -90q-23 -8 -23 -32v-709h-231z" />
<glyph unicode="s" horiz-adv-x="960" d="M68 88l49 141l88 -16q191 -35 276 -35q90 0 141.5 30t51.5 87q0 41 -35 66.5t-127 50.5l-123 32q-156 41 -232.5 110.5t-76.5 182.5q0 131 112 205t297 74q184 0 361 -72l-37 -151l-100 12q-138 16 -228 16q-105 0 -149.5 -19.5t-44.5 -62.5q0 -35 33 -55.5t110 -42.5 l129 -35q172 -45 249 -112t77 -193q0 -146 -105 -231.5t-288 -85.5q-109 0 -225.5 29t-202.5 75z" />
<glyph unicode="t" horiz-adv-x="847" d="M-4 819v144l178 34v291h232v-289h339v-180h-339v-510q0 -59 24 -86q30 -33 96 -33q38 0 142 23l92 23l55 -130q-70 -53 -161.5 -87.5t-168.5 -34.5q-143 0 -225 79q-86 80 -86 250v506h-178z" />
<glyph unicode="u" horiz-adv-x="1142" d="M113 360v639h231v-622q0 -96 45 -133q47 -41 158 -41h4q133 0 213 39q20 9 20 34v723h232v-999h-174l-35 82l-59 -31q-128 -67 -234 -67h-2q-94 0 -172.5 30.5t-130.5 83.5q-96 99 -96 262z" />
<glyph unicode="v" horiz-adv-x="1058" d="M4 999h219q17 0 22.5 -3.5t12.5 -20.5l182 -438q76 -187 103 -287h2q30 118 96 287l168 438q6 15 12 19.5t23 4.5h211l-402 -999h-200q-25 0 -37 23z" />
<glyph unicode="w" horiz-adv-x="1619" d="M4 999h211q17 0 23 -3.5t12 -18.5l139 -404q49 -141 94 -313h2q24 110 86 313l127 426h201q17 0 23.5 -5t11.5 -19l127 -406q25 -78 58 -193t34 -118h2q58 216 90 311l137 406q4 15 11 19.5t24 4.5h199l-344 -999h-223q-28 0 -37 23l-109 346q-53 169 -92 317h-2 q-32 -133 -88 -317l-111 -369h-225q-28 0 -37 23z" />
<glyph unicode="x" horiz-adv-x="1056" d="M10 0l363 518l-357 481h244q17 0 23.5 -3t17.5 -17l223 -313l213 313q15 20 39 20h223l-335 -491l380 -508h-243q-24 0 -39 20l-254 345l-227 -345q-13 -20 -39 -20h-232z" />
<glyph unicode="y" horiz-adv-x="1062" d="M6 999h219q17 0 22.5 -3.5t12.5 -20.5l168 -404q85 -204 117 -321h2q26 108 104 309l160 416q6 15 13 19.5t22 4.5h211l-586 -1472l-219 45l180 420z" />
<glyph unicode="z" horiz-adv-x="970" d="M74 0v96q0 32 24 68l332 434q99 131 178 221h-520v180h807v-96q0 -30 -25 -67l-331 -435q-93 -124 -172 -217h544v-184h-837z" />
<glyph unicode="{" horiz-adv-x="749" d="M82 365v159q114 30 164.5 73.5t50.5 117.5q0 62 -24.5 206.5t-24.5 204.5q0 121 77 186.5t205 65.5q75 0 199 -30v-138l-211 -41q-24 -5 -34.5 -16.5t-10.5 -36.5q0 -28 24.5 -179.5t24.5 -219.5q0 -98 -51 -162t-186 -111q135 -47 186 -110.5t51 -161.5 q0 -68 -24.5 -219.5t-24.5 -179.5q0 -26 10.5 -37.5t34.5 -16.5l211 -41v-137q-124 -30 -199 -30q-128 0 -205 65t-77 186q0 60 24.5 205t24.5 207q0 74 -50.5 117.5t-164.5 73.5z" />
<glyph unicode="|" horiz-adv-x="540" d="M162 -469v1921h217v-1921h-217z" />
<glyph unicode="}" horiz-adv-x="749" d="M20 -322l211 41q24 5 34.5 16.5t10.5 37.5q0 28 -24.5 179.5t-24.5 219.5q0 98 51.5 161.5t186.5 110.5q-135 47 -186.5 111t-51.5 162q0 68 24.5 219.5t24.5 179.5q0 25 -10.5 36.5t-34.5 16.5l-211 41v138q124 30 199 30q128 0 205.5 -65.5t77.5 -186.5 q0 -60 -24.5 -204.5t-24.5 -206.5q0 -74 50.5 -117.5t164.5 -73.5v-159q-114 -30 -164.5 -73.5t-50.5 -117.5q0 -62 24.5 -207t24.5 -205q0 -121 -77.5 -186t-205.5 -65q-75 0 -199 30v137z" />
<glyph unicode="~" horiz-adv-x="1122" d="M123 612q19 105 99 177.5t181 72.5q67 0 174 -46t148 -46q46 0 77.5 23t63.5 75l133 -47q-19 -105 -99 -177.5t-181 -72.5q-53 0 -114.5 23.5t-116 46.5t-91.5 23q-46 0 -77.5 -23t-63.5 -76z" />
<glyph unicode="&#xa1;" horiz-adv-x="552" d="M131 803v196h248v-235h-207q-24 0 -32.5 9t-8.5 30zM135 117v-475h240v475q0 79 -10 176l-31 332h-158l-31 -332q-10 -98 -10 -176z" />
<glyph unicode="&#xa2;" d="M184 504q0 213 128 356.5t317 157.5l20 246h99v-250q128 -23 223.5 -109.5t136.5 -208.5l-147 -75l-78 77q-84 81 -135 101v-606q71 8 188 55l113 47l75 -127q-76 -70 -177 -119.5t-199 -62.5l-21 -224h-98v220q-204 15 -324.5 158t-120.5 364zM422 508q0 -275 207 -311 v614q-92 -11 -149.5 -90t-57.5 -213z" />
<glyph unicode="&#xa3;" d="M115 588v131l147 26q-37 141 -37 216q0 184 129 300.5t330 116.5q88 0 167 -26t139 -70.5t104.5 -98t76.5 -114.5l-143 -96l-121 94q-63 50 -114 72t-113 22q-101 0 -162 -52t-61 -148q0 -67 35 -203h399v-170h-352q34 -119 34 -168q0 -100 -104 -197l-25 -22h730v-201 h-988v125q0 24 5.5 37.5t23.5 36.5l55 67q41 52 55.5 83.5t14.5 64.5t-37 174h-188z" />
<glyph unicode="&#xa4;" horiz-adv-x="1306" d="M127 319l152 152q-46 85 -46 207t46 207l-152 151l152 152l145 -146q98 58 225 58h8q126 0 224 -58l147 146l152 -152l-152 -151q45 -88 45 -207t-45 -207l152 -152l-152 -151l-147 145q-96 -57 -224 -57h-8q-129 0 -225 57l-145 -145zM440 678q0 -104 53.5 -165.5 t155.5 -61.5h8q102 0 155.5 61.5t53.5 165.5t-53.5 165.5t-155.5 61.5h-8q-102 0 -155.5 -61.5t-53.5 -165.5z" />
<glyph unicode="&#xa5;" d="M37 1358h237q22 0 33 -19l189 -344q88 -160 163 -340h5q48 119 174 353l180 331q11 19 33 19h225l-432 -795h229v-149h-291v-66h291v-149h-291v-199h-245v199h-283v149h283v66h-283v149h219z" />
<glyph unicode="&#xa6;" horiz-adv-x="540" d="M162 387h217v-856h-217v856zM162 596v856h217v-856h-217z" />
<glyph unicode="&#xa7;" horiz-adv-x="1239" d="M129 473q0 166 139 281q-100 100 -100 250q0 70 26.5 131t71.5 105t104 75.5t125.5 47t135.5 15.5q206 0 403 -108l-47 -160l-94 20q-158 33 -242 33q-115 0 -180 -45.5t-65 -122.5q0 -65 46 -104.5t140 -67.5l133 -39q192 -57 287.5 -143t95.5 -227q0 -166 -139 -281 q102 -102 102 -250q0 -115 -69.5 -202.5t-173 -130t-220.5 -42.5q-205 0 -403 109l47 160l94 -21q154 -32 242 -32q116 0 181 45t65 122q0 65 -46.5 104.5t-140.5 67.5l-135 39q-191 55 -287 142.5t-96 228.5zM358 492q0 -65 49 -103.5t166 -73.5l138 -41q38 -11 96 -34 q74 77 74 155q0 65 -49 103t-166 73l-138 41q-56 16 -98 35q-72 -82 -72 -155z" />
<glyph unicode="&#xa8;" horiz-adv-x="839" d="M98 1171v228h201q23 0 31 -8t8 -29v-191h-240zM502 1171v228h200q23 0 31 -8t8 -29v-191h-239z" />
<glyph unicode="&#xa9;" horiz-adv-x="1564" d="M88 680q0 142 53.5 270.5t145 222.5t221 149.5t274.5 55.5t274.5 -55.5t221.5 -149.5t145.5 -222.5t53.5 -270.5t-53.5 -271t-145.5 -223t-221.5 -150t-274.5 -56t-274.5 56t-221 150t-145 223t-53.5 271zM276 680q0 -233 139 -378.5t367 -145.5t367 145.5t139 378.5 t-139 377.5t-367 144.5t-367 -144.5t-139 -377.5zM481 686q0 136 87.5 219.5t207.5 83.5q86 0 153.5 -49t104.5 -137l-92 -64l-68 64q-50 47 -106 47q-58 0 -95.5 -41.5t-37.5 -124.5q0 -76 37.5 -120t113.5 -44q43 0 107 31l102 51l54 -88q-49 -61 -124.5 -98t-150.5 -37 q-126 0 -209.5 87t-83.5 220z" />
<glyph unicode="&#xaa;" horiz-adv-x="995" d="M92 801q0 105 76.5 167t212.5 62h10q122 0 221 -22v63q0 68 -37 98.5t-116 30.5q-82 0 -180 -39l-84 -33l-66 115q184 135 350 135q158 0 254 -96q80 -83 80 -223v-354q15 -3 47.5 -8.5t46.5 -8.5v-110q-68 -35 -133 -35q-79 0 -135 69l-37 -18q-132 -66 -213 -66 q-131 0 -214 78t-83 195zM287 807q0 -45 35 -75t100 -30q97 0 176 39q14 7 14 23v102q0 8 -2.5 10.5t-11.5 2.5h-246q-65 0 -65 -72z" />
<glyph unicode="&#xab;" horiz-adv-x="1286" d="M92 461v104l461 363l109 -109l-318 -315v-4l318 -316l-109 -108l-442 346q-19 16 -19 39zM625 461v104l460 363l109 -109l-317 -315v-4l317 -316l-109 -108l-442 346q-18 15 -18 39z" />
<glyph unicode="&#xac;" horiz-adv-x="1126" d="M154 606v199h817v-606h-199v407h-618z" />
<glyph unicode="&#xad;" horiz-adv-x="864" d="M109 399v203h647v-203h-647z" />
<glyph unicode="&#xae;" horiz-adv-x="1564" d="M88 680q0 142 53.5 270.5t145 222.5t221 149.5t274.5 55.5t274.5 -55.5t221.5 -149.5t145.5 -222.5t53.5 -270.5t-53.5 -271t-145.5 -223t-221.5 -150t-274.5 -56t-274.5 56t-221 150t-145 223t-53.5 271zM276 680q0 -233 139 -378.5t367 -145.5t367 145.5t139 378.5 t-139 377.5t-367 144.5t-367 -144.5t-139 -377.5zM537 387v594h268q125 0 182 -57q49 -49 49 -131q0 -107 -104 -177l127 -229h-144q-19 0 -30 21l-90 172q-3 6 -11 6h-98v-199h-149zM686 705h152q21 0 30 14q19 32 19 67t-19 54q-20 20 -80 20h-102v-155z" />
<glyph unicode="&#xaf;" horiz-adv-x="839" d="M102 1200v180h635v-180h-635z" />
<glyph unicode="&#xb0;" horiz-adv-x="944" d="M113 1026q0 108 53.5 190.5t133 122t169.5 39.5h6q90 0 169.5 -39.5t133 -122t53.5 -190.5t-53.5 -190.5t-133 -122t-169.5 -39.5h-6q-90 0 -169.5 39.5t-133 122t-53.5 190.5zM301 1026q0 -83 45 -126.5t123 -43.5h6q78 0 123 43.5t45 126.5t-45 126.5t-123 43.5h-6 q-78 0 -123 -43.5t-45 -126.5z" />
<glyph unicode="&#xb1;" horiz-adv-x="1126" d="M154 0v199h819v-199h-819zM154 573v199h309v227h199v-227h311v-199h-311v-229h-199v229h-309z" />
<glyph unicode="&#xb2;" horiz-adv-x="815" d="M131 1272q58 49 128.5 77.5t135.5 28.5q108 0 177 -60.5t69 -148.5q0 -67 -34.5 -121.5t-129.5 -132.5l-100 -84h272v-143h-491v88q0 13 3.5 20.5t18.5 24.5l191 193q58 59 79 90t21 59q0 32 -22.5 49t-59.5 17q-49 0 -131 -31l-74 -29z" />
<glyph unicode="&#xb3;" horiz-adv-x="813" d="M125 791l53 94l101 -35q73 -25 120 -25q43 0 72 19.5t29 58.5q0 33 -19 49q-20 17 -75 17h-64q-18 0 -23.5 5t-5.5 17v103h140q9 0 12 2.5t8 11.5q12 24 12 55q0 34 -23 51t-59 17q-41 0 -118 -25l-84 -28l-51 100q139 100 264 100q106 0 171.5 -55.5t65.5 -138.5 q0 -77 -63 -140q36 -20 59 -57t23 -84q0 -104 -77 -165.5t-190 -61.5q-73 0 -146 31t-132 84z" />
<glyph unicode="&#xb4;" horiz-adv-x="839" d="M154 1214l378 283q36 26 56 -8l96 -141l-451 -242z" />
<glyph unicode="&#xb5;" horiz-adv-x="1165" d="M127 -469v1468h231v-626q0 -96 45 -133q47 -41 158 -41h8q129 0 217 43q21 9 21 34v723h231v-999h-174l-35 82l-59 -31q-136 -71 -238 -71h-6q-92 0 -168 28v-477h-231z" />
<glyph unicode="&#xb6;" horiz-adv-x="1157" d="M88 915v443h1061v-172h-170v-1655h-182v1655h-140v-1655h-182v1262h-250q-84 0 -110.5 26t-26.5 96z" />
<glyph unicode="&#xb7;" horiz-adv-x="475" d="M113 444v252h209q24 0 32 -9t8 -30v-213h-249z" />
<glyph unicode="&#xb8;" horiz-adv-x="839" d="M217 -139q0 57 100 157l127 -12q-47 -60 -47 -90q0 -14 23.5 -25.5t56.5 -23t66 -27t56.5 -46.5t23.5 -73q0 -97 -96.5 -155t-276.5 -58l-25 127l121 23q76 15 76 49q0 16 -32 30t-70.5 25.5t-70.5 37t-32 61.5z" />
<glyph unicode="&#xb9;" horiz-adv-x="817" d="M145 1257l230 103q23 10 45 10h100v-539h135v-143h-477v143h172v361q-34 -21 -67 -31l-88 -28z" />
<glyph unicode="&#xba;" horiz-adv-x="991" d="M80 954q0 131 60 229.5t153 146.5t203 48q81 0 155.5 -28.5t132.5 -81t92.5 -134t34.5 -180.5t-34.5 -180.5t-92.5 -134t-132.5 -81t-155.5 -28.5q-110 0 -203 48t-153 146.5t-60 229.5zM283 954q0 -106 56 -170.5t157 -64.5t157 64.5t56 170.5q0 107 -56 171.5 t-157 64.5t-157 -64.5t-56 -171.5z" />
<glyph unicode="&#xbb;" horiz-adv-x="1286" d="M92 184l318 316v4l-318 315l109 109l442 -346q19 -16 19 -39v-105l-461 -362zM625 184l317 316v4l-317 315l108 109l443 -346q18 -15 18 -39v-105l-461 -362z" />
<glyph unicode="&#xbc;" horiz-adv-x="1869" d="M184 1257l230 103q23 10 45 10h100v-539h135v-143h-477v143h172v361q-34 -21 -67 -31l-89 -28zM514 0l672 1358h211l-672 -1358h-211zM1114 154v92q0 21 3 29.5t16 25.5l280 358q12 15 20 19t29 4h140v-389h106v-139h-106v-154h-170v154h-318zM1284 293h148v190 q-10 -19 -35 -53l-76 -96q-23 -30 -37 -41z" />
<glyph unicode="&#xbd;" horiz-adv-x="1871" d="M184 1257l230 103q23 10 45 10h100v-539h135v-143h-477v143h172v361q-34 -21 -67 -31l-89 -28zM514 0l672 1358h211l-672 -1358h-211zM1165 584q58 49 129 77.5t136 28.5q108 0 176.5 -60.5t68.5 -148.5q0 -67 -34.5 -121.5t-129.5 -132.5l-100 -84h272v-143h-491v88 q0 13 3.5 20.5t18.5 24.5l191 193q58 59 79 90t21 59q0 32 -22.5 49t-59.5 17q-49 0 -131 -31l-73 -29z" />
<glyph unicode="&#xbe;" horiz-adv-x="1871" d="M193 791l53 94l100 -35q73 -25 121 -25q43 0 71.5 19.5t28.5 58.5q0 34 -18 49q-20 17 -76 17h-63q-18 0 -23.5 5t-5.5 17v103h139q14 0 21 14q12 24 12 55q0 34 -23 51t-59 17q-42 0 -119 -25l-84 -28l-51 100q139 100 264 100q106 0 172 -55.5t66 -138.5 q0 -76 -64 -140q36 -20 59 -57t23 -84q0 -104 -76.5 -165.5t-189.5 -61.5q-73 0 -146 31t-132 84zM516 0l672 1358h211l-672 -1358h-211zM1102 154h317v-154h170v154h107v139h-107v389h-139q-21 0 -29 -4t-20 -19l-281 -358q-13 -16 -15.5 -24.5t-2.5 -30.5v-92zM1272 293 q14 11 37 41l75 96q26 34 35 53v-190h-147z" />
<glyph unicode="&#xbf;" horiz-adv-x="1058" d="M104 6q0 240 304 379l98 45l45 195h160l26 -150q8 -47 8 -69q0 -37 -16.5 -58t-62.5 -47l-74 -41q-137 -75 -189.5 -124t-52.5 -126t58 -122.5t157 -45.5q115 0 266 60l119 47l80 -144q-102 -84 -233 -134t-260 -50q-188 0 -310.5 110t-122.5 275zM510 811v188h240v-227 h-199q-24 0 -32.5 9t-8.5 30z" />
<glyph unicode="&#xc0;" horiz-adv-x="1429" d="M33 0l528 1358h246q17 0 24 -5t13 -20l555 -1333h-236q-15 0 -22 5t-13 20l-108 270h-623l-102 -270q-6 -16 -12 -20.5t-23 -4.5h-227zM418 1716l96 142q20 33 55 8l379 -283l-80 -108zM471 496h469l-111 278q-109 267 -133 340q-30 -94 -121 -336z" />
<glyph unicode="&#xc1;" horiz-adv-x="1429" d="M33 0l528 1358h246q17 0 24 -5t13 -20l555 -1333h-236q-15 0 -22 5t-13 20l-108 270h-623l-102 -270q-6 -16 -12 -20.5t-23 -4.5h-227zM457 1583l379 283q35 25 55 -8l96 -142l-450 -241zM471 496h469l-111 278q-109 267 -133 340q-30 -94 -121 -336z" />
<glyph unicode="&#xc2;" horiz-adv-x="1429" d="M33 0l528 1358h246q17 0 24 -5t13 -20l555 -1333h-236q-15 0 -22 5t-13 20l-108 270h-623l-102 -270q-6 -16 -12 -20.5t-23 -4.5h-227zM342 1569l262 256q26 26 64 26h67q38 0 64 -26l262 -256l-96 -92l-260 196h-7l-260 -196zM471 496h469l-111 278q-109 267 -133 340 q-30 -94 -121 -336z" />
<glyph unicode="&#xc3;" horiz-adv-x="1429" d="M33 0l528 1358h246q17 0 24 -5t13 -20l555 -1333h-236q-15 0 -22 5t-13 20l-108 270h-623l-102 -270q-6 -16 -12 -20.5t-23 -4.5h-227zM338 1544q18 103 76.5 168.5t148.5 65.5q46 0 97 -23t95 -46t74 -23q31 0 55 22t56 76l123 -35q-18 -102 -76.5 -167.5t-148.5 -65.5 q-46 0 -97.5 23t-95.5 46t-74 23q-31 0 -54 -22t-56 -77zM471 496h469l-111 278q-109 267 -133 340q-30 -94 -121 -336z" />
<glyph unicode="&#xc4;" horiz-adv-x="1429" d="M33 0l528 1358h246q17 0 24 -5t13 -20l555 -1333h-236q-15 0 -22 5t-13 20l-108 270h-623l-102 -270q-6 -16 -12 -20.5t-23 -4.5h-227zM381 1540v227h201q23 0 31 -7.5t8 -28.5v-191h-240zM471 496h469l-111 278q-109 267 -133 340q-30 -94 -121 -336zM784 1540v227h201 q23 0 31 -7.5t8 -28.5v-191h-240z" />
<glyph unicode="&#xc5;" horiz-adv-x="1429" d="M33 0l522 1341q-109 69 -109 207q0 111 73.5 179.5t182.5 68.5t182.5 -68.5t73.5 -179.5q0 -72 -31 -128t-85 -79l557 -1341h-236q-15 0 -22 5t-13 20l-108 270h-625l-100 -270q-6 -16 -12 -20.5t-23 -4.5h-227zM471 496h469l-111 278q-109 267 -133 340 q-30 -94 -121 -336zM588 1548q0 -108 114 -108q115 0 115 108q0 51 -28.5 80t-86.5 29q-114 0 -114 -109z" />
<glyph unicode="&#xc6;" horiz-adv-x="2025" d="M-6 0l862 1358h1026v-209h-700v-348h626v-207h-626v-385h723v-209h-969v295h-477l-170 -270q-10 -15 -18.5 -20t-28.5 -5h-248zM584 496h352v604q-128 -240 -266 -465z" />
<glyph unicode="&#xc7;" horiz-adv-x="1380" d="M80 680q0 127 34 238.5t95 194.5t142 143.5t177.5 91t200.5 30.5q210 0 357 -104.5t217 -296.5l-166 -103l-146 142q-69 66 -131.5 95.5t-146.5 29.5q-76 0 -142.5 -28t-119.5 -83t-84 -145.5t-31 -206.5q0 -207 107.5 -334t310.5 -127q141 0 290 76l197 100l96 -127 q-102 -123 -254.5 -200t-314.5 -84q-29 -45 -29 -66q0 -14 23.5 -25.5t56.5 -23t66 -27t56.5 -46.5t23.5 -73q0 -97 -96.5 -155t-276.5 -58l-25 127l121 23q76 15 76 49q0 16 -32 30t-70.5 25.5t-70.5 37t-32 61.5q0 48 70 125q-248 35 -398.5 226t-150.5 468z" />
<glyph unicode="&#xc8;" horiz-adv-x="1236" d="M147 0h969v209h-723v385h627v207h-627v348h701v209h-947v-1358zM385 1716l96 142q20 34 56 8l378 -283l-79 -108z" />
<glyph unicode="&#xc9;" horiz-adv-x="1236" d="M147 0h969v209h-723v385h627v207h-627v348h701v209h-947v-1358zM385 1583l379 283q35 25 55 -8l96 -142l-450 -241z" />
<glyph unicode="&#xca;" horiz-adv-x="1236" d="M147 0h969v209h-723v385h627v207h-627v348h701v209h-947v-1358zM266 1569l262 256q26 26 64 26h67q38 0 64 -26l262 -256l-96 -92l-260 196h-6l-261 -196z" />
<glyph unicode="&#xcb;" horiz-adv-x="1236" d="M147 0h969v209h-723v385h627v207h-627v348h701v209h-947v-1358zM305 1540v227h201q23 0 31 -7.5t8 -28.5v-191h-240zM709 1540v227h200q23 0 31 -7.5t8 -28.5v-191h-239z" />
<glyph unicode="&#xcc;" horiz-adv-x="552" d="M-12 1716l96 142q20 33 55 8l379 -283l-80 -108zM154 0h245v1358h-245v-1358z" />
<glyph unicode="&#xcd;" horiz-adv-x="552" d="M25 1583l378 283q36 26 56 -8l96 -142l-451 -241zM154 0h245v1358h-245v-1358z" />
<glyph unicode="&#xce;" horiz-adv-x="552" d="M-82 1569l262 256q26 26 64 26h67q38 0 64 -26l262 -256l-96 -92l-260 196h-7l-260 -196zM154 0h245v1358h-245v-1358z" />
<glyph unicode="&#xcf;" horiz-adv-x="552" d="M-45 1540v227h201q23 0 31 -7.5t8 -28.5v-191h-240zM154 0h245v1358h-245v-1358zM358 1540v227h201q23 0 31 -7.5t8 -28.5v-191h-240z" />
<glyph unicode="&#xd0;" horiz-adv-x="1505" d="M16 600v188h181v570h421q417 0 613 -176q192 -173 192 -502q0 -331 -192 -504q-102 -92 -252 -134t-358 -42h-424v600h-181zM442 215h162q161 0 265.5 24t172.5 83q127 112 127 358q0 244 -127 356q-68 59 -172.5 83t-265.5 24h-162v-355h283v-188h-283v-385z" />
<glyph unicode="&#xd1;" horiz-adv-x="1503" d="M16 0v1358h177q18 0 26.5 -4t20.5 -19l526 -657q151 -187 225 -299h2v979h232v-1358h-176q-28 0 -48 23l-526 657q-176 225 -225 299h-2v-979h-232zM395 1544q18 102 77 168t149 66q46 0 97 -23t95 -46t74 -23q31 0 54 22t56 76l123 -35q-18 -102 -76.5 -167.5 t-148.5 -65.5q-46 0 -97 23t-95 46t-74 23q-31 0 -54.5 -22.5t-56.5 -76.5z" />
<glyph unicode="&#xd2;" horiz-adv-x="1513" d="M80 680q0 157 56 290t149.5 221t215 137.5t253.5 49.5h6q132 0 253.5 -49.5t215 -137.5t149.5 -221t56 -290t-56 -290t-149.5 -222t-215.5 -138.5t-253 -49.5h-6q-131 0 -253 49.5t-215.5 138.5t-149.5 222t-56 290zM336 680q0 -213 112.5 -338t305.5 -125h6 q194 0 306 124t112 339q0 214 -112 337.5t-306 123.5h-6q-194 0 -306 -123t-112 -338zM494 1716l96 142q20 33 55 8l379 -283l-80 -108z" />
<glyph unicode="&#xd3;" horiz-adv-x="1513" d="M80 680q0 157 56 290t149.5 221t215 137.5t253.5 49.5h6q132 0 253.5 -49.5t215 -137.5t149.5 -221t56 -290t-56 -290t-149.5 -222t-215.5 -138.5t-253 -49.5h-6q-131 0 -253 49.5t-215.5 138.5t-149.5 222t-56 290zM336 680q0 -213 112.5 -338t305.5 -125h6 q194 0 306 124t112 339q0 214 -112 337.5t-306 123.5h-6q-194 0 -306 -123t-112 -338zM510 1583l379 283q35 25 55 -8l96 -142l-450 -241z" />
<glyph unicode="&#xd4;" horiz-adv-x="1513" d="M80 680q0 157 56 290t149.5 221t215 137.5t253.5 49.5h6q132 0 253.5 -49.5t215 -137.5t149.5 -221t56 -290t-56 -290t-149.5 -222t-215.5 -138.5t-253 -49.5h-6q-131 0 -253 49.5t-215.5 138.5t-149.5 222t-56 290zM336 680q0 -213 112.5 -338t305.5 -125h6 q194 0 306 124t112 339q0 214 -112 337.5t-306 123.5h-6q-194 0 -306 -123t-112 -338zM397 1569l262 256q26 26 64 26h68q23 0 35.5 -5.5t27.5 -20.5l262 -256l-96 -92l-260 196h-6l-260 -196z" />
<glyph unicode="&#xd5;" horiz-adv-x="1513" d="M80 680q0 157 56 290t149.5 221t215 137.5t253.5 49.5h6q132 0 253.5 -49.5t215 -137.5t149.5 -221t56 -290t-56 -290t-149.5 -222t-215.5 -138.5t-253 -49.5h-6q-131 0 -253 49.5t-215.5 138.5t-149.5 222t-56 290zM336 680q0 -213 112.5 -338t305.5 -125h6 q194 0 306 124t112 339q0 214 -112 337.5t-306 123.5h-6q-194 0 -306 -123t-112 -338zM393 1544q18 103 76.5 168.5t148.5 65.5q46 0 97.5 -23t95.5 -46t74 -23q31 0 54 22t56 76l123 -35q-18 -102 -76.5 -167.5t-148.5 -65.5q-46 0 -97 23t-95 46t-74 23q-31 0 -54.5 -22.5 t-56.5 -76.5z" />
<glyph unicode="&#xd6;" horiz-adv-x="1513" d="M80 680q0 157 56 290t149.5 221t215 137.5t253.5 49.5h6q132 0 253.5 -49.5t215 -137.5t149.5 -221t56 -290t-56 -290t-149.5 -222t-215.5 -138.5t-253 -49.5h-6q-131 0 -253 49.5t-215.5 138.5t-149.5 222t-56 290zM336 680q0 -213 112.5 -338t305.5 -125h6 q194 0 306 124t112 339q0 214 -112 337.5t-306 123.5h-6q-194 0 -306 -123t-112 -338zM434 1540v227h201q23 0 31 -7.5t8 -28.5v-191h-240zM838 1540v227h200q23 0 31 -7.5t8 -28.5v-191h-239z" />
<glyph unicode="&#xd7;" horiz-adv-x="1126" d="M203 283l219 219l-219 219l141 139l217 -217l221 219l140 -141l-220 -219l220 -219l-140 -142l-221 219l-217 -217z" />
<glyph unicode="&#xd8;" horiz-adv-x="1513" d="M80 680q0 157 56 290t149.5 221t215 137.5t253.5 49.5h6q177 0 327 -84l130 168l143 -98l-133 -174q97 -94 152 -224t55 -286q0 -157 -56 -290t-149.5 -222t-215.5 -138.5t-253 -49.5h-6q-204 0 -367 108l-139 -182l-144 98l150 197q-174 195 -174 479zM336 680 q0 -161 70 -281l538 707q-78 35 -184 35h-6q-194 0 -306 -123t-112 -338zM528 276q89 -59 226 -59h6q194 0 306 124t112 339q0 195 -97 319z" />
<glyph unicode="&#xd9;" horiz-adv-x="1439" d="M135 555q0 -141 32.5 -238t102.5 -170q77 -81 195 -124t254 -43q137 0 255 43t195 124q70 73 103 170t33 238v803h-240v-776q0 -116 -15.5 -179t-62.5 -108q-38 -38 -113.5 -61t-150.5 -23t-150.5 23t-113.5 61q-47 45 -62.5 108t-15.5 179v776h-246v-803zM414 1716 l96 142q20 33 55 8l379 -283l-80 -108z" />
<glyph unicode="&#xda;" horiz-adv-x="1439" d="M135 555q0 -141 32.5 -238t102.5 -170q77 -81 195 -124t254 -43q137 0 255 43t195 124q70 73 103 170t33 238v803h-240v-776q0 -116 -15.5 -179t-62.5 -108q-38 -38 -113.5 -61t-150.5 -23t-150.5 23t-113.5 61q-47 45 -62.5 108t-15.5 179v776h-246v-803zM532 1583 l379 283q36 26 56 -8l96 -142l-451 -241z" />
<glyph unicode="&#xdb;" horiz-adv-x="1439" d="M135 555q0 -141 32.5 -238t102.5 -170q77 -81 195 -124t254 -43q137 0 255 43t195 124q70 73 103 170t33 238v803h-240v-776q0 -116 -15.5 -179t-62.5 -108q-38 -38 -113.5 -61t-150.5 -23t-150.5 23t-113.5 61q-47 45 -62.5 108t-15.5 179v776h-246v-803zM365 1569 l262 256q15 15 27.5 20.5t35.5 5.5h68q23 0 35.5 -5.5t27.5 -20.5l262 -256l-96 -92l-260 196h-6l-260 -196z" />
<glyph unicode="&#xdc;" horiz-adv-x="1439" d="M135 555q0 -141 32.5 -238t102.5 -170q77 -81 195 -124t254 -43q137 0 255 43t195 124q70 73 103 170t33 238v803h-240v-776q0 -116 -15.5 -179t-62.5 -108q-38 -38 -113.5 -61t-150.5 -23t-150.5 23t-113.5 61q-47 45 -62.5 108t-15.5 179v776h-246v-803zM397 1540v227 h201q23 0 31 -7.5t8 -28.5v-191h-240zM801 1540v227h200q23 0 31 -7.5t8 -28.5v-191h-239z" />
<glyph unicode="&#xdd;" horiz-adv-x="1333" d="M8 1358h246q22 0 33 -19l198 -346q104 -183 185 -352h4q52 111 188 354l197 344q11 19 33 19h233l-532 -916v-442h-246v442zM479 1583l379 283q35 25 55 -8l97 -142l-451 -241z" />
<glyph unicode="&#xde;" horiz-adv-x="1294" d="M147 0v1358h246v-217h258q159 0 266 -32.5t177 -104.5q112 -115 112 -316q0 -223 -137 -348q-62 -56 -141.5 -83.5t-198.5 -27.5h-336v-229h-246zM393 438h402q39 0 59.5 10t40.5 35q26 33 42.5 88t16.5 115q0 124 -65 186q-61 58 -217 58h-279v-492z" />
<glyph unicode="&#xdf;" horiz-adv-x="1329" d="M6 819v144l178 30v35q0 198 121 309q142 133 387 133q197 0 317.5 -92.5t120.5 -234.5q0 -60 -25.5 -108t-65 -81.5t-111.5 -79.5l-84 -53q-49 -30 -65.5 -46.5t-16.5 -37.5q0 -25 27 -40t108 -42l55 -18q158 -52 238 -125.5t80 -202.5q0 -147 -107 -238t-274 -91 q-100 0 -200 32t-173 82l59 137l95 -26q118 -31 198 -31q78 0 129.5 32.5t51.5 96.5q0 44 -36.5 72.5t-125.5 58.5l-76 25q-146 47 -208 106t-62 146q0 69 44.5 126t139.5 130l70 53q73 56 93.5 78.5t20.5 52.5q0 49 -55.5 84t-165.5 35q-132 0 -201 -60q-71 -62 -71 -198 v-1012h-232v819h-178z" />
<glyph unicode="&#xe0;" horiz-adv-x="1116" d="M70 322q0 129 92.5 203.5t259.5 74.5h14q142 0 287 -29v78q0 76 -37 113q-45 45 -147 45q-108 0 -242 -43l-102 -33l-70 127q97 73 209 115.5t221 42.5q206 0 313 -119q86 -96 86 -256v-455l131 -24v-125q-34 -17 -84 -29t-88 -12q-95 0 -165 90l-50 -27 q-139 -75 -266 -75q-157 0 -259.5 98.5t-102.5 239.5zM291 1348l96 141q20 33 55 8l379 -283l-80 -108zM295 330q0 -66 46 -107t132 -41q113 0 225 47q16 7 20.5 14t4.5 19v141q0 12 -5 16.5t-22 4.5h-311q-48 0 -70 -25q-20 -23 -20 -69z" />
<glyph unicode="&#xe1;" horiz-adv-x="1116" d="M70 322q0 129 92.5 203.5t259.5 74.5h14q142 0 287 -29v78q0 76 -37 113q-45 45 -147 45q-108 0 -242 -43l-102 -33l-70 127q97 73 209 115.5t221 42.5q206 0 313 -119q86 -96 86 -256v-455l131 -24v-125q-34 -17 -84 -29t-88 -12q-95 0 -165 90l-50 -27 q-139 -75 -266 -75q-157 0 -259.5 98.5t-102.5 239.5zM295 330q0 -66 46 -107t132 -41q113 0 225 47q16 7 20.5 14t4.5 19v141q0 12 -5 16.5t-22 4.5h-311q-48 0 -70 -25q-20 -23 -20 -69zM307 1214l379 283q35 25 55 -8l97 -141l-451 -242z" />
<glyph unicode="&#xe2;" horiz-adv-x="1116" d="M70 322q0 129 92.5 203.5t259.5 74.5h14q142 0 287 -29v78q0 76 -37 113q-45 45 -147 45q-108 0 -242 -43l-102 -33l-70 127q97 73 209 115.5t221 42.5q206 0 313 -119q86 -96 86 -256v-455l131 -24v-125q-34 -17 -84 -29t-88 -12q-95 0 -165 90l-50 -27 q-139 -75 -266 -75q-157 0 -259.5 98.5t-102.5 239.5zM199 1200l262 256q16 16 28.5 21.5t34.5 5.5h68q22 0 34.5 -5.5t28.5 -21.5l263 -256l-97 -92l-260 197h-6l-260 -197zM295 330q0 -66 46 -107t132 -41q113 0 225 47q16 7 20.5 14t4.5 19v141q0 12 -5 16.5t-22 4.5 h-311q-48 0 -70 -25q-20 -23 -20 -69z" />
<glyph unicode="&#xe3;" horiz-adv-x="1116" d="M70 322q0 129 92.5 203.5t259.5 74.5h14q142 0 287 -29v78q0 76 -37 113q-45 45 -147 45q-108 0 -242 -43l-102 -33l-70 127q97 73 209 115.5t221 42.5q206 0 313 -119q86 -96 86 -256v-455l131 -24v-125q-34 -17 -84 -29t-88 -12q-95 0 -165 90l-50 -27 q-139 -75 -266 -75q-157 0 -259.5 98.5t-102.5 239.5zM197 1176q18 102 76.5 167.5t148.5 65.5q46 0 97 -23t95 -46t74 -23q31 0 55 22t56 76l123 -35q-18 -102 -77 -167.5t-149 -65.5q-46 0 -97 23t-95 46t-74 23q-31 0 -55 -22t-56 -76zM295 330q0 -66 46 -107t132 -41 q113 0 225 47q16 7 20.5 14t4.5 19v141q0 12 -5 16.5t-22 4.5h-311q-48 0 -70 -25q-20 -23 -20 -69z" />
<glyph unicode="&#xe4;" horiz-adv-x="1116" d="M70 322q0 129 92.5 203.5t259.5 74.5h14q142 0 287 -29v78q0 76 -37 113q-45 45 -147 45q-108 0 -242 -43l-102 -33l-70 127q97 73 209 115.5t221 42.5q206 0 313 -119q86 -96 86 -256v-455l131 -24v-125q-34 -17 -84 -29t-88 -12q-95 0 -165 90l-50 -27 q-139 -75 -266 -75q-157 0 -259.5 98.5t-102.5 239.5zM238 1171v228h200q23 0 31 -8t8 -29v-191h-239zM295 330q0 -66 46 -107t132 -41q113 0 225 47q16 7 20.5 14t4.5 19v141q0 12 -5 16.5t-22 4.5h-311q-48 0 -70 -25q-20 -23 -20 -69zM641 1171v228h201q23 0 31 -8t8 -29 v-191h-240z" />
<glyph unicode="&#xe5;" horiz-adv-x="1116" d="M70 322q0 129 92.5 203.5t259.5 74.5h14q142 0 287 -29v78q0 76 -37 113q-45 45 -147 45q-108 0 -242 -43l-102 -33l-70 127q97 73 209 115.5t221 42.5q206 0 313 -119q86 -96 86 -256v-455l131 -24v-125q-34 -17 -84 -29t-88 -12q-95 0 -165 90l-50 -27 q-139 -75 -266 -75q-157 0 -259.5 98.5t-102.5 239.5zM295 330q0 -66 46 -107t132 -41q113 0 225 47q16 7 20.5 14t4.5 19v141q0 12 -5 16.5t-22 4.5h-311q-48 0 -70 -25q-20 -23 -20 -69zM299 1354q0 111 73.5 179.5t182.5 68.5t182.5 -68.5t73.5 -179.5t-73.5 -179.5 t-182.5 -68.5t-182.5 68.5t-73.5 179.5zM440 1354q0 -51 28.5 -80t86.5 -29t86.5 29t28.5 80q0 108 -115 108t-115 -108z" />
<glyph unicode="&#xe6;" horiz-adv-x="1757" d="M74 324q0 132 97.5 207t254.5 75h14q143 0 283 -28v71q0 76 -37 113q-45 45 -147 45q-108 0 -242 -43l-102 -33l-70 127q97 73 209 115.5t221 42.5q207 0 317 -133q139 133 330 133h4q208 0 345 -138.5t137 -340.5q0 -47 -9 -84q-4 -16 -12 -20.5t-25 -4.5h-688 q11 -109 80 -174.5t195 -65.5q107 0 248 54l110 43l76 -129q-95 -78 -210.5 -125t-229.5 -47h-6q-221 0 -353 135l-67 -41q-153 -94 -332 -94q-159 0 -275 94.5t-116 245.5zM301 330q0 -64 54 -106t149 -42q62 0 135 19.5t129 52.5q-38 81 -47 174h-315q-61 0 -87 -33 q-18 -24 -18 -65zM956 596h498q-8 95 -71.5 156t-176.5 61h-2q-113 0 -175.5 -60t-72.5 -157z" />
<glyph unicode="&#xe7;" horiz-adv-x="1048" d="M66 504q0 225 138 368.5t341 143.5q158 0 279.5 -91.5t160.5 -232.5l-147 -76l-90 78q-54 47 -80 67t-63.5 36t-76.5 16q-100 0 -162.5 -79t-62.5 -226q0 -163 68 -240.5t211 -77.5q93 0 231 60l113 49l75 -125q-81 -73 -186.5 -124.5t-206.5 -61.5q-30 -45 -30 -72 q0 -14 23 -25.5t56 -23t66.5 -27t56.5 -46.5t23 -73q0 -97 -96.5 -155t-276.5 -58l-24 127l120 23q76 15 76 49q0 16 -32 30t-70.5 25.5t-70.5 37t-32 61.5q0 50 72 129q-187 26 -295 164.5t-108 349.5z" />
<glyph unicode="&#xe8;" horiz-adv-x="1105" d="M66 500q0 152 66.5 271t177 182t243.5 63h4q208 0 343.5 -138.5t135.5 -340.5q0 -51 -8 -84q-4 -16 -12 -20.5t-25 -4.5h-688q9 -111 80 -175.5t205 -64.5q100 0 233 52l115 45l76 -129q-93 -79 -210 -125.5t-233 -46.5h-6q-149 0 -263 69t-174 185.5t-60 261.5zM305 596 h498q-8 96 -70.5 156.5t-175.5 60.5h-2q-114 0 -177.5 -60t-72.5 -157zM315 1348l97 141q20 33 55 8l379 -283l-80 -108z" />
<glyph unicode="&#xe9;" horiz-adv-x="1105" d="M66 500q0 152 66.5 271t177 182t243.5 63h4q208 0 343.5 -138.5t135.5 -340.5q0 -51 -8 -84q-4 -16 -12 -20.5t-25 -4.5h-688q9 -111 80 -175.5t205 -64.5q100 0 233 52l115 45l76 -129q-93 -79 -210 -125.5t-233 -46.5h-6q-149 0 -263 69t-174 185.5t-60 261.5zM305 596 h498q-8 96 -70.5 156.5t-175.5 60.5h-2q-114 0 -177.5 -60t-72.5 -157zM307 1214l379 283q35 25 55 -8l97 -141l-451 -242z" />
<glyph unicode="&#xea;" horiz-adv-x="1105" d="M66 500q0 152 66.5 271t177 182t243.5 63h4q208 0 343.5 -138.5t135.5 -340.5q0 -51 -8 -84q-4 -16 -12 -20.5t-25 -4.5h-688q9 -111 80 -175.5t205 -64.5q100 0 233 52l115 45l76 -129q-93 -79 -210 -125.5t-233 -46.5h-6q-149 0 -263 69t-174 185.5t-60 261.5z M205 1200l262 256q16 16 28.5 21.5t34.5 5.5h68q37 0 64 -27l262 -256l-97 -92l-260 197h-6l-260 -197zM305 596h498q-8 96 -70.5 156.5t-175.5 60.5h-2q-114 0 -177.5 -60t-72.5 -157z" />
<glyph unicode="&#xeb;" horiz-adv-x="1105" d="M66 500q0 152 66.5 271t177 182t243.5 63h4q208 0 343.5 -138.5t135.5 -340.5q0 -51 -8 -84q-4 -16 -12 -20.5t-25 -4.5h-688q9 -111 80 -175.5t205 -64.5q100 0 233 52l115 45l76 -129q-93 -79 -210 -125.5t-233 -46.5h-6q-149 0 -263 69t-174 185.5t-60 261.5z M240 1171v228h200q23 0 31 -8t8 -29v-191h-239zM305 596h498q-8 96 -70.5 156.5t-175.5 60.5h-2q-114 0 -177.5 -60t-72.5 -157zM643 1171v228h201q23 0 31 -8t8 -29v-191h-240z" />
<glyph unicode="&#xec;" horiz-adv-x="477" d="M-31 1348l97 141q20 33 55 8l379 -283l-80 -108zM123 0v999h231v-999h-231z" />
<glyph unicode="&#xed;" horiz-adv-x="479" d="M-8 1214l379 283q35 25 55 -8l96 -141l-450 -242zM123 0v999h231v-999h-231z" />
<glyph unicode="&#xee;" horiz-adv-x="481" d="M-119 1200l262 256q27 27 64 27h67q37 0 64 -27l262 -256l-96 -92l-260 197h-6l-261 -197zM125 0v999h231v-999h-231z" />
<glyph unicode="&#xef;" horiz-adv-x="481" d="M-80 1171v228h201q23 0 31 -8t8 -29v-191h-240zM125 0v999h231v-999h-231zM324 1171v228h200q23 0 31 -8t8 -29v-191h-239z" />
<glyph unicode="&#xf0;" horiz-adv-x="1150" d="M68 483q0 107 36.5 197.5t99.5 150.5t146 93.5t176 33.5q134 0 250 -61q-26 78 -74.5 148t-107.5 114l-285 -131l-82 141l213 101l-161 100l69 121q169 -56 289 -131l254 119l82 -144l-185 -86q147 -136 216 -313t69 -371q0 -274 -138 -429.5t-374 -155.5h-10 q-216 0 -349.5 143t-133.5 360zM301 479q0 -131 68.5 -211t199.5 -80q138 0 204.5 92.5t66.5 262.5q0 82 -11 147q-3 17 -11 25.5t-30 15.5q-95 35 -210 35h-9q-268 0 -268 -287z" />
<glyph unicode="&#xf1;" horiz-adv-x="1146" d="M127 0h231v723q0 26 21 35q80 39 217 39h4q111 0 158 -41q45 -37 45 -133v-623h231v639q0 163 -96 262q-52 54 -131 84.5t-172 30.5h-2q-113 0 -240 -68l-59 -33l-33 84h-174v-999zM250 1176q18 102 76.5 167.5t148.5 65.5q46 0 97 -23t95 -46t74 -23q31 0 55 22t56 76 l123 -35q-18 -102 -76.5 -167.5t-148.5 -65.5q-46 0 -97.5 23t-95.5 46t-74 23q-31 0 -54 -22t-56 -76z" />
<glyph unicode="&#xf2;" horiz-adv-x="1138" d="M66 500q0 123 41.5 222.5t111.5 162.5t159 97t187 34h8q98 0 187 -34t159.5 -97t112 -162.5t41.5 -222.5t-41.5 -222.5t-112 -162.5t-159.5 -97t-187 -34h-8q-98 0 -187 34t-159 97t-111.5 162.5t-41.5 222.5zM303 500q0 -143 64 -221t198 -78h8q134 0 198.5 78t64.5 221 t-64.5 221t-198.5 78h-8q-134 0 -198 -78t-64 -221zM305 1348l96 141q20 34 56 8l379 -283l-80 -108z" />
<glyph unicode="&#xf3;" horiz-adv-x="1138" d="M66 500q0 123 41.5 222.5t111.5 162.5t159 97t187 34h8q98 0 187 -34t159.5 -97t112 -162.5t41.5 -222.5t-41.5 -222.5t-112 -162.5t-159.5 -97t-187 -34h-8q-98 0 -187 34t-159 97t-111.5 162.5t-41.5 222.5zM303 500q0 -143 64 -221t198 -78h8q134 0 198.5 78t64.5 221 t-64.5 221t-198.5 78h-8q-134 0 -198 -78t-64 -221zM322 1214l378 283q36 26 56 -8l96 -141l-451 -242z" />
<glyph unicode="&#xf4;" horiz-adv-x="1138" d="M66 500q0 123 41.5 222.5t111.5 162.5t159 97t187 34h8q98 0 187 -34t159.5 -97t112 -162.5t41.5 -222.5t-41.5 -222.5t-112 -162.5t-159.5 -97t-187 -34h-8q-98 0 -187 34t-159 97t-111.5 162.5t-41.5 222.5zM209 1200l262 256q27 27 64 27h67q37 0 64 -27l262 -256 l-97 -92l-260 197h-6l-260 -197zM303 500q0 -143 64 -221t198 -78h8q134 0 198.5 78t64.5 221t-64.5 221t-198.5 78h-8q-134 0 -198 -78t-64 -221z" />
<glyph unicode="&#xf5;" horiz-adv-x="1138" d="M66 500q0 123 41.5 222.5t111.5 162.5t159 97t187 34h8q98 0 187 -34t159.5 -97t112 -162.5t41.5 -222.5t-41.5 -222.5t-112 -162.5t-159.5 -97t-187 -34h-8q-98 0 -187 34t-159 97t-111.5 162.5t-41.5 222.5zM207 1176q18 102 76.5 167.5t148.5 65.5q46 0 97 -23t95 -46 t74 -23q31 0 55 22t56 76l123 -35q-18 -102 -76.5 -167.5t-148.5 -65.5q-46 0 -97.5 23t-95.5 46t-74 23q-31 0 -54 -22t-56 -76zM303 500q0 -143 64 -221t198 -78h8q134 0 198.5 78t64.5 221t-64.5 221t-198.5 78h-8q-134 0 -198 -78t-64 -221z" />
<glyph unicode="&#xf6;" horiz-adv-x="1138" d="M66 500q0 123 41.5 222.5t111.5 162.5t159 97t187 34h8q98 0 187 -34t159.5 -97t112 -162.5t41.5 -222.5t-41.5 -222.5t-112 -162.5t-159.5 -97t-187 -34h-8q-98 0 -187 34t-159 97t-111.5 162.5t-41.5 222.5zM248 1171v228h201q23 0 30.5 -8t7.5 -29v-191h-239zM303 500 q0 -143 64 -221t198 -78h8q134 0 198.5 78t64.5 221t-64.5 221t-198.5 78h-8q-134 0 -198 -78t-64 -221zM651 1171v228h201q23 0 31 -8t8 -29v-191h-240z" />
<glyph unicode="&#xf7;" horiz-adv-x="1126" d="M154 403h819v199h-819v-199zM446 61v224h195q22 0 29.5 -8.5t7.5 -28.5v-187h-232zM446 721v223h195q22 0 29.5 -8.5t7.5 -28.5v-186h-232z" />
<glyph unicode="&#xf8;" horiz-adv-x="1138" d="M66 500q0 123 41.5 222.5t111.5 162.5t159 97t187 34h8q125 0 234 -53l125 178l129 -84l-129 -185q141 -141 141 -372q0 -123 -41.5 -222.5t-112 -162.5t-159.5 -97t-187 -34h-8q-121 0 -225 49l-125 -178l-129 84l127 180q-147 144 -147 381zM303 500q0 -123 41 -195 l336 477q-60 17 -107 17h-8q-130 0 -194 -72q-68 -77 -68 -227zM467 213q47 -12 98 -12h8q132 0 195 71q68 77 68 228q0 111 -37 184z" />
<glyph unicode="&#xf9;" horiz-adv-x="1142" d="M113 360q0 -163 96 -262q52 -53 130.5 -83.5t172.5 -30.5h2q106 0 234 67l59 31l35 -82h174v999h-232v-723q0 -25 -20 -34q-80 -39 -213 -39h-4q-111 0 -158 41q-45 37 -45 133v622h-231v-639zM246 1348l96 141q20 33 55 8l379 -283l-80 -108z" />
<glyph unicode="&#xfa;" horiz-adv-x="1142" d="M113 360q0 -163 96 -262q52 -53 130.5 -83.5t172.5 -30.5h2q106 0 234 67l59 31l35 -82h174v999h-232v-723q0 -25 -20 -34q-80 -39 -213 -39h-4q-111 0 -158 41q-45 37 -45 133v622h-231v-639zM369 1214l379 283q35 25 55 -8l96 -141l-450 -242z" />
<glyph unicode="&#xfb;" horiz-adv-x="1142" d="M113 360q0 -163 96 -262q52 -53 130.5 -83.5t172.5 -30.5h2q106 0 234 67l59 31l35 -82h174v999h-232v-723q0 -25 -20 -34q-80 -39 -213 -39h-4q-111 0 -158 41q-45 37 -45 133v622h-231v-639zM211 1200l262 256q27 27 64 27h67q37 0 64 -27l262 -256l-96 -92l-261 197 h-6l-260 -197z" />
<glyph unicode="&#xfc;" horiz-adv-x="1142" d="M113 360q0 -163 96 -262q52 -53 130.5 -83.5t172.5 -30.5h2q106 0 234 67l59 31l35 -82h174v999h-232v-723q0 -25 -20 -34q-80 -39 -213 -39h-4q-111 0 -158 41q-45 37 -45 133v622h-231v-639zM248 1171v228h201q23 0 30.5 -8t7.5 -29v-191h-239zM651 1171v228h201 q23 0 31 -8t8 -29v-191h-240z" />
<glyph unicode="&#xfd;" horiz-adv-x="1062" d="M6 999l426 -1007l-180 -420l219 -45l586 1472h-211q-15 0 -22 -4.5t-13 -19.5l-160 -416q-78 -201 -104 -309h-2q-32 117 -117 321l-168 404q-7 17 -12.5 20.5t-22.5 3.5h-219zM340 1214l379 283q35 25 55 -8l96 -141l-450 -242z" />
<glyph unicode="&#xfe;" horiz-adv-x="1169" d="M127 -469v1921h231v-530l25 14q150 84 274 84q192 0 318.5 -146t126.5 -374q0 -233 -123.5 -376.5t-319.5 -143.5q-112 0 -239 65l-62 31v-545h-231zM358 279q0 -23 23 -33q45 -23 107.5 -37t115.5 -14h4q127 0 185 61q71 74 71 244q0 167 -71 241q-59 62 -187 62h-4 q-113 0 -221 -53q-23 -10 -23 -33v-438z" />
<glyph unicode="&#xff;" horiz-adv-x="1062" d="M6 999l426 -1007l-180 -420l219 -45l586 1472h-211q-15 0 -22 -4.5t-13 -19.5l-160 -416q-78 -201 -104 -309h-2q-32 117 -117 321l-168 404q-7 17 -12.5 20.5t-22.5 3.5h-219zM217 1171v228h201q23 0 31 -8t8 -29v-191h-240zM621 1171v228h200q23 0 31 -8t8 -29v-191 h-239z" />
<glyph unicode="&#x152;" horiz-adv-x="2256" d="M80 680q0 156 53.5 288t144.5 221t213 139t257 50t245.5 -56t173.5 -142v178h947v-209h-701v-348h627v-207h-627v-385h723v-209h-969v178q-63 -86 -173.5 -142t-245.5 -56t-257 50t-213 139.5t-144.5 222t-53.5 288.5zM336 680q0 -213 112.5 -338t305.5 -125h6 q194 0 306 124t112 339q0 214 -112 337.5t-306 123.5h-6q-194 0 -306 -123t-112 -338z" />
<glyph unicode="&#x153;" horiz-adv-x="1878" d="M66 500q0 122 41.5 221.5t111.5 163t159 97.5t187 34h8q109 0 209.5 -44t169.5 -126q67 82 164 126t207 44h4q137 0 246.5 -64t169 -173.5t59.5 -241.5q0 -51 -8 -84q-4 -16 -12 -20.5t-25 -4.5h-682q10 -110 79.5 -175t203.5 -65q100 0 233 52l115 45l76 -129 q-93 -79 -210 -125.5t-233 -46.5h-6q-243 0 -381 170v-2q-69 -82 -169 -125t-210 -43h-8q-98 0 -187 34t-159 97.5t-111.5 163t-41.5 221.5zM303 500q0 -149 70 -228q63 -71 192 -71h8q130 0 193 71q70 79 70 228q0 148 -70 227q-64 72 -193 72h-8q-128 0 -192 -72 q-70 -79 -70 -227zM1079 598h490q-8 95 -68.5 154t-173.5 59h-2q-113 0 -174.5 -58.5t-71.5 -154.5z" />
<glyph unicode="&#x178;" horiz-adv-x="1333" d="M8 1358h246q22 0 33 -19l198 -346q104 -183 185 -352h4q52 111 188 354l197 344q11 19 33 19h233l-532 -916v-442h-246v442zM344 1540v227h201q23 0 31 -7.5t8 -28.5v-191h-240zM748 1540v227h200q23 0 31 -7.5t8 -28.5v-191h-239z" />
<glyph unicode="&#x2c6;" horiz-adv-x="839" d="M59 1200l263 256q16 16 28.5 21.5t34.5 5.5h68q22 0 34.5 -5.5t28.5 -21.5l262 -256l-96 -92l-260 197h-6l-260 -197z" />
<glyph unicode="&#x2dc;" horiz-adv-x="839" d="M57 1176q18 102 77 167.5t149 65.5q46 0 97 -23t95 -46t74 -23q31 0 54 22t56 76l123 -35q-18 -102 -76.5 -167.5t-148.5 -65.5q-46 0 -97 23t-95 46t-74 23q-31 0 -55 -22t-56 -76z" />
<glyph unicode="&#x2000;" horiz-adv-x="938" />
<glyph unicode="&#x2001;" horiz-adv-x="1877" />
<glyph unicode="&#x2002;" horiz-adv-x="938" />
<glyph unicode="&#x2003;" horiz-adv-x="1877" />
<glyph unicode="&#x2004;" horiz-adv-x="625" />
<glyph unicode="&#x2005;" horiz-adv-x="469" />
<glyph unicode="&#x2006;" horiz-adv-x="312" />
<glyph unicode="&#x2007;" horiz-adv-x="312" />
<glyph unicode="&#x2008;" horiz-adv-x="234" />
<glyph unicode="&#x2009;" horiz-adv-x="375" />
<glyph unicode="&#x200a;" horiz-adv-x="104" />
<glyph unicode="&#x2010;" horiz-adv-x="864" d="M109 399v203h647v-203h-647z" />
<glyph unicode="&#x2011;" horiz-adv-x="864" d="M109 399v203h647v-203h-647z" />
<glyph unicode="&#x2012;" horiz-adv-x="864" d="M109 399v203h647v-203h-647z" />
<glyph unicode="&#x2013;" horiz-adv-x="1241" d="M109 399v203h1024v-203h-1024z" />
<glyph unicode="&#x2014;" horiz-adv-x="2265" d="M109 399v203h2048v-203h-2048z" />
<glyph unicode="&#x2018;" horiz-adv-x="464" d="M100 846v135q0 69 15 117.5t66 115.5t153 164l80 -65l-129 -221q-15 -24 8 -37l24 -15q20 -12 26.5 -23t6.5 -32v-178h-209q-24 0 -32.5 9t-8.5 30z" />
<glyph unicode="&#x2019;" horiz-adv-x="464" d="M51 852l129 221q15 24 -8 37l-25 14q-20 12 -26 23.5t-6 32.5v178h209q24 0 32.5 -9t8.5 -30v-135q0 -69 -15 -117.5t-66 -116t-153 -164.5z" />
<glyph unicode="&#x201a;" horiz-adv-x="471" d="M45 -377l129 221q15 24 -8 37l-25 15q-20 12 -26 23t-6 32v178h208q24 0 32.5 -9t8.5 -30v-135q0 -69 -15 -117.5t-65.5 -115.5t-152.5 -164z" />
<glyph unicode="&#x201c;" horiz-adv-x="837" d="M100 846v135q0 69 15 117.5t66 115.5t153 164l80 -65l-129 -221q-15 -24 8 -37l24 -15q20 -12 26.5 -23t6.5 -32v-178h-209q-24 0 -32.5 9t-8.5 30zM473 846v135q0 69 15 117.5t66 115.5t153 164l79 -65l-129 -221q-15 -24 9 -37l24 -15q20 -12 26.5 -23t6.5 -32v-178 h-209q-24 0 -32.5 9t-8.5 30z" />
<glyph unicode="&#x201d;" horiz-adv-x="837" d="M51 852l129 221q15 24 -8 37l-25 14q-20 12 -26 23.5t-6 32.5v178h209q24 0 32.5 -9t8.5 -30v-135q0 -69 -15 -117.5t-66 -116t-153 -164.5zM424 852l129 221q15 24 -8 37l-25 14q-20 12 -26.5 23.5t-6.5 32.5v178h209q24 0 32.5 -9t8.5 -30v-135q0 -52 -7.5 -88.5 t-31.5 -83t-70.5 -99.5t-123.5 -127z" />
<glyph unicode="&#x201e;" horiz-adv-x="843" d="M45 -377l129 221q15 24 -8 37l-25 15q-20 12 -26 23t-6 32v178h208q24 0 32.5 -9t8.5 -30v-135q0 -69 -15 -117.5t-65.5 -115.5t-152.5 -164zM418 -377l129 221q15 24 -8 37l-25 15q-20 12 -26.5 23t-6.5 32v178h209q24 0 32.5 -9t8.5 -30v-135q0 -69 -15 -117.5 t-65.5 -115.5t-152.5 -164z" />
<glyph unicode="&#x2022;" horiz-adv-x="733" d="M141 362v431h404q28 0 37.5 -8.5t9.5 -34.5v-388h-451z" />
<glyph unicode="&#x2026;" horiz-adv-x="1400" d="M113 0v252h209q24 0 32 -9t8 -30v-213h-249zM575 0v252h209q24 0 32.5 -9t8.5 -30v-213h-250zM1038 0v252h209q24 0 32.5 -9t8.5 -30v-213h-250z" />
<glyph unicode="&#x202f;" horiz-adv-x="375" />
<glyph unicode="&#x2039;" horiz-adv-x="753" d="M92 461v104l461 363l109 -109l-318 -315v-4l318 -316l-109 -108l-442 346q-19 16 -19 39z" />
<glyph unicode="&#x203a;" horiz-adv-x="753" d="M92 184l318 316v4l-318 315l109 109l442 -346q19 -16 19 -39v-105l-461 -362z" />
<glyph unicode="&#x205f;" horiz-adv-x="469" />
<glyph unicode="&#x20ac;" d="M72 471v119l123 20q-2 25 -2 72v45h-121v119l139 20q28 159 109.5 277t193 176.5t238.5 58.5q167 0 290.5 -87t196.5 -242l-149 -95l-91 86q-70 67 -119.5 94t-117.5 27q-121 0 -204.5 -75t-104.5 -220h419v-139h-436q-2 -23 -2 -53q0 -28 4 -64h434v-141h-411 q17 -123 106 -195.5t211 -72.5q128 0 250 71l125 72l92 -111q-78 -113 -216.5 -183t-270.5 -70q-211 0 -361 134.5t-184 356.5h-141z" />
<glyph unicode="&#x2122;" horiz-adv-x="1452" d="M43 1225h186v-496h156v496h182v133h-524v-133zM641 729v629h121q14 0 24 -12l209 -283h2l201 283q7 12 27 12h118v-629h-145v369l-141 -189h-101q-20 0 -30 13l-142 186v-379h-143z" />
<glyph unicode="&#x25fc;" horiz-adv-x="1003" d="M0 0v1004h1004v-1004h-1004z" />
</font>
</defs>
</svg>
