<?xml version="1.0" standalone="no"?>
<!DOCTYPE svg PUBLIC "-//W3C//DTD SVG 1.1//EN" "http://www.w3.org/Graphics/SVG/1.1/DTD/svg11.dtd" >
<svg xmlns="http://www.w3.org/2000/svg" xmlns:xlink="http://www.w3.org/1999/xlink" version="1.1">
<metadata></metadata>
<defs>
<font id="fs_emericregular" horiz-adv-x="1253" >
<font-face units-per-em="2048" ascent="1497" descent="-551" />
<missing-glyph horiz-adv-x="475" />
<glyph unicode="&#xfb01;" horiz-adv-x="1161" d="M4 860v103l182 32q-10 35 -17 75t-7 79q0 82 30.5 142.5t81 100.5t114 58t130.5 18q84 0 167 -25.5t153 -68.5l-41 -102l-78 16q-49 10 -97.5 17.5t-82.5 7.5q-94 0 -146.5 -44t-52.5 -136q0 -35 6 -71t16 -63h367v-139h-356v-860h-180v860h-189zM842 0v999h180v-999 h-180z" />
<glyph unicode="&#xfb02;" horiz-adv-x="1228" d="M4 860v103l182 32q-10 35 -17 77t-7 81q0 78 28.5 137.5t74.5 99.5t106.5 59t126.5 19q63 0 129.5 -18t130.5 -55l-31 -107l-57 10q-84 14 -146 15q-88 0 -136 -41t-48 -135q0 -31 6 -71t16 -67h361v-139h-350v-860h-180v860h-189zM856 188v1264h180v-1305l178 -28v-90 q-31 -14 -82 -24.5t-92 -10.5q-86 0 -135 49t-49 145z" />
<glyph unicode="&#xfb03;" horiz-adv-x="1849" d="M4 860v103l182 32q-10 35 -17 77t-7 81q0 80 27.5 139.5t74.5 98.5t108.5 58t129.5 19q70 0 145.5 -20.5t140.5 -58.5l-32 -109l-66 12q-47 10 -90 15.5t-78 5.5q-88 0 -135 -41t-47 -135q0 -31 6 -71t16 -67h510q-10 33 -16 73t-6 77q0 82 30.5 142.5t81 100.5t114 58 t130.5 18q84 0 167 -25.5t153 -68.5l-41 -102l-78 16q-49 10 -97 17.5t-83 7.5q-94 0 -146.5 -44t-52.5 -136q0 -35 6 -71t17 -63h366v-139h-356v-860h-180v860h-508v-860h-180v860h-189zM1530 0v999h180v-999h-180z" />
<glyph unicode="&#xfb04;" horiz-adv-x="1916" d="M4 860v103l182 32q-10 35 -17 77t-7 81q0 80 27.5 139.5t74.5 98.5t108.5 58t129.5 19q70 0 145.5 -20.5t140.5 -58.5l-32 -109l-66 12q-47 10 -90 15.5t-78 5.5q-88 0 -135 -41t-47 -135q0 -31 6 -71t16 -67h510q-10 35 -16 76t-6 78q0 78 28.5 137.5t74.5 99.5 t106.5 59t126.5 19q63 0 129.5 -18t130.5 -55l-31 -107l-57 10q-84 14 -146 15q-88 0 -136 -41t-48 -135q0 -31 6 -71t17 -67h360v-139h-350v-860h-180v860h-508v-860h-180v860h-189zM1544 188v1264h180v-1305l179 -28v-90q-31 -14 -82.5 -24.5t-91.5 -10.5q-86 0 -136 49 q-49 49 -49 145z" />
<glyph horiz-adv-x="0" />
<glyph unicode="&#xd;" horiz-adv-x="475" />
<glyph unicode=" "  horiz-adv-x="475" />
<glyph unicode="&#x09;" horiz-adv-x="475" />
<glyph unicode="&#xa0;" horiz-adv-x="475" />
<glyph unicode="!" horiz-adv-x="512" d="M156 0v201h159q25 0 33 -7.5t8 -27.5v-166h-200zM162 854v504h188v-504q0 -41 -2 -85t-6 -97l-31 -314h-110l-31 314q-4 53 -6 97t-2 85z" />
<glyph unicode="&#x22;" horiz-adv-x="808" d="M141 1268v90h189v-90q0 -43 -3 -88t-10 -109l-26 -250h-111l-26 250q-6 66 -9.5 110t-3.5 87zM479 1268v90h189v-90q0 -43 -3 -88t-10 -109l-26 -250h-111l-26 250q-6 66 -9.5 110t-3.5 87z" />
<glyph unicode="#" d="M123 391v146h199l49 282h-248v146h274l70 393h154l-70 -393h250l69 393h154l-70 -393h176v-146h-202l-51 -282h253v-146h-278l-68 -391h-153l67 391h-249l-68 -391h-154l68 391h-172zM475 537h248l51 282h-250z" />
<glyph unicode="$" d="M135 111l47 110l133 -31q72 -16 138.5 -28t124.5 -17v512l-52 19q-88 31 -156.5 65.5t-116.5 76.5t-72.5 96.5t-24.5 125.5q0 76 31.5 136.5t87 103.5t133 66.5t170.5 29.5l16 217h102v-217q86 -6 178.5 -26.5t176.5 -53.5l-31 -120l-123 16q-51 6 -102.5 11t-98.5 7 v-413q106 -35 185.5 -73t131.5 -86t77.5 -109.5t25.5 -143.5q0 -170 -111.5 -277.5t-308.5 -123.5l-16 -222h-102v220q-119 8 -239 43.5t-204 85.5zM330 1047q0 -37 13 -65t42 -51.5t77 -46t116 -46.5v372q-123 -6 -185.5 -44.5t-62.5 -118.5zM696 150q119 14 180.5 74.5 t61.5 158.5q0 43 -12.5 77t-41 60.5t-74.5 49t-114 46.5v-466z" />
<glyph unicode="%" horiz-adv-x="1812" d="M86 1026q0 76 26.5 141.5t73.5 111.5t110.5 72.5t137.5 26.5h4q74 0 137.5 -26.5t110.5 -72.5t73.5 -111.5t26.5 -141.5q0 -78 -26.5 -142.5t-73.5 -110.5t-110.5 -72.5t-137.5 -26.5h-4q-74 0 -137.5 26.5t-110.5 72.5t-73.5 110.5t-26.5 142.5zM244 1026 q0 -104 50 -152.5t140 -48.5h4q90 0 140.5 48.5t50.5 152.5t-50.5 152.5t-140.5 48.5h-4q-90 0 -140 -48.5t-50 -152.5zM485 0l674 1358h166l-672 -1358h-168zM1026 332q0 76 26.5 141.5t74 111.5t110.5 72.5t137 26.5h4q74 0 137.5 -26.5t110.5 -72.5t73.5 -111.5 t26.5 -141.5q0 -78 -26.5 -142.5t-73.5 -110.5t-110.5 -72.5t-137.5 -26.5h-4q-74 0 -137 26.5t-110.5 72.5t-74 110.5t-26.5 142.5zM1184 332q0 -104 50 -152.5t140 -48.5h4q90 0 140.5 48.5t50.5 152.5t-50.5 152t-140.5 48h-4q-90 0 -140 -48t-50 -152z" />
<glyph unicode="&#x26;" horiz-adv-x="1525" d="M76 438q0 137 83 229.5t210 161.5q-35 51 -55.5 101.5t-20.5 109.5q0 76 29.5 138.5t81 107.5t120 68.5t144.5 23.5q70 0 134 -24.5t113.5 -67.5t78 -102.5t28.5 -128.5q0 -104 -64.5 -199.5t-205.5 -187.5l286 -287q35 49 69 107.5t64 121.5l105 215l125 -43 q-41 -141 -102.5 -272t-147.5 -240l123 -123l166 -24v-88q-29 -16 -73 -29.5t-81 -13.5q-27 0 -48 4t-42.5 14t-45.5 28.5t-52 47.5l-62 61q-90 -78 -197.5 -122.5t-232.5 -44.5q-109 0 -205 35.5t-167.5 97t-114.5 145.5t-43 180zM264 453q0 -61 25.5 -116.5t73 -97.5 t114 -67t150.5 -25q90 0 162.5 29t134.5 82l-371 373l-107 106l-32 -30q-37 -35 -66 -66t-47 -59.5t-27.5 -60.5t-9.5 -68zM465 1049q0 -66 50 -131.5t153 -165.5l71 73q66 68 92.5 119t26.5 111q0 72 -55 121t-141 49q-92 0 -144.5 -50.5t-52.5 -125.5z" />
<glyph unicode="'" horiz-adv-x="471" d="M141 1268v90h189v-90q0 -43 -3 -88t-10 -109l-26 -250h-111l-26 250q-6 66 -9.5 110t-3.5 87z" />
<glyph unicode="(" horiz-adv-x="651" d="M131 444q0 143 31 275.5t85 250t131 219t169 183.5l92 -76q-166 -190 -243 -397t-77 -455t77 -454.5t243 -397.5l-92 -75q-92 82 -169 183t-131 219t-85 250t-31 275z" />
<glyph unicode=")" horiz-adv-x="651" d="M12 -408q166 190 243 397t77 455t-77 455t-243 397l92 76q92 -82 169 -183.5t131.5 -219t85 -249.5t30.5 -276q0 -143 -30.5 -275t-85 -250t-131 -219t-169.5 -183z" />
<glyph unicode="*" horiz-adv-x="880" d="M80 1049l41 108q8 18 16 22.5t31 -5.5l227 -123l-33 307h132q18 0 24 -6t4 -23l-30 -278l260 133l43 -109q8 -18 2 -26.5t-25 -12.5l-250 -65l223 -242l-108 -72q-25 -16 -43 11l-152 245l-168 -270l-110 70q-16 10 -15 20t15 25l198 213z" />
<glyph unicode="+" horiz-adv-x="1089" d="M156 430v145h315v316h145v-316h318v-145h-318v-317h-145v317h-315z" />
<glyph unicode="," horiz-adv-x="442" d="M49 -256l125 223q8 14 6 19.5t-12 11.5l-29 18q-16 10 -20 19.5t-4 25.5v148h168q25 0 33 -7t8 -28v-115q0 -45 -8.5 -80.5t-31 -75.5t-63.5 -89.5t-108 -118.5z" />
<glyph unicode="-" horiz-adv-x="851" d="M117 424v151h618v-151h-618z" />
<glyph unicode="." horiz-adv-x="446" d="M121 0v209h164q25 0 33 -7t8 -28v-174h-205z" />
<glyph unicode="/" horiz-adv-x="917" d="M23 0l686 1358h186l-686 -1358h-186z" />
<glyph unicode="0" d="M98 678q0 154 36 281.5t104.5 221t167 145.5t221.5 52t221 -52t166.5 -145.5t104.5 -221t36 -281.5t-36 -282t-104.5 -220t-166.5 -144t-221 -52t-221.5 52t-167 144t-104.5 220t-36 282zM287 678q0 -246 79.5 -386t260.5 -140q180 0 260 140t80 386t-80 387t-260 141 t-260 -141t-80 -387z" />
<glyph unicode="1" d="M184 1149l414 192q20 10 36.5 13.5t43.5 3.5h96v-1206h307v-152h-854v152h365v1011q-10 -6 -30.5 -15t-46.5 -20.5t-54.5 -23.5t-54.5 -21l-168 -59z" />
<glyph unicode="2" d="M147 1208q109 80 228 125t235 45q88 0 168 -26.5t138.5 -76.5t93 -122t34.5 -160q0 -68 -18 -125t-58 -117.5t-103.5 -129t-153.5 -156.5l-314 -307h676v-158h-909v94q0 20 5 30.5t21 29.5l402 421q61 63 110.5 116.5t83 102t52 94.5t18.5 95q0 117 -72.5 173t-187.5 56 q-63 0 -126.5 -16t-139.5 -45l-123 -47z" />
<glyph unicode="3" d="M94 170l60 100l145 -55q84 -33 160 -50.5t149 -17.5q135 0 217 70t82 193q0 106 -53 157q-29 27 -73 40.5t-109 13.5h-148q-18 0 -24 5t-6 19v115h206q35 0 53.5 6t39.5 29q29 33 47 89t18 107q0 113 -68.5 167t-179.5 54q-72 0 -139.5 -16t-151.5 -47l-116 -43l-60 106 q119 80 238 123t240 43q88 0 164.5 -25.5t133 -71.5t89 -110.5t32.5 -142.5q0 -160 -137 -315q94 -43 143.5 -123t49.5 -184q0 -98 -36 -177t-99.5 -134.5t-150.5 -85t-189 -29.5q-145 0 -281.5 51t-245.5 139z" />
<glyph unicode="4" d="M86 338v119q0 20 4 30.5t19 28.5l645 815q14 16 23 21.5t30 5.5h168v-866h192v-154h-192v-338h-180v338h-709zM272 492h523v657q-6 -10 -24.5 -34.5t-42 -55.5t-48.5 -63.5t-45 -59.5l-229 -291q-35 -45 -73 -87t-61 -66z" />
<glyph unicode="5" d="M135 160l62 104l116 -45q92 -35 166 -53.5t139 -18.5q143 0 218 75t75 210q0 133 -81.5 190.5t-217.5 57.5q-33 0 -70.5 -4t-74.5 -11.5t-69.5 -16.5t-55.5 -17q-16 -6 -25.5 -6t-29.5 12l-56 33q-16 10 -20 18t-4 25v645h790v-158h-616v-215q0 -59 -2 -116.5t-6 -96.5 q59 31 140 46.5t153 15.5q94 0 173 -29t137 -83t91 -129t33 -167q0 -90 -30 -171t-89 -142.5t-147.5 -97t-204.5 -35.5q-127 0 -259 48t-235 132z" />
<glyph unicode="6" d="M133 623v10q0 160 43 296t121 236.5t189.5 156.5t250.5 56q84 0 164 -23.5t152 -60.5l-43 -112q-84 23 -145.5 31t-112.5 8q-104 0 -182 -37t-132.5 -100.5t-83 -150.5t-35.5 -185l54 20q106 41 183 61.5t153 20.5q88 0 167.5 -26.5t138 -79t93.5 -129t35 -177.5 q0 -111 -40 -196.5t-106.5 -144t-151.5 -88t-175 -29.5q-115 0 -213.5 44t-170 126.5t-112.5 202.5t-41 270zM319 565q0 -88 24 -164.5t69 -134t110.5 -90.5t149.5 -33q135 0 212 77t77 218q0 123 -71 190.5t-220 67.5q-78 0 -163 -18.5t-151 -50.5q-29 -14 -33 -25.5 t-4 -30.5v-6z" />
<glyph unicode="7" d="M131 1196v162h989v-92q0 -25 -6 -43.5t-22 -46.5l-285 -478q-74 -125 -119 -217t-70.5 -170t-36 -151.5t-14.5 -159.5h-188q2 88 12 166t34 154.5t62.5 159.5t98.5 182l145 241q59 98 106.5 172t77.5 121h-784z" />
<glyph unicode="8" d="M104 391q0 55 18.5 106.5t50.5 96.5t75 82.5t90 68.5q-74 53 -118 120t-44 157q0 82 38 148.5t101.5 112.5t145.5 70.5t168 24.5q90 0 174 -25.5t147.5 -71.5t101.5 -111.5t38 -145.5q0 -92 -54.5 -176t-140.5 -152q53 -25 99 -54.5t81 -67t54.5 -85t19.5 -108.5 q0 -80 -40 -152.5t-109.5 -128t-166 -88t-208.5 -32.5q-106 0 -200.5 29.5t-165.5 83.5t-113 130t-42 168zM287 414q0 -123 94 -197t252 -74q70 0 130 17.5t105 48.5t71 74t26 94t-30 89t-88.5 71.5t-148.5 65.5t-209 71q-25 8 -37 4t-32 -21q-61 -51 -97 -111.5t-36 -131.5 zM346 1026q0 -51 24.5 -88t73 -66.5t119 -56.5t164.5 -55q25 -8 33 -7t28 15q25 18 47.5 43t41 53.5t30 60t11.5 64.5q0 115 -81 171.5t-210 56.5q-57 0 -108.5 -12.5t-89.5 -37t-60.5 -60.5t-22.5 -81z" />
<glyph unicode="9" d="M102 924q0 94 34 177t96.5 144.5t149.5 97t193 35.5q115 0 213.5 -44t170 -127t112.5 -202.5t41 -269.5v-10q0 -188 -47 -344t-152 -258q-70 -68 -163 -105.5t-218 -37.5q-78 0 -170 22.5t-157 63.5l43 114q80 -23 149.5 -30t114.5 -7q109 0 184.5 33t124.5 94.5 t74 147.5t31 192l-54 -22q-84 -35 -172 -57.5t-163 -22.5q-90 0 -170 28.5t-138.5 82t-92.5 130t-34 175.5zM285 932q0 -127 71.5 -198.5t218.5 -71.5q78 0 164 18t152 51q29 14 33 24.5t4 30.5v7q0 88 -23.5 164.5t-70 134t-112 90t-149.5 32.5q-133 0 -210.5 -77.5 t-77.5 -204.5z" />
<glyph unicode=":" horiz-adv-x="446" d="M121 0v209h164q25 0 33 -7t8 -28v-174h-205zM121 662v208h164q25 0 33 -7t8 -27v-174h-205z" />
<glyph unicode=";" horiz-adv-x="442" d="M49 -256l125 223q8 14 6 19.5t-12 11.5l-29 18q-16 10 -20 19.5t-4 25.5v148h168q25 0 33 -7t8 -28v-115q0 -45 -8.5 -80.5t-31 -75.5t-63.5 -89.5t-108 -118.5zM117 662v208h164q25 0 33 -7t8 -27v-174h-205z" />
<glyph unicode="&#x3c;" horiz-adv-x="1089" d="M156 442v121l778 361v-168l-565 -252v-2l565 -252v-168z" />
<glyph unicode="=" horiz-adv-x="1089" d="M156 240v145h778v-145h-778zM156 621v145h778v-145h-778z" />
<glyph unicode="&#x3e;" horiz-adv-x="1089" d="M156 82v168l565 252v2l-565 252v168l778 -361v-121z" />
<glyph unicode="?" horiz-adv-x="1015" d="M43 1204q98 82 218 128t237 46q90 0 171 -25.5t141 -74.5t95 -118.5t35 -158.5q0 -123 -74.5 -217t-232.5 -166l-111 -51l-35 -209h-114l-21 125q-4 29 -7 53.5t-3 38.5q0 35 13.5 52.5t56.5 42.5l69 39q66 37 116 67.5t83 63t49 69.5t16 86q0 104 -72.5 157.5 t-183.5 53.5q-59 0 -118.5 -14t-151.5 -49l-117 -43zM332 0v197h155q25 0 33 -7.5t8 -27.5v-162h-196z" />
<glyph unicode="@" horiz-adv-x="1560" d="M72 498q0 145 53 272t148.5 222t228.5 149.5t293 54.5q147 0 272 -50t214 -136t139 -200t50 -243q0 -98 -27.5 -174t-74.5 -128t-109.5 -79.5t-132.5 -27.5q-59 0 -104 21.5t-74 53.5l-51 -26q-43 -23 -86 -35t-90 -12q-53 0 -98 17.5t-79 48t-52.5 72.5t-18.5 89 q0 92 62.5 135t154.5 43q20 0 49 -2t59.5 -4t60.5 -6t52 -6v37q0 37 -7 60.5t-19 37.5q-16 18 -45 25.5t-66 7.5q-35 0 -71.5 -7.5t-73.5 -17.5l-70 -20l-43 78q63 43 134 68.5t138 25.5q117 0 191 -62.5t74 -185.5v-217q0 -53 24 -78q23 -23 66 -23q78 0 133 68t55 215 q0 113 -40 204t-112.5 155.5t-171 99.5t-214.5 35q-117 0 -219.5 -36t-178.5 -106.5t-119 -173t-43 -233.5q0 -133 43 -237.5t119 -177.5t181.5 -111.5t232.5 -38.5q88 0 190.5 22.5t202.5 65.5l148 65l49 -84q-55 -43 -125 -81t-148.5 -66.5t-163.5 -46t-171 -17.5 q-154 0 -285 52.5t-227.5 144.5t-151.5 221t-55 283zM614 389q0 -51 38 -78.5t98 -27.5q35 0 74.5 9t68.5 21q10 4 14 9.5t4 17.5v100q0 14 -14 15h-217q-39 0 -51 -19q-14 -18 -15 -47z" />
<glyph unicode="A" horiz-adv-x="1382" d="M29 0l544 1358h187q16 0 22 -4t13 -19l559 -1335h-174q-25 0 -33 20l-123 299h-680l-115 -299q-4 -12 -10 -16t-22 -4h-168zM401 471h562l-113 283q-68 170 -110 275.5t-62 162.5h-2q-18 -53 -59.5 -162.5t-106.5 -275.5z" />
<glyph unicode="B" horiz-adv-x="1269" d="M152 0v1358h510q223 0 327 -84q104 -82 105 -246q0 -88 -37 -167t-101 -144q98 -35 163 -115t65 -211q0 -174 -109 -276q-59 -55 -147 -85t-211 -30h-565zM342 158h365q166 0 229 69q53 57 53 166t-47 158q-29 31 -80 46t-133 15h-387v-454zM342 764h414q33 0 50 8t34 27 q29 35 48 91t19 118q0 96 -43 139q-51 53 -194 53h-328v-436z" />
<glyph unicode="C" horiz-adv-x="1376" d="M76 680q0 143 47 270t133 222.5t206 150.5t265 55q195 0 338 -103.5t213 -273.5l-127 -75l-129 129q-72 72 -141.5 107.5t-165.5 35.5q-104 0 -187.5 -38t-139.5 -107.5t-86 -164.5t-30 -210q0 -246 122 -382t351 -136q72 0 151 23.5t161 64.5l178 92l74 -96 q-111 -121 -266.5 -192.5t-321.5 -71.5q-141 0 -260 51t-204 143t-133 221t-48 285z" />
<glyph unicode="D" horiz-adv-x="1423" d="M152 0v1358h403q205 0 355.5 -43t252.5 -137q90 -84 137.5 -208t47.5 -290t-47.5 -291t-137.5 -209q-102 -94 -252.5 -137t-355.5 -43h-403zM342 160h176q170 0 297 26.5t207 104.5q61 59 95 156.5t34 232.5t-34 231.5t-95 155.5q-80 78 -207 104.5t-297 26.5h-176v-1038 z" />
<glyph unicode="E" horiz-adv-x="1169" d="M152 0v1358h892v-158h-702v-420h629v-155h-629v-467h725v-158h-915z" />
<glyph unicode="F" horiz-adv-x="1091" d="M152 0v1358h872v-158h-682v-420h608v-155h-608v-625h-190z" />
<glyph unicode="G" horiz-adv-x="1488" d="M78 676q0 160 52 289t142 221t211 142t260 50q98 0 185.5 -26.5t160 -73.5t129 -109.5t93.5 -136.5l-121 -82l-135 117q-78 66 -148.5 99.5t-171.5 33.5q-111 0 -195.5 -37t-144 -104.5t-90.5 -163.5t-31 -215q0 -262 129 -392t349 -130q84 0 191.5 25.5t199.5 74.5 q18 10 22 18.5t4 26.5v244h-264v145h416q20 0 26.5 -5t6.5 -21v-666h-135l-35 125l-115 -57q-90 -45 -170 -66.5t-176 -21.5q-147 0 -266 53t-204 146t-130 221t-45 276z" />
<glyph unicode="H" horiz-adv-x="1433" d="M152 0v1358h190v-572h750v572h190v-1358h-190v625h-750v-625h-190z" />
<glyph unicode="I" horiz-adv-x="509" d="M160 0v1358h190v-1358h-190z" />
<glyph unicode="J" horiz-adv-x="1007" d="M47 96l41 113l111 -27q147 -37 250 -37q121 0 174 60q29 31 39 78t10 116v959h190v-944q0 -117 -26.5 -195t-79.5 -133q-51 -51 -124 -78.5t-169 -27.5q-106 0 -216 31.5t-200 84.5z" />
<glyph unicode="K" horiz-adv-x="1304" d="M152 0v1358h190v-670l772 680l109 -117l-516 -446l573 -805h-188q-18 0 -27.5 4t-20.5 16l-473 672q-20 -18 -51 -42.5t-62.5 -49.5t-62 -46.5t-53.5 -33.5v-520h-190z" />
<glyph unicode="L" horiz-adv-x="1069" d="M152 0v1358h190v-1200h664v-158h-854z" />
<glyph unicode="M" horiz-adv-x="1705" d="M152 0v1358h141q16 0 24.5 -3t20.5 -20l520 -665h2l516 665q10 14 19.5 18.5t25.5 4.5h133v-1358h-184v1067h-2q-12 -20 -34.5 -51t-48 -66t-52.5 -69.5t-51 -65.5l-264 -334h-107q-16 0 -23.5 5.5t-17.5 15.5l-250 313q-23 29 -49.5 63.5t-51 68.5t-46 64.5t-35.5 55.5 h-2v-1067h-184z" />
<glyph unicode="N" horiz-adv-x="1492" d="M152 0v1358h131q16 0 24 -3t21 -18l585 -733q35 -43 71 -88t68.5 -88t60.5 -79t46 -60v1069h182v-1358h-129q-16 0 -24 3t-21 17l-585 734q-35 43 -71 89t-69.5 89t-62.5 80t-45 59v-1071h-182z" />
<glyph unicode="O" horiz-adv-x="1486" d="M76 678q0 156 53 285t145.5 221t213 143t255.5 51t256 -51t213.5 -143t145.5 -221t53 -285t-53 -284t-145.5 -220t-213 -143t-256.5 -51q-135 0 -255.5 51t-213 143t-145.5 220t-53 284zM272 678q0 -125 34 -221.5t96.5 -162t149.5 -99t191 -33.5t191.5 33.5t150 99 t96 162t33.5 221.5t-33.5 221t-96 162.5t-149.5 100.5t-192 34q-104 0 -191 -34t-149.5 -100.5t-96.5 -162.5t-34 -221z" />
<glyph unicode="P" horiz-adv-x="1255" d="M152 0v1358h495q133 0 235.5 -27.5t174.5 -97.5q53 -51 82.5 -130t29.5 -179q0 -111 -33.5 -203t-99.5 -156q-51 -49 -113.5 -73.5t-170.5 -24.5h-410v-467h-190zM342 623h451q43 0 67.5 10t42.5 33q35 41 54.5 110.5t19.5 145.5q0 133 -64 200q-41 43 -109.5 60.5 t-160.5 17.5h-301v-577z" />
<glyph unicode="Q" horiz-adv-x="1486" d="M76 678q0 156 53 285t145.5 221t213 143t255.5 51t256 -51t213.5 -143t145.5 -221t53 -285q0 -111 -27.5 -208t-77 -177t-118 -141.5t-148.5 -102.5l238 -328l-191 -86l-219 357q-61 -12 -125 -12q-135 0 -255.5 51t-213 143t-145.5 220t-53 284zM272 678 q0 -125 34 -221.5t96.5 -162t149.5 -99t191 -33.5t191.5 33.5t150 99t96 162t33.5 221.5t-33.5 221t-96 162.5t-149.5 100.5t-192 34q-104 0 -191 -34t-149.5 -100.5t-96.5 -162.5t-34 -221z" />
<glyph unicode="R" horiz-adv-x="1312" d="M152 0v1358h491q150 0 249 -30t167 -97q51 -53 80.5 -127t29.5 -166q0 -141 -67.5 -245.5t-165.5 -164.5l313 -528h-178q-18 0 -26.5 5t-16.5 18l-262 454q-8 14 -15.5 17.5t-23.5 3.5h-385v-498h-190zM342 653h449q41 0 65.5 11.5t42.5 31.5q35 39 56.5 106.5 t21.5 127.5q0 66 -17.5 114t-48.5 80q-41 41 -101 58.5t-155 17.5h-313v-547z" />
<glyph unicode="S" horiz-adv-x="1165" d="M92 115l47 114l133 -32q92 -23 169 -36.5t147 -13.5q147 0 227 61.5t80 174.5q0 45 -12.5 78t-42 60.5t-77.5 51t-118 48.5l-158 55q-88 31 -157.5 64.5t-116.5 76.5t-72.5 97.5t-25.5 125.5q0 82 35.5 145.5t100 106.5t153 64.5t190.5 21.5q98 0 208.5 -21.5 t209.5 -62.5l-31 -120l-123 16q-70 10 -139.5 15t-122.5 5q-147 0 -226 -36.5t-79 -126.5q0 -37 13 -65t43 -51.5t78 -46t118 -46.5l151 -54q92 -33 163 -67.5t119 -80.5t73.5 -107.5t25.5 -143.5q0 -92 -34.5 -167t-98 -128t-154 -81.5t-202.5 -28.5q-63 0 -130 10 t-131.5 28.5t-124 43t-108.5 53.5z" />
<glyph unicode="T" horiz-adv-x="1198" d="M43 1200v158h1112v-158h-461v-1200h-190v1200h-461z" />
<glyph unicode="U" horiz-adv-x="1415" d="M143 516v842h191v-838q0 -92 18.5 -153.5t59.5 -106.5q45 -47 120.5 -73.5t176.5 -26.5q100 0 176 26.5t121 73.5q41 45 60 106.5t19 153.5v838h187v-840q0 -250 -133 -381q-72 -72 -183.5 -114.5t-246.5 -42.5t-248 41.5t-185 113.5q-68 66 -100.5 159t-32.5 222z" />
<glyph unicode="V" horiz-adv-x="1343" d="M20 1358h177q12 0 18 -3t10 -16l287 -721q25 -63 50.5 -127.5t48 -126t41 -115.5t30.5 -93h4q10 37 28.5 90t41 114.5t46 126t46.5 123.5l276 729q4 10 9.5 14.5t17.5 4.5h172l-532 -1358h-191q-18 0 -25.5 4t-13.5 19z" />
<glyph unicode="W" horiz-adv-x="2033" d="M20 1358h170q14 0 20.5 -3t10.5 -16l219 -682q20 -68 42 -135t40.5 -128.5t33.5 -115t24 -92.5h4q6 37 19 90.5t28.5 115t35 127t38.5 130.5l208 709h162q16 0 23.5 -3t11.5 -20l215 -680q18 -55 36.5 -118.5t37 -126t35 -121t28.5 -103.5h4q18 88 54 209t77 252l222 692 q4 12 10 15.5t18 3.5h166l-444 -1358h-191q-29 0 -37 23l-196 620q-20 63 -41 132t-39 132.5t-32.5 118.5t-22.5 94h-4q-10 -39 -24.5 -96t-32 -123.5t-36 -135.5t-36.5 -130l-185 -635h-192q-29 0 -37 23z" />
<glyph unicode="X" horiz-adv-x="1323" d="M16 0l527 709l-498 649h184q18 0 25.5 -3t17.5 -16l383 -497l367 497q10 12 17.5 15.5t25.5 3.5h172l-475 -645l545 -713h-183q-16 0 -23 4t-18 14l-432 564l-413 -564q-8 -10 -16.5 -14t-28.5 -4h-177z" />
<glyph unicode="Y" horiz-adv-x="1271" d="M4 1358h184q12 0 18.5 -3t14.5 -16l213 -370q72 -125 124 -220.5t81 -154.5h4q29 59 81 155.5t122 219.5l211 370q10 18 35 19h176l-535 -914v-444h-190v444z" />
<glyph unicode="Z" horiz-adv-x="1177" d="M86 0v92q0 16 5 28.5t18 31.5l520 741q76 106 132 183t91 124h-764v158h993v-94q0 -27 -22 -60l-518 -741q-78 -111 -138.5 -190.5t-85.5 -114.5h775v-158h-1006z" />
<glyph unicode="[" horiz-adv-x="632" d="M160 -469v1827h448v-160h-272v-1507h272v-160h-448z" />
<glyph unicode="\" horiz-adv-x="917" d="M23 1358h186l686 -1358h-186z" />
<glyph unicode="]" horiz-adv-x="618" d="M25 -309h272v1507h-272v160h448v-1827h-448v160z" />
<glyph unicode="^" horiz-adv-x="1089" d="M141 928l338 450h131l338 -450l-125 -84l-278 366h-2l-279 -366z" />
<glyph unicode="_" horiz-adv-x="958" d="M29 -123h901v-141h-901v141z" />
<glyph unicode="`" horiz-adv-x="815" d="M156 1343l82 121q10 14 17 15.5t21 -9.5l383 -284l-61 -82z" />
<glyph unicode="a" horiz-adv-x="1097" d="M68 315q0 131 89 201t253 70h16q31 0 71 -2t84 -5.5t87 -8.5t80 -9v80q0 59 -10.5 93t-32.5 59q-29 33 -77 47t-110 14q-55 0 -115.5 -12.5t-119.5 -34.5l-103 -37l-57 98q102 74 205.5 111t206.5 37q90 0 168.5 -27.5t134.5 -87.5q43 -47 66.5 -108.5t23.5 -157.5v-488 l145 -25v-93q-31 -14 -71.5 -23.5t-79.5 -9.5q-53 0 -93.5 24.5t-62.5 67.5l-68 -35q-57 -29 -124.5 -49t-135.5 -20q-86 0 -153.5 26.5t-116.5 73.5q-47 45 -73.5 104.5t-26.5 126.5zM248 322q0 -78 55 -131.5t162 -53.5q66 0 138.5 19.5t125.5 48.5q18 10 19 33v186 q0 10 -4.5 15t-20.5 5h-348q-37 0 -59.5 -7t-36.5 -21q-31 -31 -31 -94z" />
<glyph unicode="b" horiz-adv-x="1159" d="M137 0v1452h180v-547l54 29q74 41 141.5 61.5t132.5 20.5q92 0 173 -37t139.5 -104.5t92 -163t33.5 -211.5q0 -117 -31.5 -212t-90 -163t-139.5 -104.5t-181 -36.5q-66 0 -130.5 18t-135.5 57l-70 37l-37 -96h-131zM317 260q0 -18 6.5 -25.5t16.5 -13.5q53 -29 126 -50 t142 -21q61 0 113.5 16t91.5 57t61.5 107.5t22.5 169.5q0 98 -21.5 165.5t-60.5 107.5t-90 57.5t-113 17.5q-70 0 -144.5 -21.5t-127.5 -50.5q-10 -6 -16.5 -13t-6.5 -26v-477z" />
<glyph unicode="c" horiz-adv-x="1048" d="M74 504q0 111 36.5 205t101 161.5t154 106.5t191.5 39q74 0 141.5 -21.5t123 -61.5t95 -94.5t60.5 -119.5l-115 -60l-71 68q-72 68 -125.5 98.5t-124.5 30.5q-123 0 -202 -91t-79 -257q0 -180 83 -270.5t237 -90.5q102 0 241 64l113 51l61 -92q-92 -82 -206.5 -134 t-229.5 -52q-111 0 -201 38.5t-152.5 108.5t-97 165t-34.5 208z" />
<glyph unicode="d" horiz-adv-x="1163" d="M76 496q0 125 39 221t102.5 162.5t145 101.5t165.5 35q70 0 135.5 -20.5t131.5 -55.5l51 -27v539h180v-1452h-131l-35 98l-72 -39q-76 -41 -138 -58t-130 -17q-98 0 -180 36.5t-140.5 104.5t-91 162t-32.5 209zM262 498q0 -186 77 -267t212 -81q68 0 143.5 20t128.5 49 q14 8 18.5 16.5t4.5 24.5v479q0 18 -4 26.5t-21 16.5q-59 31 -127.5 49.5t-132.5 18.5q-141 0 -220 -86t-79 -266z" />
<glyph unicode="e" horiz-adv-x="1097" d="M74 500q0 115 36.5 210t101 162.5t153 105.5t190.5 38t187 -37t146.5 -101.5t96.5 -150.5t35 -184q0 -51 -12.5 -70.5t-36.5 -19.5h-711q10 -135 89 -220.5t237 -85.5q59 0 124.5 16.5t123.5 39.5l110 43l60 -96q-94 -74 -208 -120t-225 -46q-115 0 -206 38.5 t-156.5 108.5t-100 164t-34.5 205zM260 592h582q-8 117 -82 189.5t-203 72.5q-127 0 -206 -68.5t-91 -193.5z" />
<glyph unicode="f" horiz-adv-x="712" d="M4 860v103l182 32q-10 35 -17 77t-7 81q0 80 28.5 139.5t75.5 98.5t108.5 58t129.5 19q76 0 160 -24.5t151 -65.5l-41 -104l-78 16q-43 10 -87 16.5t-85 6.5q-88 0 -136 -41t-48 -135q0 -31 6 -71t16 -67h367v-139h-356v-860h-180v860h-189z" />
<glyph unicode="g" horiz-adv-x="1105" d="M35 -162q0 70 33.5 119t89.5 80q-35 39 -35 80q0 29 15.5 56.5t43.5 62.5l78 96q-66 53 -107.5 129t-41.5 168q0 84 32.5 154.5t90 122.5t134 81t164.5 29q76 0 146 -23.5t123 -64.5q78 59 121 83.5t79 24.5q27 0 52.5 -10t48.5 -27v-102l-199 -45q-20 -6 -10 -23 q29 -45 45 -94t16 -106q0 -84 -32.5 -155t-90 -123t-134 -80.5t-165.5 -28.5q-49 0 -87.5 7t-63.5 17q-10 4 -15.5 2t-9.5 -10l-37 -63q-16 -27 -16 -39q0 -10 12.5 -17.5t46.5 -7.5h302q111 0 182.5 -22.5t116.5 -67.5q35 -35 51 -82t16 -102q0 -78 -37 -144.5t-103.5 -114 t-158.5 -74t-203 -26.5t-201.5 25.5t-155.5 72t-100.5 107.5t-35.5 135zM205 -141q0 -94 85 -152.5t238 -58.5q145 0 237.5 53t92.5 154q0 57 -33 86q-23 20 -63.5 27t-97.5 7h-340q-59 0 -86 -24q-33 -31 -33 -92zM285 629q0 -119 67.5 -177.5t179.5 -58.5 q113 0 180.5 58.5t67.5 177.5t-67.5 177t-180.5 58t-180 -58t-67 -177z" />
<glyph unicode="h" horiz-adv-x="1134" d="M137 0v1452h180v-530l45 22q59 29 128 50.5t135 21.5q90 0 164.5 -27.5t125.5 -77.5q47 -47 73 -112.5t26 -167.5v-631h-180v623q0 70 -12.5 106.5t-39.5 63.5q-29 29 -79 41t-109 12h-2q-66 0 -137.5 -16.5t-118.5 -38.5q-12 -6 -15.5 -13.5t-3.5 -19.5v-758h-180z" />
<glyph unicode="i" horiz-adv-x="458" d="M135 1190v192h152q23 0 30 -7t7 -25v-160h-189zM139 0v999h180v-999h-180z" />
<glyph unicode="j" horiz-adv-x="446" d="M-135 -365l102 19q47 10 78 20.5t49 28.5q18 20 25.5 51t7.5 84v1161h180v-1151q0 -82 -17.5 -144t-60.5 -107q-74 -74 -215 -74q-35 0 -77.5 5t-71.5 13v94zM123 1190v192h151q23 0 30 -7t7 -25v-160h-188z" />
<glyph unicode="k" horiz-adv-x="1089" d="M137 0v1452h180v-930l594 498l99 -113l-355 -295l418 -612h-176q-18 0 -26.5 4t-18.5 16l-326 490q-47 -39 -102 -78t-107 -70v-362h-180z" />
<glyph unicode="l" horiz-adv-x="512" d="M139 188v1264h180v-1305l179 -28v-90q-31 -14 -82 -24.5t-92 -10.5q-86 0 -136 49q-49 49 -49 145z" />
<glyph unicode="m" horiz-adv-x="1781" d="M137 0v999h131l31 -86l63 33q59 31 127 50.5t127 19.5q84 0 160 -29t135 -92l70 37q86 45 155.5 64.5t145.5 19.5q86 0 157.5 -27.5t123.5 -77.5q47 -47 72.5 -112.5t25.5 -167.5v-631h-180v623q0 70 -12.5 106.5t-38.5 63.5q-29 29 -76 41t-105 12q-66 0 -131 -14.5 t-119 -38.5q-16 -10 -20 -14.5t0 -16.5q6 -27 10 -59.5t4 -69.5v-633h-180v623q0 70 -12.5 106.5t-38.5 63.5q-29 29 -76 41t-104 12q-66 0 -129.5 -15.5t-116.5 -39.5q-12 -6 -15.5 -13.5t-3.5 -19.5v-758h-180z" />
<glyph unicode="n" horiz-adv-x="1134" d="M137 0v999h131l31 -86l63 31q59 29 128 50.5t135 21.5q90 0 164.5 -27.5t125.5 -77.5q47 -47 73 -112.5t26 -167.5v-631h-180v623q0 70 -12.5 106.5t-39.5 63.5q-29 29 -79 41t-109 12h-2q-66 0 -137.5 -16.5t-118.5 -38.5q-12 -6 -15.5 -13.5t-3.5 -19.5v-758h-180z" />
<glyph unicode="o" horiz-adv-x="1132" d="M74 500q0 119 39 214t105.5 162.5t155.5 103.5t189 36h6q100 0 189.5 -36t156 -103.5t105.5 -162.5t39 -214t-39 -214.5t-105.5 -163t-155.5 -103t-190 -35.5h-6q-100 0 -189 35.5t-155.5 103t-105.5 163t-39 214.5zM260 500q0 -170 78 -259t225 -89h6q147 0 225 89 t78 259t-77.5 259t-225.5 89h-6q-147 0 -225 -89t-78 -259z" />
<glyph unicode="p" horiz-adv-x="1159" d="M137 -469v1468h131l37 -100l66 35q78 41 143.5 61.5t130.5 20.5q92 0 173 -37t139.5 -104.5t92 -163t33.5 -211.5q0 -117 -31.5 -212t-90 -163t-140.5 -104.5t-180 -36.5q-66 0 -130.5 18t-135.5 57l-58 31v-559h-180zM317 260q0 -18 6.5 -25.5t16.5 -13.5 q53 -29 126 -50t142 -21q61 0 114.5 16t91.5 57t60.5 107.5t22.5 169.5q0 98 -21.5 165.5t-60.5 107.5t-90 57.5t-113 17.5q-70 0 -144.5 -21.5t-127.5 -50.5q-10 -6 -16.5 -13t-6.5 -26v-477z" />
<glyph unicode="q" horiz-adv-x="1163" d="M76 496q0 125 39 221t102.5 162.5t145 101.5t165.5 35q70 0 135.5 -20.5t131.5 -55.5l67 -35l33 94h131v-1468h-180v559l-58 -31q-76 -41 -138 -58t-130 -17q-98 0 -180 36.5t-140.5 104.5t-91 162t-32.5 209zM262 498q0 -186 77 -267t212 -81q68 0 143.5 20t128.5 49 q14 8 18.5 16.5t4.5 24.5v479q0 18 -4 26.5t-21 16.5q-59 31 -127.5 49.5t-132.5 18.5q-141 0 -220 -86t-79 -266z" />
<glyph unicode="r" horiz-adv-x="743" d="M137 0v999h129l39 -135q131 86 203 119t123 33q27 0 52.5 -8t47.5 -17v-119q-68 -14 -174 -45.5t-219 -74.5q-20 -8 -21 -31v-721h-180z" />
<glyph unicode="s" horiz-adv-x="950" d="M74 98l45 105l88 -23q104 -27 171.5 -36t119.5 -9q211 0 211 156q0 53 -37 80.5t-131 56.5l-148 45q-156 47 -227.5 107.5t-71.5 169.5q0 66 30 114.5t79 81.5q55 37 131 53.5t155 16.5q86 0 175.5 -17.5t169.5 -50.5l-31 -112l-94 12q-47 6 -108.5 11t-108.5 5 q-109 0 -170.5 -24.5t-61.5 -87.5q0 -53 47 -78t127 -49l141 -43q80 -25 135.5 -49.5t90.5 -55.5q76 -68 76 -186q0 -72 -28 -129.5t-79 -97t-120.5 -60t-151.5 -20.5q-102 0 -217 30.5t-207 83.5z" />
<glyph unicode="t" horiz-adv-x="823" d="M-6 860v103l188 34v291h180v-289h357v-139h-357v-567q0 -82 35 -117t107 -35q31 0 72.5 8.5t99.5 24.5l72 19l43 -99q-66 -47 -153 -78.5t-165 -31.5q-68 0 -121 20.5t-90 54.5q-80 76 -80 228v573h-188z" />
<glyph unicode="u" horiz-adv-x="1126" d="M121 369v630h180v-622q0 -70 12.5 -107t38.5 -63q29 -29 78 -41t109 -12h2q66 0 134 16t116 39q12 6 15 13t3 20v757h180v-999h-131l-31 86l-63 -31q-59 -29 -125 -50t-131 -21q-90 0 -164 27.5t-125 76.5q-47 47 -72.5 112.5t-25.5 168.5z" />
<glyph unicode="v" horiz-adv-x="1054" d="M10 999h166q14 0 19.5 -3t11.5 -17l194 -457q18 -43 38 -92t38.5 -95t33.5 -88t26 -69h2q16 51 53 145.5t80 198.5l182 457q6 14 11 17t22 3h160l-420 -999h-158q-16 0 -22.5 5t-10.5 15z" />
<glyph unicode="w" horiz-adv-x="1638" d="M14 999h162q16 0 21.5 -4t9.5 -16l162 -449q41 -115 69.5 -199.5t46.5 -144.5q12 51 36 139.5t57 192.5l149 481h164q14 0 20.5 -3t10.5 -15l155 -451q37 -109 67 -198.5t46 -145.5q12 51 41 144.5t63 197.5l152 451q4 12 10 16t23 4h145l-346 -999h-166q-29 0 -35 20 l-141 424q-37 111 -67.5 206t-49.5 161q-16 -70 -43.5 -166t-56.5 -194l-135 -451h-168q-16 0 -23.5 5t-11.5 15z" />
<glyph unicode="x" horiz-adv-x="1038" d="M14 0l381 522l-370 477h176q18 0 25 -3t18 -15l266 -346l252 346q8 10 14 14t23 4h166l-351 -479l406 -520h-180q-14 0 -20.5 3t-16.5 13l-303 392l-281 -392q-8 -10 -14 -13t-23 -3h-168z" />
<glyph unicode="y" horiz-adv-x="1052" d="M10 999h164q14 0 19.5 -3t11.5 -17l196 -457q18 -43 38 -92t38.5 -95t33.5 -88t26 -69h2q16 51 53 145.5t80 198.5l184 457q6 14 11 17t22 3h155l-614 -1472l-166 37l187 426z" />
<glyph unicode="z" horiz-adv-x="968" d="M90 0v74q0 18 4 27.5t15 25.5l354 467q25 31 52.5 67.5t56 72.5t55 69t47.5 57h-568v139h787v-73q0 -18 -4 -27.5t-15 -26.5l-350 -466q-59 -80 -112.5 -146.5t-94.5 -118.5h584v-141h-811z" />
<glyph unicode="{" horiz-adv-x="692" d="M86 387v117q61 12 102 28.5t67 40t36 56.5t10 78q0 47 -9 106t-19.5 119.5t-19.5 118t-9 98.5q0 111 69.5 170t184.5 59q43 0 96 -9t94 -19v-99l-203 -30q-39 -6 -53 -21.5t-14 -50.5q0 -33 9 -89t19.5 -119.5t19.5 -126t9 -109.5q0 -45 -10 -82t-34.5 -69t-65.5 -58.5 t-103 -51.5q61 -25 102.5 -51t66 -57t34.5 -68t10 -82q0 -47 -9 -109.5t-19.5 -126t-19.5 -119.5t-9 -89q0 -35 14 -50.5t53 -21.5l203 -30v-99q-41 -10 -94 -19t-96 -9q-115 0 -184.5 59t-69.5 170q0 41 9 98.5t19.5 117.5t19.5 119.5t9 106.5q0 88 -46 134.5t-169 68.5z " />
<glyph unicode="|" horiz-adv-x="497" d="M166 -469v1921h166v-1921h-166z" />
<glyph unicode="}" horiz-adv-x="692" d="M4 -360l203 30q39 6 53 21.5t14 50.5q0 33 -9 89t-19 119.5t-19.5 126t-9.5 109.5q0 45 10.5 82t35 69t65.5 58.5t102 50.5q-61 25 -102 51.5t-65.5 57.5t-35 67.5t-10.5 82.5q0 47 9.5 109.5t19.5 126t19 119.5t9 89q0 35 -14 50t-53 22l-203 30v99q41 10 94.5 19 t96.5 9q115 0 184.5 -59t69.5 -170q0 -41 -9.5 -98.5t-19.5 -118t-19.5 -119.5t-9.5 -106q0 -45 10.5 -78t36 -56.5t66.5 -40t102 -28.5v-117q-123 -23 -169 -69t-46 -134q0 -47 9.5 -106.5t19.5 -119.5t19.5 -117.5t9.5 -98.5q0 -111 -70 -170t-184 -59q-43 0 -96.5 9 t-94.5 19v99z" />
<glyph unicode="~" horiz-adv-x="1089" d="M129 602q27 94 96.5 153.5t155.5 59.5q45 0 88 -14.5t84 -30.5t79 -30.5t75 -14.5q53 0 86.5 22.5t66.5 73.5l98 -35q-27 -94 -96 -153.5t-155 -59.5q-47 0 -89.5 14.5t-83 31t-78.5 31t-75 14.5q-53 0 -87 -23t-67 -74z" />
<glyph unicode="&#xa1;" horiz-adv-x="514" d="M140 833v166h200v-201h-159q-25 0 -33 7.5t-8 27.5zM146 145q0 41 2 85t6 97l31 314h110l31 -314q4 -53 6 -97t2 -85v-504h-188v504z" />
<glyph unicode="&#xa2;" d="M164 504q0 104 32.5 194t91 158t138.5 109t174 49l16 219h95v-223q125 -18 220 -96t130 -195l-115 -60l-72 68q-47 45 -84.5 72.5t-78.5 40.5v-688q86 8 200 61l113 51l61 -94q-80 -72 -177 -121t-197 -61l-17 -226h-94v226q-100 8 -181 50t-137.5 110.5t-87 158.5 t-30.5 197zM350 508q0 -160 64.5 -247t185.5 -107v698q-111 -10 -180.5 -99t-69.5 -245z" />
<glyph unicode="&#xa3;" d="M106 606v101l156 22q-18 66 -31.5 129.5t-13.5 122.5q0 90 32 164t88 126t135 79.5t175 27.5q150 0 277 -72.5t198 -189.5l-100 -82l-104 76q-66 47 -131.5 74.5t-143.5 27.5q-115 0 -182.5 -58t-67.5 -175q0 -53 13.5 -115.5t33.5 -126.5h424v-131h-385q37 -117 37 -188 q0 -66 -33.5 -123t-107.5 -141h755v-154h-952v98q0 20 3 29.5t20 28.5l59 73q49 61 65.5 100.5t16.5 82.5q0 35 -12.5 85t-30.5 109h-193z" />
<glyph unicode="&#xa4;" horiz-adv-x="1261" d="M125 307l151 152q-55 92 -55 219t55 219l-151 152l115 114l145 -143q104 80 246 80q141 0 246 -80l145 143l115 -114l-152 -152q55 -92 55 -219t-55 -219l152 -152l-115 -114l-145 143q-104 -80 -246 -80q-141 0 -246 80l-145 -143zM387 678q0 -123 62.5 -196.5 t181.5 -73.5t181 73.5t62 196.5t-62 196.5t-181 73.5t-181.5 -73.5t-62.5 -196.5z" />
<glyph unicode="&#xa5;" d="M20 1358h179q23 0 32 -19l222 -397q27 -47 52 -96t49 -96.5t44 -88t33 -71.5h2q29 66 75 157t103 195l219 397q10 18 33 19h168l-459 -815h244v-123h-295v-80h295v-123h-295v-217h-186v217h-291v123h291v80h-291v123h237z" />
<glyph unicode="&#xa6;" horiz-adv-x="497" d="M166 387h166v-856h-166v856zM166 596v856h166v-856h-166z" />
<glyph unicode="&#xa7;" horiz-adv-x="1191" d="M125 494q0 82 41 155.5t98 128.5q-96 94 -96 246q0 76 30.5 141.5t88 111.5t136.5 72.5t175 26.5q111 0 213 -30.5t190 -79.5l-38 -113l-97 25q-72 18 -135 28.5t-121 10.5q-119 0 -193.5 -48.5t-74.5 -146.5q0 -45 16.5 -78t45 -57.5t70.5 -44t91 -35.5l135 -45 q82 -29 150 -61.5t116 -76.5t74.5 -100.5t26.5 -130.5q0 -84 -42 -156.5t-97 -127.5q96 -96 96 -246q0 -78 -30.5 -142.5t-88 -110.5t-136.5 -72.5t-175 -26.5q-111 0 -213 30.5t-191 79.5l39 113l97 -25q72 -18 135 -28.5t121 -10.5q119 0 193.5 48.5t74.5 146.5 q0 45 -16.5 77.5t-45 57.5t-70.5 44t-91 36l-135 45q-82 29 -150 61.5t-116 76.5t-74.5 100.5t-26.5 130.5zM297 510q0 -39 12.5 -69.5t41 -57.5t75.5 -50.5t119 -47.5l141 -47q35 -12 66.5 -25t60.5 -29q35 45 58.5 95.5t23.5 97.5q0 76 -53.5 127t-194.5 98l-141 47 q-35 12 -66.5 24.5t-60.5 28.5q-35 -45 -58.5 -95t-23.5 -97z" />
<glyph unicode="&#xa8;" horiz-adv-x="815" d="M113 1169v197h163q23 0 30 -6t7 -25v-166h-200zM500 1169v197h164q23 0 29.5 -6t6.5 -25v-166h-200z" />
<glyph unicode="&#xa9;" horiz-adv-x="1531" d="M72 680q0 143 53 271t147.5 222.5t220 149.5t273.5 55q147 0 273 -55t220.5 -149.5t147.5 -222.5t53 -271q0 -145 -53 -272t-147.5 -222.5t-220.5 -150.5t-273 -55t-273 55t-220.5 150.5t-147.5 222.5t-53 272zM225 680q0 -123 39 -225.5t110.5 -176t171 -114.5 t220.5 -41t220 41t171 114.5t111 176t39 225.5t-39 225.5t-111 176t-171 113.5t-220 40t-220.5 -40t-171 -113.5t-110.5 -176t-39 -225.5zM475 684q0 72 23.5 128t63.5 96t94.5 60.5t113.5 20.5q86 0 153.5 -47t98.5 -125l-76 -53l-57 53q-29 29 -58.5 42t-68.5 13 q-63 0 -109.5 -45t-46.5 -143q0 -80 43 -133t133 -53q53 0 129 39l80 41l47 -74q-51 -53 -121.5 -89t-146.5 -36q-63 0 -117.5 22.5t-93.5 62.5t-61.5 96t-22.5 124z" />
<glyph unicode="&#xaa;" horiz-adv-x="968" d="M80 799q0 117 75.5 168t200.5 51h17q49 0 123.5 -5t134.5 -14v56q0 84 -41 129q-47 51 -144 51q-84 0 -188 -37l-88 -33l-49 92q86 59 171 90t167 31q74 0 140.5 -23.5t113.5 -72.5q37 -39 57.5 -92t20.5 -131v-385l106 -21v-84q-27 -12 -59.5 -20t-61.5 -8 q-90 0 -129 73l-41 -20q-131 -66 -227 -66q-63 0 -117.5 20.5t-94.5 56.5t-63.5 85t-23.5 109zM236 805q0 -63 45 -101t127 -38q47 0 106 16t98 33q18 8 19 28v138q0 14 -17 14h-292q-41 0 -63.5 -20.5t-22.5 -69.5z" />
<glyph unicode="&#xab;" horiz-adv-x="1228" d="M98 469v90l439 350l79 -80l-331 -325v-2l331 -328l-79 -80l-420 336q-10 10 -14.5 16.5t-4.5 22.5zM602 469v90l438 350l80 -80l-332 -325v-2l332 -328l-80 -80l-419 336q-10 10 -14.5 16.5t-4.5 22.5z" />
<glyph unicode="&#xac;" horiz-adv-x="1089" d="M156 621v145h778v-526h-146v381h-632z" />
<glyph unicode="&#xad;" horiz-adv-x="851" d="M117 424v151h618v-151h-618z" />
<glyph unicode="&#xae;" horiz-adv-x="1531" d="M72 680q0 143 53 271t147.5 222.5t220 149.5t273.5 55q147 0 273 -55t220.5 -149.5t147.5 -222.5t53 -271q0 -145 -53 -272t-147.5 -222.5t-220.5 -150.5t-273 -55t-273 55t-220.5 150.5t-147.5 222.5t-53 272zM225 680q0 -123 39 -225.5t110.5 -176t171 -114.5 t220.5 -41t220 41t171 114.5t111 176t39 225.5t-39 225.5t-111 176t-171 113.5t-220 40t-220.5 -40t-171 -113.5t-110.5 -176t-39 -225.5zM524 387v594h246q59 0 104.5 -12.5t75.5 -40.5q23 -23 37 -56.5t14 -76.5q0 -61 -30.5 -105.5t-81.5 -71.5l135 -231h-113 q-20 0 -28 14l-107 191q-6 8 -16 8h-111v-213h-125zM649 702h168q29 0 41 19q20 31 21 72q0 39 -23 61q-25 23 -90 23h-117v-175z" />
<glyph unicode="&#xaf;" horiz-adv-x="815" d="M100 1196v137h615v-137h-615z" />
<glyph unicode="&#xb0;" horiz-adv-x="913" d="M109 1038q0 76 26.5 138.5t73.5 107.5t110.5 69.5t137.5 24.5t137 -24.5t110.5 -69.5t74 -107.5t26.5 -138.5t-26.5 -138t-74 -107t-111 -70t-136.5 -25q-74 0 -137.5 25t-110.5 70t-73.5 107t-26.5 138zM264 1038q0 -92 50.5 -145t142.5 -53t142 53t50 145t-50 145.5 t-142 53.5t-142.5 -53.5t-50.5 -145.5z" />
<glyph unicode="&#xb1;" horiz-adv-x="1089" d="M156 0v145h778v-145h-778zM156 588v145h315v275h145v-275h318v-145h-318v-277h-145v277h-315z" />
<glyph unicode="&#xb2;" horiz-adv-x="811" d="M133 1284q55 41 122 67.5t132 26.5q109 0 173.5 -58t64.5 -149q0 -66 -38 -121t-128 -137l-121 -108h307v-117h-485v74q0 16 2 20t12 15l211 211q51 51 74.5 88t23.5 73q0 41 -27.5 64.5t-74.5 23.5q-35 0 -68.5 -9t-81.5 -25l-55 -21z" />
<glyph unicode="&#xb3;" horiz-adv-x="811" d="M131 784l45 78l92 -35q37 -14 70 -22t65 -8q55 0 86 26.5t31 79.5q0 33 -16 49q-14 14 -34.5 18.5t-55.5 4.5h-70q-18 0 -18 16v84h131q20 0 30 15q10 16 15.5 37.5t5.5 37.5q0 45 -27.5 68.5t-77.5 23.5q-33 0 -63.5 -7t-65.5 -21l-71 -27l-45 82q59 41 124.5 67.5 t129.5 26.5q45 0 87 -13t74.5 -37.5t51 -60.5t18.5 -81q0 -82 -68 -150q88 -45 89 -143q0 -104 -71 -160.5t-181 -56.5q-78 0 -153 30.5t-128 77.5z" />
<glyph unicode="&#xb4;" horiz-adv-x="815" d="M156 1186l383 284q14 10 21 9.5t18 -15.5l81 -121l-442 -239z" />
<glyph unicode="&#xb5;" horiz-adv-x="1142" d="M137 -469v1468h180v-622q0 -70 12.5 -107t39.5 -63q29 -29 78 -41t108 -12h2q66 0 134.5 16t115.5 39q12 6 15 13t3 20v757h181v-999h-132l-30 86l-64 -31q-59 -29 -124.5 -50t-131.5 -21q-63 0 -116.5 16t-90.5 43v-512h-180z" />
<glyph unicode="&#xb6;" horiz-adv-x="1099" d="M90 913v445h989v-139h-176v-1688h-147v1688h-140v-1688h-147v1307h-299q-49 0 -64.5 17t-15.5 58z" />
<glyph unicode="&#xb7;" horiz-adv-x="446" d="M121 467v209h164q25 0 33 -7t8 -28v-174h-205z" />
<glyph unicode="&#xb8;" horiz-adv-x="815" d="M219 -365l127 25q47 10 66.5 23.5t19.5 31.5q0 20 -32.5 33.5t-72.5 29t-73 38t-33 61.5q0 35 29 77t69 81l91 -17q-20 -25 -32.5 -46t-12.5 -38q0 -23 35.5 -35t78.5 -29t79 -48t36 -92q0 -86 -87 -141.5t-267 -55.5z" />
<glyph unicode="&#xb9;" horiz-adv-x="811" d="M143 1260l234 100q16 6 23.5 8t19.5 2h72v-567h151v-115h-473v115h184v426q-10 -8 -29.5 -17.5t-45.5 -19.5l-95 -31z" />
<glyph unicode="&#xba;" horiz-adv-x="966" d="M72 954q0 98 32.5 176t89 133.5t131 85t158.5 29.5t159 -29.5t131 -85t89 -133.5t33 -176t-33 -176t-89 -133t-131 -85t-159 -30t-158.5 30t-131 85t-89 133t-32.5 176zM238 954q0 -123 61 -198.5t184 -75.5t184.5 75.5t61.5 198.5t-61.5 199t-184.5 76t-184 -76 t-61 -199z" />
<glyph unicode="&#xbb;" horiz-adv-x="1228" d="M109 174l331 326v2l-331 327l79 80l420 -336q10 -10 14.5 -16t4.5 -22v-91l-439 -350zM612 174l332 326v2l-332 327l80 80l420 -336q10 -10 14 -16t4 -22v-91l-438 -350z" />
<glyph unicode="&#xbc;" horiz-adv-x="1804" d="M147 1247l234 101q16 6 23.5 8t19.5 2h72v-567h151v-115h-473v115h184v426q-10 -8 -29.5 -17.5t-45.5 -19.5l-95 -31zM510 0l674 1358h166l-672 -1358h-168zM1026 160v69q0 16 3 23.5t13 23.5l316 383q12 16 19 19.5t24 3.5h121v-410h108v-112h-108v-160h-138v160h-358z M1174 272h210v265q-8 -14 -23 -36t-32 -42l-96 -119q-14 -16 -31.5 -36.5t-27.5 -31.5z" />
<glyph unicode="&#xbd;" horiz-adv-x="1802" d="M147 1250l234 100q16 6 23.5 8t19.5 2h72v-567h151v-115h-473v115h184v426q-10 -8 -29.5 -17.5t-45.5 -19.5l-95 -31zM506 0l673 1358h166l-672 -1358h-167zM1126 598q55 41 122 67.5t132 26.5q109 0 173.5 -58t64.5 -149q0 -66 -38 -121t-128 -137l-121 -108h307v-117 h-485v74q0 16 2 20t12 15l211 211q51 51 74.5 88t23.5 73q0 41 -27.5 64.5t-74.5 23.5q-35 0 -68.5 -9t-81.5 -25l-55 -21z" />
<glyph unicode="&#xbe;" horiz-adv-x="1804" d="M152 772l45 78l92 -35q37 -14 69.5 -22.5t65.5 -8.5q55 0 86 27t31 80q0 33 -17 49q-14 14 -34.5 18.5t-55.5 4.5h-69q-18 0 -19 16v84h131q20 0 31 14q10 16 15 38t5 38q0 45 -27.5 68.5t-76.5 23.5q-33 0 -63.5 -7t-65.5 -21l-72 -27l-45 82q59 41 125 67.5t129 26.5 q45 0 87 -13.5t75 -38t51.5 -60t18.5 -80.5q0 -82 -68 -150q88 -45 88 -143q0 -104 -70.5 -160.5t-181.5 -56.5q-78 0 -152.5 30.5t-127.5 77.5zM498 0l673 1358h166l-671 -1358h-168zM1026 160v69q0 16 3 23.5t13 23.5l316 383q12 16 19 19.5t24 3.5h121v-410h108v-112 h-108v-160h-138v160h-358zM1174 272h210v265q-8 -14 -23 -36t-32 -42l-96 -119q-14 -16 -31.5 -36.5t-27.5 -31.5z" />
<glyph unicode="&#xbf;" horiz-adv-x="1015" d="M72 -2q0 123 74.5 217t232.5 166l111 51l35 209h114l21 -125q4 -29 7 -53.5t3 -38.5q0 -35 -13.5 -52.5t-56.5 -42.5l-69 -39q-66 -37 -116 -67.5t-83 -63t-49 -69.5t-16 -86q0 -104 72.5 -157.5t183.5 -53.5q59 0 118.5 14t151.5 49l117 43l59 -104q-98 -82 -218 -128 t-237 -46q-90 0 -171 25.5t-141 74.5t-95 118.5t-35 158.5zM484 837v162h196v-197h-155q-25 0 -33 7.5t-8 27.5z" />
<glyph unicode="&#xc0;" horiz-adv-x="1382" d="M29 0l544 1358h187q16 0 22 -4t13 -19l559 -1335h-174q-25 0 -33 20l-123 299h-680l-115 -299q-4 -12 -10 -16t-22 -4h-168zM401 471h562l-113 283q-68 170 -110 275.5t-62 162.5h-2q-18 -53 -59.5 -162.5t-106.5 -275.5zM439 1712l82 121q10 14 17 15t21 -9l383 -285 l-61 -81z" />
<glyph unicode="&#xc1;" horiz-adv-x="1382" d="M29 0l544 1358h187q16 0 22 -4t13 -19l559 -1335h-174q-25 0 -33 20l-123 299h-680l-115 -299q-4 -12 -10 -16t-22 -4h-168zM401 471h562l-113 283q-68 170 -110 275.5t-62 162.5h-2q-18 -53 -59.5 -162.5t-106.5 -275.5zM439 1554l383 285q14 10 21 9t18 -15l81 -121 l-442 -239z" />
<glyph unicode="&#xc2;" horiz-adv-x="1382" d="M29 0l544 1358h187q16 0 22 -4t13 -19l559 -1335h-174q-25 0 -33 20l-123 299h-680l-115 -299q-4 -12 -10 -16t-22 -4h-168zM342 1548l258 260q16 16 24 19.5t29 3.5h51q20 0 28.5 -3t24.5 -20l258 -260l-71 -71l-262 209h-2l-265 -209zM401 471h562l-113 283 q-68 170 -110 275.5t-62 162.5h-2q-18 -53 -59.5 -162.5t-106.5 -275.5z" />
<glyph unicode="&#xc3;" horiz-adv-x="1382" d="M29 0l544 1358h187q16 0 22 -4t13 -19l559 -1335h-174q-25 0 -33 20l-123 299h-680l-115 -299q-4 -12 -10 -16t-22 -4h-168zM329 1550q23 90 76 147.5t135 57.5q37 0 73 -14.5t70 -30.5t63.5 -30.5t56.5 -14.5q39 0 66.5 21.5t55.5 72.5l97 -28q-23 -90 -76 -147.5 t-135 -57.5q-37 0 -73 14t-69.5 30.5t-63.5 31t-56 14.5q-39 0 -67 -21.5t-56 -72.5zM401 471h562l-113 283q-68 170 -110 275.5t-62 162.5h-2q-18 -53 -59.5 -162.5t-106.5 -275.5z" />
<glyph unicode="&#xc4;" horiz-adv-x="1382" d="M29 0l544 1358h187q16 0 22 -4t13 -19l559 -1335h-174q-25 0 -33 20l-123 299h-680l-115 -299q-4 -12 -10 -16t-22 -4h-168zM385 1538v197h163q23 0 30 -6.5t7 -24.5v-166h-200zM401 471h562l-113 283q-68 170 -110 275.5t-62 162.5h-2q-18 -53 -59.5 -162.5 t-106.5 -275.5zM772 1538v197h164q23 0 29.5 -6.5t6.5 -24.5v-166h-200z" />
<glyph unicode="&#xc5;" horiz-adv-x="1382" d="M29 0l534 1331q-51 27 -80.5 77t-29.5 118q0 51 18 94t51 71.5t76 45t90 16.5t90 -16.5t75 -45t51.5 -71.5t19.5 -94q0 -72 -35 -124t-90 -77l555 -1325h-174q-25 0 -33 20l-123 299h-680l-115 -299q-4 -12 -10 -16t-22 -4h-168zM401 471h562l-113 283 q-68 170 -110 275.5t-62 162.5h-2q-18 -53 -59.5 -162.5t-106.5 -275.5zM573 1526q0 -57 31 -85t84 -28t84 28t31 85t-31 84.5t-84 27.5t-84 -27.5t-31 -84.5z" />
<glyph unicode="&#xc6;" horiz-adv-x="1955" d="M8 0l858 1358h965v-158h-703v-420h629v-155h-629v-467h725v-158h-915v319h-522l-185 -299q-8 -12 -14 -16t-22 -4h-187zM508 471h430v711q-49 -94 -130 -225.5t-175 -282.5z" />
<glyph unicode="&#xc7;" horiz-adv-x="1376" d="M76 680q0 143 47 270t133 222.5t206 150.5t265 55q195 0 338 -103.5t213 -273.5l-127 -75l-129 129q-72 72 -141.5 107.5t-165.5 35.5q-104 0 -187.5 -38t-139.5 -107.5t-86 -164.5t-30 -210q0 -246 122 -382t351 -136q72 0 151 23.5t161 64.5l178 92l74 -96 q-109 -117 -258.5 -188.5t-311.5 -75.5q-16 -27 -16 -46q0 -23 36 -35t79 -29t78.5 -48t35.5 -92q0 -86 -87 -141.5t-267 -55.5l-20 102l127 25q47 10 66.5 23.5t19.5 31.5q0 20 -33 33.5t-73 29t-72.5 38t-32.5 61.5q0 25 15 52.5t38 56.5q-123 14 -225.5 70.5t-176 147.5 t-114.5 212t-41 264z" />
<glyph unicode="&#xc8;" horiz-adv-x="1169" d="M152 0v1358h892v-158h-702v-420h629v-155h-629v-467h725v-158h-915zM359 1712l82 121q10 14 17 15t21 -9l383 -285l-61 -81z" />
<glyph unicode="&#xc9;" horiz-adv-x="1169" d="M152 0v1358h892v-158h-702v-420h629v-155h-629v-467h725v-158h-915zM363 1554l383 285q14 10 21 9t18 -15l81 -121l-442 -239z" />
<glyph unicode="&#xca;" horiz-adv-x="1169" d="M152 0v1358h892v-158h-702v-420h629v-155h-629v-467h725v-158h-915zM260 1548l258 260q16 16 24 19.5t29 3.5h51q20 0 28.5 -3t24.5 -20l258 -260l-71 -71l-262 209h-2l-265 -209z" />
<glyph unicode="&#xcb;" horiz-adv-x="1169" d="M152 0v1358h892v-158h-702v-420h629v-155h-629v-467h725v-158h-915zM312 1538v197h163q23 0 30 -6.5t7 -24.5v-166h-200zM699 1538v197h164q23 0 29.5 -6.5t6.5 -24.5v-166h-200z" />
<glyph unicode="&#xcc;" horiz-adv-x="509" d="M2 1712l82 121q10 14 17 15t21 -9l383 -285l-61 -81zM154 0v1358h190v-1358h-190z" />
<glyph unicode="&#xcd;" horiz-adv-x="509" d="M2 1554l383 285q14 10 21 9t18 -15l81 -121l-442 -239zM154 0v1358h190v-1358h-190z" />
<glyph unicode="&#xce;" horiz-adv-x="509" d="M-80 1548l258 260q16 16 24 19.5t29 3.5h51q20 0 28.5 -3t24.5 -20l258 -260l-71 -71l-262 209h-2l-265 -209zM160 0v1358h190v-1358h-190z" />
<glyph unicode="&#xcf;" horiz-adv-x="509" d="M-37 1538v197h163q23 0 30 -6.5t7 -24.5v-166h-200zM160 0v1358h190v-1358h-190zM350 1538v197h164q23 0 29.5 -6.5t6.5 -24.5v-166h-200z" />
<glyph unicode="&#xd0;" horiz-adv-x="1456" d="M0 623v145h184v590h404q205 0 355.5 -43t252.5 -137q90 -84 137 -208t47 -290t-47 -291t-137 -209q-102 -94 -252.5 -137t-355.5 -43h-404v623h-184zM375 160h178q170 0 296 26.5t206 104.5q61 59 95 156.5t34 232.5t-34 231.5t-95 155.5q-80 78 -206 104.5t-296 26.5 h-178v-430h327v-145h-327v-463z" />
<glyph unicode="&#xd1;" horiz-adv-x="1492" d="M152 0v1358h131q16 0 24 -3t21 -18l585 -733q35 -43 71 -88t68.5 -88t60.5 -79t46 -60v1069h182v-1358h-129q-16 0 -24 3t-21 17l-585 734q-35 43 -71 89t-69.5 89t-62.5 80t-45 59v-1071h-182zM399 1550q23 90 76 147.5t135 57.5q37 0 73 -14.5t70 -30.5t63.5 -30.5 t56.5 -14.5q39 0 66.5 21.5t55.5 72.5l97 -28q-23 -90 -76 -147.5t-135 -57.5q-37 0 -73 14t-69.5 30.5t-63.5 31t-56 14.5q-39 0 -67 -21.5t-56 -72.5z" />
<glyph unicode="&#xd2;" horiz-adv-x="1486" d="M76 678q0 156 53 285t145.5 221t213 143t255.5 51t256 -51t213.5 -143t145.5 -221t53 -285t-53 -284t-145.5 -220t-213 -143t-256.5 -51q-135 0 -255.5 51t-213 143t-145.5 220t-53 284zM272 678q0 -125 34 -221.5t96.5 -162t149.5 -99t191 -33.5t191.5 33.5t150 99 t96 162t33.5 221.5t-33.5 221t-96 162.5t-149.5 100.5t-192 34q-104 0 -191 -34t-149.5 -100.5t-96.5 -162.5t-34 -221zM512 1712l82 121q10 14 17 15t21 -9l383 -285l-61 -81z" />
<glyph unicode="&#xd3;" horiz-adv-x="1486" d="M76 678q0 156 53 285t145.5 221t213 143t255.5 51t256 -51t213.5 -143t145.5 -221t53 -285t-53 -284t-145.5 -220t-213 -143t-256.5 -51q-135 0 -255.5 51t-213 143t-145.5 220t-53 284zM272 678q0 -125 34 -221.5t96.5 -162t149.5 -99t191 -33.5t191.5 33.5t150 99 t96 162t33.5 221.5t-33.5 221t-96 162.5t-149.5 100.5t-192 34q-104 0 -191 -34t-149.5 -100.5t-96.5 -162.5t-34 -221zM512 1554l383 285q14 10 21 9t18 -15l81 -121l-442 -239z" />
<glyph unicode="&#xd4;" horiz-adv-x="1486" d="M76 678q0 156 53 285t145.5 221t213 143t255.5 51t256 -51t213.5 -143t145.5 -221t53 -285t-53 -284t-145.5 -220t-213 -143t-256.5 -51q-135 0 -255.5 51t-213 143t-145.5 220t-53 284zM272 678q0 -125 34 -221.5t96.5 -162t149.5 -99t191 -33.5t191.5 33.5t150 99 t96 162t33.5 221.5t-33.5 221t-96 162.5t-149.5 100.5t-192 34q-104 0 -191 -34t-149.5 -100.5t-96.5 -162.5t-34 -221zM406 1548l258 260q16 16 24 19.5t29 3.5h51q20 0 28.5 -3t24.5 -20l258 -260l-71 -71l-262 209h-2l-265 -209z" />
<glyph unicode="&#xd5;" horiz-adv-x="1486" d="M76 678q0 156 53 285t145.5 221t213 143t255.5 51t256 -51t213.5 -143t145.5 -221t53 -285t-53 -284t-145.5 -220t-213 -143t-256.5 -51q-135 0 -255.5 51t-213 143t-145.5 220t-53 284zM272 678q0 -125 34 -221.5t96.5 -162t149.5 -99t191 -33.5t191.5 33.5t150 99 t96 162t33.5 221.5t-33.5 221t-96 162.5t-149.5 100.5t-192 34q-104 0 -191 -34t-149.5 -100.5t-96.5 -162.5t-34 -221zM397 1550q23 90 76 147.5t135 57.5q37 0 73 -14.5t70 -30.5t63.5 -30.5t56.5 -14.5q39 0 66.5 21.5t55.5 72.5l97 -28q-23 -90 -76 -147.5t-135 -57.5 q-37 0 -73 14t-69.5 30.5t-63.5 31t-56 14.5q-39 0 -67 -21.5t-56 -72.5z" />
<glyph unicode="&#xd6;" horiz-adv-x="1486" d="M76 678q0 156 53 285t145.5 221t213 143t255.5 51t256 -51t213.5 -143t145.5 -221t53 -285t-53 -284t-145.5 -220t-213 -143t-256.5 -51q-135 0 -255.5 51t-213 143t-145.5 220t-53 284zM272 678q0 -125 34 -221.5t96.5 -162t149.5 -99t191 -33.5t191.5 33.5t150 99 t96 162t33.5 221.5t-33.5 221t-96 162.5t-149.5 100.5t-192 34q-104 0 -191 -34t-149.5 -100.5t-96.5 -162.5t-34 -221zM449 1538v197h163q23 0 30 -6.5t7 -24.5v-166h-200zM836 1538v197h164q23 0 29.5 -6.5t6.5 -24.5v-166h-200z" />
<glyph unicode="&#xd7;" horiz-adv-x="1097" d="M221 279l223 223l-223 223l103 102l223 -223l225 225l102 -102l-225 -225l225 -226l-102 -102l-225 225l-223 -223z" />
<glyph unicode="&#xd8;" horiz-adv-x="1486" d="M76 678q0 156 53 285t145.5 221t213 143t255.5 51q193 0 351 -100l133 178l121 -84l-140 -184q92 -94 147.5 -223t55.5 -287q0 -156 -53 -284t-145.5 -220t-213 -143t-256.5 -51q-201 0 -364 106l-135 -180l-121 84l143 190q-88 92 -139 218t-51 280zM272 678 q0 -113 28 -200t77 -152l610 813q-43 27 -109.5 42t-134.5 15q-104 0 -191 -34t-149.5 -100.5t-96.5 -162.5t-34 -221zM487 227q106 -66 256 -65q104 0 191.5 33.5t150 99t96 162t33.5 221.5q0 119 -29.5 210t-82.5 156z" />
<glyph unicode="&#xd9;" horiz-adv-x="1415" d="M143 516v842h191v-838q0 -92 18.5 -153.5t59.5 -106.5q45 -47 120.5 -73.5t176.5 -26.5q100 0 176 26.5t121 73.5q41 45 60 106.5t19 153.5v838h187v-840q0 -250 -133 -381q-72 -72 -183.5 -114.5t-246.5 -42.5t-248 41.5t-185 113.5q-68 66 -100.5 159t-32.5 222z M422 1712l82 121q10 14 17 15t21 -9l383 -285l-61 -81z" />
<glyph unicode="&#xda;" horiz-adv-x="1415" d="M143 516v842h191v-838q0 -92 18.5 -153.5t59.5 -106.5q45 -47 120.5 -73.5t176.5 -26.5q100 0 176 26.5t121 73.5q41 45 60 106.5t19 153.5v838h187v-840q0 -250 -133 -381q-72 -72 -183.5 -114.5t-246.5 -42.5t-248 41.5t-185 113.5q-68 66 -100.5 159t-32.5 222z M510 1554l383 285q14 10 21 9t18 -15l81 -121l-442 -239z" />
<glyph unicode="&#xdb;" horiz-adv-x="1415" d="M143 516v842h191v-838q0 -92 18.5 -153.5t59.5 -106.5q45 -47 120.5 -73.5t176.5 -26.5q100 0 176 26.5t121 73.5q41 45 60 106.5t19 153.5v838h187v-840q0 -250 -133 -381q-72 -72 -183.5 -114.5t-246.5 -42.5t-248 41.5t-185 113.5q-68 66 -100.5 159t-32.5 222z M373 1548l258 260q16 16 24 19.5t29 3.5h51q20 0 28.5 -3t24.5 -20l258 -260l-71 -71l-262 209h-2l-265 -209z" />
<glyph unicode="&#xdc;" horiz-adv-x="1415" d="M143 516v842h191v-838q0 -92 18.5 -153.5t59.5 -106.5q45 -47 120.5 -73.5t176.5 -26.5q100 0 176 26.5t121 73.5q41 45 60 106.5t19 153.5v838h187v-840q0 -250 -133 -381q-72 -72 -183.5 -114.5t-246.5 -42.5t-248 41.5t-185 113.5q-68 66 -100.5 159t-32.5 222z M416 1538v197h163q23 0 30 -6.5t7 -24.5v-166h-200zM803 1538v197h164q23 0 29.5 -6.5t6.5 -24.5v-166h-200z" />
<glyph unicode="&#xdd;" horiz-adv-x="1271" d="M4 1358h184q12 0 18.5 -3t14.5 -16l213 -370q72 -125 124 -220.5t81 -154.5h4q29 59 81 155.5t122 219.5l211 370q10 18 35 19h176l-535 -914v-444h-190v444zM439 1554l383 285q14 10 21 9t18 -15l81 -121l-442 -239z" />
<glyph unicode="&#xde;" horiz-adv-x="1255" d="M152 0v1358h190v-225h305q133 0 235.5 -28t174.5 -97q53 -51 82.5 -130t29.5 -180q0 -111 -33.5 -203t-99.5 -155q-51 -49 -113.5 -73.5t-170.5 -24.5h-410v-242h-190zM342 401h451q43 0 67.5 10.5t42.5 32.5q35 41 54.5 109t19.5 143q0 70 -16.5 118t-47.5 81 q-41 43 -109.5 60.5t-160.5 17.5h-301v-572z" />
<glyph unicode="&#xdf;" horiz-adv-x="1310" d="M4 860v103l189 32q0 106 36.5 193.5t103 150t161 97t211.5 34.5q80 0 151.5 -21.5t123.5 -60t83 -94t31 -123.5q0 -86 -45 -147t-131 -117l-101 -63q-72 -47 -97.5 -67.5t-25.5 -47.5t30 -47t114 -49l108 -37q154 -53 227.5 -121.5t73.5 -179.5q0 -66 -25.5 -122 t-74.5 -99t-119 -67.5t-158 -24.5q-104 0 -199.5 29.5t-170.5 78.5l45 105l82 -23q135 -37 229 -37q106 0 161.5 41t55.5 109q0 59 -46 93t-138 64l-115 39q-125 41 -186.5 92.5t-61.5 133.5q0 70 46 117.5t139 115.5l86 64q66 49 95.5 86.5t29.5 80.5q0 66 -59.5 106 t-170.5 40q-78 0 -139 -23.5t-102 -64.5t-59.5 -100.5t-18.5 -151.5v-977h-180v860h-189z" />
<glyph unicode="&#xe0;" horiz-adv-x="1097" d="M68 315q0 131 89 201t253 70h16q31 0 71 -2t84 -5.5t87 -8.5t80 -9v80q0 59 -10.5 93t-32.5 59q-29 33 -77 47t-110 14q-55 0 -115.5 -12.5t-119.5 -34.5l-103 -37l-57 98q102 74 205.5 111t206.5 37q90 0 168.5 -27.5t134.5 -87.5q43 -47 66.5 -108.5t23.5 -157.5v-488 l145 -26v-92q-31 -14 -71.5 -23.5t-79.5 -9.5q-53 0 -93.5 24.5t-62.5 67.5l-68 -35q-57 -29 -124.5 -49t-135.5 -20q-86 0 -153.5 26.5t-116.5 73.5q-47 45 -73.5 104.5t-26.5 126.5zM248 322q0 -78 55 -131.5t162 -53.5q66 0 138.5 19.5t125.5 48.5q18 10 19 33v186 q0 10 -4.5 15t-20.5 5h-348q-37 0 -59.5 -7t-36.5 -21q-31 -31 -31 -94zM277 1343l82 121q10 14 17 15.5t21 -9.5l383 -284l-61 -82z" />
<glyph unicode="&#xe1;" horiz-adv-x="1097" d="M68 315q0 131 89 201t253 70h16q31 0 71 -2t84 -5.5t87 -8.5t80 -9v80q0 59 -10.5 93t-32.5 59q-29 33 -77 47t-110 14q-55 0 -115.5 -12.5t-119.5 -34.5l-103 -37l-57 98q102 74 205.5 111t206.5 37q90 0 168.5 -27.5t134.5 -87.5q43 -47 66.5 -108.5t23.5 -157.5v-488 l145 -26v-92q-31 -14 -71.5 -23.5t-79.5 -9.5q-53 0 -93.5 24.5t-62.5 67.5l-68 -35q-57 -29 -124.5 -49t-135.5 -20q-86 0 -153.5 26.5t-116.5 73.5q-47 45 -73.5 104.5t-26.5 126.5zM248 322q0 -78 55 -131.5t162 -53.5q66 0 138.5 19.5t125.5 48.5q18 10 19 33v186 q0 10 -4.5 15t-20.5 5h-348q-37 0 -59.5 -7t-36.5 -21q-31 -31 -31 -94zM297 1186l383 284q14 10 21 9.5t18 -15.5l81 -121l-442 -239z" />
<glyph unicode="&#xe2;" horiz-adv-x="1097" d="M68 315q0 131 89 201t253 70h16q31 0 71 -2t84 -5.5t87 -8.5t80 -9v80q0 59 -10.5 93t-32.5 59q-29 33 -77 47t-110 14q-55 0 -115.5 -12.5t-119.5 -34.5l-103 -37l-57 98q102 74 205.5 111t206.5 37q90 0 168.5 -27.5t134.5 -87.5q43 -47 66.5 -108.5t23.5 -157.5v-488 l145 -26v-92q-31 -14 -71.5 -23.5t-79.5 -9.5q-53 0 -93.5 24.5t-62.5 67.5l-68 -35q-57 -29 -124.5 -49t-135.5 -20q-86 0 -153.5 26.5t-116.5 73.5q-47 45 -73.5 104.5t-26.5 126.5zM201 1180l258 260q16 16 24 19t29 3h51q20 0 28.5 -3t24.5 -19l258 -260l-71 -72 l-262 209h-2l-265 -209zM248 322q0 -78 55 -131.5t162 -53.5q66 0 138.5 19.5t125.5 48.5q18 10 19 33v186q0 10 -4.5 15t-20.5 5h-348q-37 0 -59.5 -7t-36.5 -21q-31 -31 -31 -94z" />
<glyph unicode="&#xe3;" horiz-adv-x="1097" d="M68 315q0 131 89 201t253 70h16q31 0 71 -2t84 -5.5t87 -8.5t80 -9v80q0 59 -10.5 93t-32.5 59q-29 33 -77 47t-110 14q-55 0 -115.5 -12.5t-119.5 -34.5l-103 -37l-57 98q102 74 205.5 111t206.5 37q90 0 168.5 -27.5t134.5 -87.5q43 -47 66.5 -108.5t23.5 -157.5v-488 l145 -26v-92q-31 -14 -71.5 -23.5t-79.5 -9.5q-53 0 -93.5 24.5t-62.5 67.5l-68 -35q-57 -29 -124.5 -49t-135.5 -20q-86 0 -153.5 26.5t-116.5 73.5q-47 45 -73.5 104.5t-26.5 126.5zM188 1182q23 90 76 147t135 57q37 0 73 -14t70 -30.5t63.5 -31t56.5 -14.5 q39 0 66.5 21.5t55.5 73.5l97 -29q-23 -90 -76 -147.5t-135 -57.5q-37 0 -73 14.5t-69.5 31t-63.5 30.5t-56 14q-39 0 -67 -21.5t-56 -72.5zM248 322q0 -78 55 -131.5t162 -53.5q66 0 138.5 19.5t125.5 48.5q18 10 19 33v186q0 10 -4.5 15t-20.5 5h-348q-37 0 -59.5 -7 t-36.5 -21q-31 -31 -31 -94z" />
<glyph unicode="&#xe4;" horiz-adv-x="1097" d="M68 315q0 131 89 201t253 70h16q31 0 71 -2t84 -5.5t87 -8.5t80 -9v80q0 59 -10.5 93t-32.5 59q-29 33 -77 47t-110 14q-55 0 -115.5 -12.5t-119.5 -34.5l-103 -37l-57 98q102 74 205.5 111t206.5 37q90 0 168.5 -27.5t134.5 -87.5q43 -47 66.5 -108.5t23.5 -157.5v-488 l145 -26v-92q-31 -14 -71.5 -23.5t-79.5 -9.5q-53 0 -93.5 24.5t-62.5 67.5l-68 -35q-57 -29 -124.5 -49t-135.5 -20q-86 0 -153.5 26.5t-116.5 73.5q-47 45 -73.5 104.5t-26.5 126.5zM242 1169v197h163q23 0 30 -6t7 -25v-166h-200zM248 322q0 -78 55 -131.5t162 -53.5 q66 0 138.5 19.5t125.5 48.5q18 10 19 33v186q0 10 -4.5 15t-20.5 5h-348q-37 0 -59.5 -7t-36.5 -21q-31 -31 -31 -94zM629 1169v197h164q23 0 29.5 -6t6.5 -25v-166h-200z" />
<glyph unicode="&#xe5;" horiz-adv-x="1097" d="M68 315q0 131 89 201t253 70h16q31 0 71 -2t84 -5.5t87 -8.5t80 -9v80q0 59 -10.5 93t-32.5 59q-29 33 -77 47t-110 14q-55 0 -115.5 -12.5t-119.5 -34.5l-103 -37l-57 98q102 74 205.5 111t206.5 37q90 0 168.5 -27.5t134.5 -87.5q43 -47 66.5 -108.5t23.5 -157.5v-488 l145 -26v-92q-31 -14 -71.5 -23.5t-79.5 -9.5q-53 0 -93.5 24.5t-62.5 67.5l-68 -35q-57 -29 -124.5 -49t-135.5 -20q-86 0 -153.5 26.5t-116.5 73.5q-47 45 -73.5 104.5t-26.5 126.5zM248 322q0 -78 55 -131.5t162 -53.5q66 0 138.5 19.5t125.5 48.5q18 10 19 33v186 q0 10 -4.5 15t-20.5 5h-348q-37 0 -59.5 -7t-36.5 -21q-31 -31 -31 -94zM299 1343q0 51 18.5 94.5t51 72t75.5 45t91 16.5q47 0 90 -16.5t74.5 -45t51 -72t19.5 -94.5q0 -53 -19.5 -95t-51 -70.5t-74.5 -45t-90 -16.5t-90.5 16.5t-76 45t-51 70.5t-18.5 95zM420 1343 q0 -57 30.5 -84.5t84.5 -27.5q53 0 83.5 27.5t30.5 84.5t-30.5 85t-83.5 28t-84 -27.5t-31 -85.5z" />
<glyph unicode="&#xe6;" horiz-adv-x="1759" d="M74 324q0 131 89 200.5t253 69.5h16q59 0 146.5 -7t158.5 -18v72q0 59 -10 93t-33 59q-29 33 -77 47t-109 14q-55 0 -113.5 -12.5t-118.5 -34.5l-100 -37l-59 98q203 147 407 148q98 0 188.5 -37t147.5 -123q66 76 157 118t200 42q102 0 188 -37t147.5 -101.5t95 -150.5 t33.5 -184q0 -51 -11 -70.5t-34 -19.5h-714q10 -135 89 -220.5t234 -85.5q59 0 124 15.5t122 38.5l111 43l59 -94q-94 -74 -207 -120t-223 -46q-117 0 -208 38.5t-157 110.5l-67 -41q-78 -47 -164 -77.5t-191 -30.5q-72 0 -138 24.5t-118.5 68.5t-83 106.5t-30.5 140.5z M254 330q0 -78 55.5 -135.5t161.5 -57.5q86 0 175 32t145 75q-23 45 -36.5 99t-17.5 110h-356q-37 0 -59.5 -7.5t-36.5 -21.5q-31 -31 -31 -94zM922 592h581q-8 117 -82.5 189.5t-203.5 72.5q-127 0 -205 -68.5t-90 -193.5z" />
<glyph unicode="&#xe7;" horiz-adv-x="1048" d="M74 504q0 111 36.5 205t102.5 161.5t154 106.5t190 39q74 0 141.5 -21.5t123 -61.5t95 -94.5t60.5 -119.5l-115 -60l-71 68q-72 68 -125.5 98.5t-124.5 30.5q-121 0 -201 -91t-80 -257q0 -180 83 -270.5t237 -90.5q102 0 241 64l113 51l61 -92q-92 -80 -202.5 -131 t-223.5 -55q-18 -29 -18 -50q0 -23 36 -35t79 -29t78.5 -48t35.5 -92q0 -86 -87 -141.5t-267 -55.5l-20 102l126 25q47 10 66.5 23.5t19.5 31.5q0 20 -32.5 33.5t-72.5 29t-72.5 38t-32.5 61.5q0 27 15 56.5t42 58.5q-90 14 -163 59t-124 112.5t-77.5 153.5t-26.5 187z" />
<glyph unicode="&#xe8;" horiz-adv-x="1097" d="M74 500q0 115 36.5 210t101 162.5t153 105.5t190.5 38t187 -37t146.5 -101.5t96.5 -150.5t35 -184q0 -51 -12.5 -70.5t-36.5 -19.5h-711q10 -135 89 -220.5t237 -85.5q59 0 124.5 16.5t123.5 39.5l110 43l60 -96q-94 -74 -208 -120t-225 -46q-115 0 -206 38.5 t-156.5 108.5t-100 164t-34.5 205zM260 592h582q-8 117 -82 189.5t-203 72.5q-127 0 -206 -68.5t-91 -193.5zM310 1343l82 121q10 14 17 15.5t21 -9.5l383 -284l-61 -82z" />
<glyph unicode="&#xe9;" horiz-adv-x="1097" d="M74 500q0 115 36.5 210t101 162.5t153 105.5t190.5 38t187 -37t146.5 -101.5t96.5 -150.5t35 -184q0 -51 -12.5 -70.5t-36.5 -19.5h-711q10 -135 89 -220.5t237 -85.5q59 0 124.5 16.5t123.5 39.5l110 43l60 -96q-94 -74 -208 -120t-225 -46q-115 0 -206 38.5 t-156.5 108.5t-100 164t-34.5 205zM260 592h582q-8 117 -82 189.5t-203 72.5q-127 0 -206 -68.5t-91 -193.5zM320 1186l383 284q14 10 21 9.5t18 -15.5l81 -121l-442 -239z" />
<glyph unicode="&#xea;" horiz-adv-x="1097" d="M74 500q0 115 36.5 210t101 162.5t153 105.5t190.5 38t187 -37t146.5 -101.5t96.5 -150.5t35 -184q0 -51 -12.5 -70.5t-36.5 -19.5h-711q10 -135 89 -220.5t237 -85.5q59 0 124.5 16.5t123.5 39.5l110 43l60 -96q-94 -74 -208 -120t-225 -46q-115 0 -206 38.5 t-156.5 108.5t-100 164t-34.5 205zM224 1180l258 260q16 16 24 19t29 3h51q20 0 28.5 -3t24.5 -19l258 -260l-71 -72l-262 209h-2l-265 -209zM260 592h582q-8 117 -82 189.5t-203 72.5q-127 0 -206 -68.5t-91 -193.5z" />
<glyph unicode="&#xeb;" horiz-adv-x="1097" d="M74 500q0 115 36.5 210t101 162.5t153 105.5t190.5 38t187 -37t146.5 -101.5t96.5 -150.5t35 -184q0 -51 -12.5 -70.5t-36.5 -19.5h-711q10 -135 89 -220.5t237 -85.5q59 0 124.5 16.5t123.5 39.5l110 43l60 -96q-94 -74 -208 -120t-225 -46q-115 0 -206 38.5 t-156.5 108.5t-100 164t-34.5 205zM260 592h582q-8 117 -82 189.5t-203 72.5q-127 0 -206 -68.5t-91 -193.5zM265 1169v197h163q23 0 30 -6t7 -25v-166h-200zM652 1169v197h164q23 0 29.5 -6t6.5 -25v-166h-200z" />
<glyph unicode="&#xec;" horiz-adv-x="442" d="M-28 1343l82 121q10 14 17 15.5t21 -9.5l383 -284l-61 -82zM133 0v999h180v-999h-180z" />
<glyph unicode="&#xed;" horiz-adv-x="442" d="M-28 1186l383 284q14 10 21 9.5t18 -15.5l81 -121l-442 -239zM133 0v999h180v-999h-180z" />
<glyph unicode="&#xee;" horiz-adv-x="438" d="M-114 1180l258 260q16 16 24 19t29 3h51q20 0 28.5 -3t24.5 -19l258 -260l-71 -72l-262 209h-2l-265 -209zM131 0v999h180v-999h-180z" />
<glyph unicode="&#xef;" horiz-adv-x="438" d="M-71 1169v197h163q23 0 30 -6t7 -25v-166h-200zM131 0v999h180v-999h-180zM316 1169v197h164q23 0 29.5 -6t6.5 -25v-166h-200z" />
<glyph unicode="&#xf0;" horiz-adv-x="1140" d="M76 483q0 109 37 196t99 148.5t145 94t175 32.5q72 0 144 -20.5t143 -56.5q-29 90 -86 170.5t-127 136.5l-270 -123l-55 104l219 101q-51 35 -106.5 66.5t-112.5 64.5l55 96q90 -33 167 -74t142 -88l256 117l55 -105l-204 -94q150 -135 224.5 -308t74.5 -370 q0 -131 -34 -239.5t-98.5 -186t-155.5 -120.5t-206 -43h-6q-104 0 -192.5 37.5t-151 105.5t-97 160t-34.5 198zM256 483q0 -154 78 -248t227 -94q82 0 140.5 31t96.5 85t55 129t17 165q0 43 -1 81t-7 68q-4 18 -12 27.5t-29 20.5q-119 53 -256 53q-147 0 -228 -78t-81 -240z " />
<glyph unicode="&#xf1;" horiz-adv-x="1134" d="M137 0v999h131l31 -86l63 31q59 29 128 50.5t135 21.5q90 0 164.5 -27.5t125.5 -77.5q47 -47 73 -112.5t26 -167.5v-631h-180v623q0 70 -12.5 106.5t-39.5 63.5q-29 29 -79 41t-109 12h-2q-66 0 -137.5 -16.5t-118.5 -38.5q-12 -6 -15.5 -13.5t-3.5 -19.5v-758h-180z M256 1182q23 90 76 147t135 57q37 0 73 -14t70 -30.5t63.5 -31t56.5 -14.5q39 0 66.5 21.5t55.5 73.5l97 -29q-23 -90 -76 -147.5t-135 -57.5q-37 0 -73 14.5t-69.5 31t-63.5 30.5t-56 14q-39 0 -67 -21.5t-56 -72.5z" />
<glyph unicode="&#xf2;" horiz-adv-x="1132" d="M74 500q0 119 39 214t105.5 162.5t155.5 103.5t189 36h6q100 0 189.5 -36t156 -103.5t105.5 -162.5t39 -214t-39 -214.5t-105.5 -163t-155.5 -103t-190 -35.5h-6q-100 0 -189 35.5t-155.5 103t-105.5 163t-39 214.5zM260 500q0 -170 78 -259t225 -89h6q147 0 225 89 t78 259t-77.5 259t-225.5 89h-6q-147 0 -225 -89t-78 -259zM314 1343l82 121q10 14 17 15.5t21 -9.5l383 -284l-61 -82z" />
<glyph unicode="&#xf3;" horiz-adv-x="1132" d="M74 500q0 119 39 214t105.5 162.5t155.5 103.5t189 36h6q100 0 189.5 -36t156 -103.5t105.5 -162.5t39 -214t-39 -214.5t-105.5 -163t-155.5 -103t-190 -35.5h-6q-100 0 -189 35.5t-155.5 103t-105.5 163t-39 214.5zM260 500q0 -170 78 -259t225 -89h6q147 0 225 89 t78 259t-77.5 259t-225.5 89h-6q-147 0 -225 -89t-78 -259zM314 1186l383 284q14 10 21 9.5t18 -15.5l81 -121l-442 -239z" />
<glyph unicode="&#xf4;" horiz-adv-x="1132" d="M74 500q0 119 39 214t105.5 162.5t155.5 103.5t189 36h6q100 0 189.5 -36t156 -103.5t105.5 -162.5t39 -214t-39 -214.5t-105.5 -163t-155.5 -103t-190 -35.5h-6q-100 0 -189 35.5t-155.5 103t-105.5 163t-39 214.5zM230 1180l258 260q16 16 24 19t29 3h51q20 0 28.5 -3 t24.5 -19l258 -260l-71 -72l-262 209h-2l-265 -209zM260 500q0 -170 78 -259t225 -89h6q147 0 225 89t78 259t-77.5 259t-225.5 89h-6q-147 0 -225 -89t-78 -259z" />
<glyph unicode="&#xf5;" horiz-adv-x="1132" d="M74 500q0 119 39 214t105.5 162.5t155.5 103.5t189 36h6q100 0 189.5 -36t156 -103.5t105.5 -162.5t39 -214t-39 -214.5t-105.5 -163t-155.5 -103t-190 -35.5h-6q-100 0 -189 35.5t-155.5 103t-105.5 163t-39 214.5zM219 1182q23 90 76 147t135 57q37 0 73 -14t70 -30.5 t63.5 -31t56.5 -14.5q39 0 66.5 21.5t55.5 73.5l97 -29q-23 -90 -76 -147.5t-135 -57.5q-37 0 -73 14.5t-69.5 31t-63.5 30.5t-56 14q-39 0 -67 -21.5t-56 -72.5zM260 500q0 -170 78 -259t225 -89h6q147 0 225 89t78 259t-77.5 259t-225.5 89h-6q-147 0 -225 -89t-78 -259z " />
<glyph unicode="&#xf6;" horiz-adv-x="1132" d="M74 500q0 119 39 214t105.5 162.5t155.5 103.5t189 36h6q100 0 189.5 -36t156 -103.5t105.5 -162.5t39 -214t-39 -214.5t-105.5 -163t-155.5 -103t-190 -35.5h-6q-100 0 -189 35.5t-155.5 103t-105.5 163t-39 214.5zM260 500q0 -170 78 -259t225 -89h6q147 0 225 89 t78 259t-77.5 259t-225.5 89h-6q-147 0 -225 -89t-78 -259zM273 1169v197h163q23 0 30 -6t7 -25v-166h-200zM660 1169v197h164q23 0 29.5 -6t6.5 -25v-166h-200z" />
<glyph unicode="&#xf7;" horiz-adv-x="1089" d="M156 430v145h778v-145h-778zM449 82v192h157q23 0 29 -7t6 -23v-162h-192zM449 731v193h157q23 0 29 -7.5t6 -23.5v-162h-192z" />
<glyph unicode="&#xf8;" horiz-adv-x="1132" d="M74 500q0 119 39 214t105.5 162.5t155.5 103.5t189 36h6q131 0 246 -64l129 178l109 -71l-135 -187q66 -68 103.5 -162t37.5 -210q0 -119 -39 -214.5t-105.5 -163t-155.5 -103t-190 -35.5h-6q-137 0 -244 61l-126 -178l-109 74l133 184q-66 66 -104.5 161t-38.5 214z M260 500q0 -145 59 -234l398 551q-61 31 -148 31h-6q-147 0 -225 -89t-78 -259zM418 180q63 -29 145 -28h6q147 0 225 89t78 259q0 139 -57 229z" />
<glyph unicode="&#xf9;" horiz-adv-x="1126" d="M121 369v630h180v-622q0 -70 12.5 -107t38.5 -63q29 -29 78 -41t109 -12h2q66 0 134 16t116 39q12 6 15 13t3 20v757h180v-999h-131l-31 86l-63 -31q-59 -29 -125 -50t-131 -21q-90 0 -164 27.5t-125 76.5q-47 47 -72.5 112.5t-25.5 168.5zM248 1343l82 121 q10 14 17 15.5t21 -9.5l383 -284l-61 -82z" />
<glyph unicode="&#xfa;" horiz-adv-x="1126" d="M121 369v630h180v-622q0 -70 12.5 -107t38.5 -63q29 -29 78 -41t109 -12h2q66 0 134 16t116 39q12 6 15 13t3 20v757h180v-999h-131l-31 86l-63 -31q-59 -29 -125 -50t-131 -21q-90 0 -164 27.5t-125 76.5q-47 47 -72.5 112.5t-25.5 168.5zM392 1186l383 284 q14 10 21 9.5t18 -15.5l81 -121l-442 -239z" />
<glyph unicode="&#xfb;" horiz-adv-x="1126" d="M121 369v630h180v-622q0 -70 12.5 -107t38.5 -63q29 -29 78 -41t109 -12h2q66 0 134 16t116 39q12 6 15 13t3 20v757h180v-999h-131l-31 86l-63 -31q-59 -29 -125 -50t-131 -21q-90 0 -164 27.5t-125 76.5q-47 47 -72.5 112.5t-25.5 168.5zM226 1180l258 260q16 16 24 19 t29 3h51q20 0 28.5 -3t24.5 -19l258 -260l-71 -72l-262 209h-2l-265 -209z" />
<glyph unicode="&#xfc;" horiz-adv-x="1126" d="M121 369v630h180v-622q0 -70 12.5 -107t38.5 -63q29 -29 78 -41t109 -12h2q66 0 134 16t116 39q12 6 15 13t3 20v757h180v-999h-131l-31 86l-63 -31q-59 -29 -125 -50t-131 -21q-90 0 -164 27.5t-125 76.5q-47 47 -72.5 112.5t-25.5 168.5zM269 1169v197h163q23 0 30 -6 t7 -25v-166h-200zM656 1169v197h164q23 0 29.5 -6t6.5 -25v-166h-200z" />
<glyph unicode="&#xfd;" horiz-adv-x="1052" d="M10 999h164q14 0 19.5 -3t11.5 -17l196 -457q18 -43 38 -92t38.5 -95t33.5 -88t26 -69h2q16 51 53 145.5t80 198.5l184 457q6 14 11 17t22 3h155l-614 -1472l-166 37l187 426zM344 1186l383 284q14 10 21 9.5t18 -15.5l81 -121l-442 -239z" />
<glyph unicode="&#xfe;" horiz-adv-x="1159" d="M137 -469v1921h180v-547l54 29q74 41 141.5 61.5t132.5 20.5q92 0 173 -37t139.5 -104.5t92 -163t33.5 -211.5q0 -117 -31.5 -212t-90 -163t-140.5 -104.5t-180 -36.5q-66 0 -130.5 18t-135.5 57l-58 31v-559h-180zM317 260q0 -18 6.5 -25.5t16.5 -13.5q53 -29 126 -50 t142 -21q61 0 114.5 16t91.5 57t60.5 107.5t22.5 169.5q0 98 -21.5 165.5t-60.5 107.5t-90 57.5t-113 17.5q-70 0 -144.5 -21.5t-127.5 -50.5q-10 -6 -16.5 -13t-6.5 -26v-477z" />
<glyph unicode="&#xff;" horiz-adv-x="1052" d="M10 999h164q14 0 19.5 -3t11.5 -17l196 -457q18 -43 38 -92t38.5 -95t33.5 -88t26 -69h2q16 51 53 145.5t80 198.5l184 457q6 14 11 17t22 3h155l-614 -1472l-166 37l187 426zM240 1169v197h163q23 0 30 -6t7 -25v-166h-200zM627 1169v197h164q23 0 29.5 -6t6.5 -25v-166 h-200z" />
<glyph unicode="&#x152;" horiz-adv-x="2220" d="M76 678q0 156 53 285t145.5 221t213 143t255.5 51q147 0 267 -66.5t192 -164.5v211h893v-158h-702v-420h641v-155h-641v-467h725v-158h-916v211q-72 -100 -191.5 -165.5t-267.5 -65.5q-135 0 -255.5 51t-213 143t-145.5 220t-53 284zM272 678q0 -125 34 -221.5t96.5 -162 t149.5 -99t191 -33.5t191.5 33.5t150 99t96 162t33.5 221.5t-33.5 221t-96 162.5t-149.5 100.5t-192 34q-104 0 -191 -34t-149.5 -100.5t-96.5 -162.5t-34 -221z" />
<glyph unicode="&#x153;" horiz-adv-x="1898" d="M74 500q0 119 39 214t105.5 162.5t155.5 103.5t189 36h6q123 0 225.5 -52.5t170.5 -150.5q66 96 166 149.5t223 53.5q102 0 188 -37t147.5 -101.5t96.5 -150.5t35 -184q0 -51 -13.5 -70.5t-35.5 -19.5h-711q10 -135 90 -220.5t235 -85.5q59 0 125 16.5t123 39.5l111 43 l59 -96q-94 -74 -207.5 -120t-224.5 -46q-135 0 -238.5 53t-168.5 147q-66 -98 -169.5 -149t-226.5 -51h-6q-100 0 -189 35.5t-155.5 103t-105.5 163t-39 214.5zM260 500q0 -170 78 -259t225 -89h6q147 0 225 89t78 259t-77.5 259t-225.5 89h-6q-147 0 -225 -89t-78 -259z M1061 592h581q-8 117 -81.5 189.5t-202.5 72.5q-127 0 -206 -68.5t-91 -193.5z" />
<glyph unicode="&#x178;" horiz-adv-x="1271" d="M4 1358h184q12 0 18.5 -3t14.5 -16l213 -370q72 -125 124 -220.5t81 -154.5h4q29 59 81 155.5t122 219.5l211 370q10 18 35 19h176l-535 -914v-444h-190v444zM342 1538v197h163q23 0 30 -6.5t7 -24.5v-166h-200zM729 1538v197h164q23 0 29.5 -6.5t6.5 -24.5v-166h-200z " />
<glyph unicode="&#x2c6;" horiz-adv-x="815" d="M70 1180l258 260q16 16 24 19t29 3h51q20 0 28.5 -3t24.5 -19l258 -260l-71 -72l-262 209h-2l-265 -209z" />
<glyph unicode="&#x2dc;" horiz-adv-x="815" d="M61 1182q23 90 76 147t135 57q37 0 73 -14t70 -30.5t63.5 -31t56.5 -14.5q39 0 66.5 21.5t55.5 73.5l97 -29q-23 -90 -76 -147.5t-135 -57.5q-37 0 -73 14.5t-69.5 31t-63.5 30.5t-56 14q-39 0 -67 -21.5t-56 -72.5z" />
<glyph unicode="&#x2000;" horiz-adv-x="924" />
<glyph unicode="&#x2001;" horiz-adv-x="1848" />
<glyph unicode="&#x2002;" horiz-adv-x="924" />
<glyph unicode="&#x2003;" horiz-adv-x="1848" />
<glyph unicode="&#x2004;" horiz-adv-x="616" />
<glyph unicode="&#x2005;" horiz-adv-x="462" />
<glyph unicode="&#x2006;" horiz-adv-x="308" />
<glyph unicode="&#x2007;" horiz-adv-x="308" />
<glyph unicode="&#x2008;" horiz-adv-x="231" />
<glyph unicode="&#x2009;" horiz-adv-x="369" />
<glyph unicode="&#x200a;" horiz-adv-x="102" />
<glyph unicode="&#x2010;" horiz-adv-x="851" d="M117 424v151h618v-151h-618z" />
<glyph unicode="&#x2011;" horiz-adv-x="851" d="M117 424v151h618v-151h-618z" />
<glyph unicode="&#x2012;" horiz-adv-x="851" d="M117 424v151h618v-151h-618z" />
<glyph unicode="&#x2013;" horiz-adv-x="1257" d="M117 424v151h1024v-151h-1024z" />
<glyph unicode="&#x2014;" horiz-adv-x="2281" d="M117 424v151h2048v-151h-2048z" />
<glyph unicode="&#x2018;" horiz-adv-x="450" d="M109 889v115q0 45 8 80.5t30.5 75.5t63.5 89t108 119l64 -49l-125 -223q-8 -14 -6 -19.5t12 -11.5l29 -18q16 -10 20 -19.5t4 -26.5v-147h-167q-25 0 -33 7t-8 28z" />
<glyph unicode="&#x2019;" horiz-adv-x="450" d="M68 893l125 223q8 14 6 19.5t-13 11.5l-28 18q-16 10 -20.5 19.5t-4.5 25.5v148h168q25 0 33 -7.5t8 -27.5v-115q0 -45 -8 -80.5t-30.5 -75.5t-63.5 -89.5t-109 -118.5z" />
<glyph unicode="&#x201a;" horiz-adv-x="442" d="M49 -334l125 223q8 14 6 19.5t-12 11.5l-29 19q-16 10 -20 19t-4 26v147h168q25 0 33 -7t8 -28v-114q0 -45 -8.5 -81t-31 -76t-63.5 -89t-108 -119z" />
<glyph unicode="&#x201c;" horiz-adv-x="784" d="M109 889v115q0 45 8 80.5t30.5 75.5t63.5 89t108 119l64 -49l-125 -223q-8 -14 -6 -19.5t12 -11.5l29 -18q16 -10 20 -19.5t4 -26.5v-147h-167q-25 0 -33 7t-8 28zM442 889v115q0 45 8.5 80.5t31 75.5t63.5 89t108 119l64 -49l-125 -223q-8 -14 -6 -19.5t12 -11.5l29 -18 q16 -10 20 -19.5t4 -26.5v-147h-168q-25 0 -33 7t-8 28z" />
<glyph unicode="&#x201d;" horiz-adv-x="784" d="M68 893l125 223q8 14 6 19.5t-13 11.5l-28 18q-16 10 -20.5 19.5t-4.5 25.5v148h168q25 0 33 -7.5t8 -27.5v-115q0 -45 -8 -80.5t-30.5 -75.5t-63.5 -89.5t-109 -118.5zM401 893l125 223q8 14 6 19.5t-12 11.5l-28 18q-16 10 -20.5 19.5t-4.5 25.5v148h168q25 0 33 -7.5 t8 -27.5v-115q0 -45 -8.5 -80.5t-31 -75.5t-63.5 -89.5t-108 -118.5z" />
<glyph unicode="&#x201e;" horiz-adv-x="776" d="M49 -334l125 223q8 14 6 19.5t-12 11.5l-29 19q-16 10 -20 19t-4 26v147h168q25 0 33 -7t8 -28v-114q0 -45 -8.5 -81t-31 -76t-63.5 -89t-108 -119zM383 -334l125 223q8 14 6 19.5t-12 11.5l-29 19q-16 10 -20 19t-4 26v147h167q25 0 33 -7t8 -28v-114q0 -45 -8 -81 t-30.5 -76t-63.5 -89t-109 -119z" />
<glyph unicode="&#x2022;" horiz-adv-x="706" d="M147 377v397h359q33 0 43 -9t10 -38v-350h-412z" />
<glyph unicode="&#x2026;" horiz-adv-x="1314" d="M121 0v209h164q25 0 33 -7t8 -28v-174h-205zM555 0v209h164q25 0 33 -7t8 -28v-174h-205zM989 0v209h164q25 0 33 -7t8 -28v-174h-205z" />
<glyph unicode="&#x202f;" horiz-adv-x="369" />
<glyph unicode="&#x2039;" horiz-adv-x="724" d="M98 469v90l439 350l79 -80l-331 -325v-2l331 -328l-79 -80l-420 336q-10 10 -14.5 16.5t-4.5 22.5z" />
<glyph unicode="&#x203a;" horiz-adv-x="724" d="M109 174l331 326v2l-331 327l79 80l420 -336q10 -10 14.5 -16t4.5 -22v-91l-439 -350z" />
<glyph unicode="&#x205f;" horiz-adv-x="462" />
<glyph unicode="&#x20ac;" d="M57 485v99l142 18q-2 20 -3 37.5t-1 40.5v25.5t2 25.5h-140v98l152 19q18 119 64 216t116 166.5t158 108.5t192 39q152 0 268.5 -83t178.5 -218l-109 -65l-100 94q-59 55 -111.5 83t-128.5 28q-129 0 -223 -90.5t-121 -274.5h430v-121h-442q-2 -16 -2 -28.5v-26.5v-36.5 t2 -33.5h442v-123h-424q25 -160 122 -250t241 -90q125 0 254 72l110 61l70 -83q-82 -98 -204 -155.5t-247 -57.5q-104 0 -194 35.5t-159.5 102t-116 160t-62.5 207.5h-156z" />
<glyph unicode="&#x2122;" horiz-adv-x="1429" d="M37 1245v113h520v-113h-192v-516h-136v516h-192zM639 729v629h94q12 0 17.5 -3t9.5 -9l229 -297l223 297q10 12 31 12h88v-629h-127v406l-168 -217h-75q-20 0 -29 12l-168 215v-416h-125z" />
<glyph unicode="&#x25fc;" horiz-adv-x="1003" d="M0 0v1004h1004v-1004h-1004z" />
</font>
</defs>
</svg>
